<svg version="1.1" id="Layer_1" xmlns="http://www.w3.org/2000/svg" xmlns:xlink="http://www.w3.org/1999/xlink" x="0px" y="0px"
	 width="100%" viewBox="0 0 400 400" enable-background="new 0 0 400 400" xml:space="preserve">
<path fill="#353535" opacity="1.000000" stroke="none" 
	d="
M401.000000,225.000000 
	C401.000000,283.593689 401.000000,342.187378 401.000000,401.000000 
	C342.645966,401.000000 284.291626,401.000000 225.136322,400.662354 
	C225.364594,399.895874 226.362595,399.202698 227.427658,399.076813 
	C255.360458,395.775269 281.053406,386.083984 305.143097,371.851440 
	C308.845886,369.663849 312.394775,367.199066 315.908447,364.712189 
	C320.213165,361.665466 321.596008,356.168854 319.111542,352.643402 
	C316.745575,349.286072 312.082733,348.855347 307.490967,351.616882 
	C306.213837,352.385010 305.013367,353.280243 303.774139,354.111816 
	C278.098877,371.341766 249.874832,382.177826 219.131256,384.716614 
	C199.165482,386.365387 178.994675,385.860657 159.210648,380.913452 
	C115.333199,369.941406 79.464485,346.721802 52.737122,310.299744 
	C22.667303,269.322784 11.673634,223.301712 18.940088,172.929489 
	C23.345997,142.387024 34.618187,114.377037 53.590424,90.377907 
	C98.534012,33.526035 157.461334,9.194761 229.632782,19.033707 
	C265.446350,23.916080 296.875153,39.066998 323.484619,63.418362 
	C370.565216,106.503609 390.690979,160.081436 384.050781,223.590302 
	C381.263397,250.249390 372.008301,274.700409 358.091125,297.475189 
	C355.753815,301.300171 352.682800,304.798645 351.048828,308.886871 
	C350.038269,311.415253 350.025116,315.648621 351.539124,317.511993 
	C353.051392,319.373199 357.301300,320.312927 359.839691,319.662109 
	C362.260742,319.041412 364.402435,316.108582 366.015839,313.747314 
	C383.983337,287.450562 395.391785,258.629242 399.126678,226.882065 
	C399.208008,226.190811 400.351837,225.624557 401.000000,225.000000 
M217.244308,129.744385 
	C211.861862,135.073502 206.479431,140.402634 199.801147,147.014771 
	C181.776871,128.371353 164.329926,110.250122 146.780777,92.228401 
	C142.642639,87.978828 139.871048,87.892303 135.691498,92.025345 
	C121.123833,106.430901 106.637131,120.920029 92.262222,135.517776 
	C87.781898,140.067551 87.956543,142.501282 92.360962,146.963104 
	C108.863823,163.681061 125.408302,180.357910 141.931290,197.056015 
	C143.176208,198.314148 144.374786,199.618164 146.360260,201.705444 
	C144.370270,203.241364 142.628403,204.303925 141.229889,205.708374 
	C125.359596,221.646088 109.516022,237.610687 93.722885,253.624863 
	C87.555611,259.878448 87.391060,261.473206 93.408699,267.606445 
	C106.939438,281.397125 120.605003,295.058441 134.383026,308.602203 
	C140.473816,314.589447 142.099350,314.429169 148.370468,308.257507 
	C164.757156,292.130737 181.080688,275.939819 197.440216,259.785431 
	C198.580811,258.659149 199.809921,257.622528 201.078659,256.470886 
	C202.591827,257.905853 203.811859,259.021637 204.986664,260.183167 
	C221.217773,276.230682 237.418900,292.308594 253.681274,308.324341 
	C259.874908,314.424072 261.503571,314.579956 267.640381,308.555786 
	C281.427155,295.022186 295.092468,281.361725 308.629211,267.578064 
	C314.607880,261.490326 314.430908,259.868011 308.258545,253.609436 
	C292.114319,237.239578 275.910980,220.927994 259.742523,204.582016 
	C258.613129,203.440247 257.576324,202.206940 256.412231,200.923325 
	C257.824371,199.432907 258.938110,198.212631 260.098969,197.038940 
	C276.383728,180.573868 292.704071,164.143890 308.947693,147.638351 
	C314.176636,142.325104 314.403320,140.364883 309.260223,135.121872 
	C295.148560,120.736076 280.875702,106.504730 266.471954,92.411217 
	C261.594788,87.639099 259.651947,87.863289 254.714600,92.705185 
	C242.343903,104.836723 230.062698,117.059502 217.244308,129.744385 
M342.605713,342.096466 
	C345.301483,338.403534 345.686035,334.678558 342.121613,331.414337 
	C339.296783,328.827423 335.791351,328.361725 332.520203,330.445679 
	C329.098053,332.625732 328.677338,336.053772 329.942230,339.687164 
	C331.707367,344.757324 336.340729,345.846069 342.605713,342.096466 
z"/>
<path fill="#F9FAFA" opacity="1.000000" stroke="none" 
	d="
M401.000000,224.531342 
	C400.351837,225.624557 399.208008,226.190811 399.126678,226.882065 
	C395.391785,258.629242 383.983337,287.450562 366.015839,313.747314 
	C364.402435,316.108582 362.260742,319.041412 359.839691,319.662109 
	C357.301300,320.312927 353.051392,319.373199 351.539124,317.511993 
	C350.025116,315.648621 350.038269,311.415253 351.048828,308.886871 
	C352.682800,304.798645 355.753815,301.300171 358.091125,297.475189 
	C372.008301,274.700409 381.263397,250.249390 384.050781,223.590302 
	C390.690979,160.081436 370.565216,106.503609 323.484619,63.418362 
	C296.875153,39.066998 265.446350,23.916080 229.632782,19.033707 
	C157.461334,9.194761 98.534012,33.526035 53.590424,90.377907 
	C34.618187,114.377037 23.345997,142.387024 18.940088,172.929489 
	C11.673634,223.301712 22.667303,269.322784 52.737122,310.299744 
	C79.464485,346.721802 115.333199,369.941406 159.210648,380.913452 
	C178.994675,385.860657 199.165482,386.365387 219.131256,384.716614 
	C249.874832,382.177826 278.098877,371.341766 303.774139,354.111816 
	C305.013367,353.280243 306.213837,352.385010 307.490967,351.616882 
	C312.082733,348.855347 316.745575,349.286072 319.111542,352.643402 
	C321.596008,356.168854 320.213165,361.665466 315.908447,364.712189 
	C312.394775,367.199066 308.845886,369.663849 305.143097,371.851440 
	C281.053406,386.083984 255.360458,395.775269 227.427658,399.076813 
	C226.362595,399.202698 225.364594,399.895874 224.667664,400.662354 
	C211.645767,401.000000 198.291550,401.000000 184.382446,400.697235 
	C183.551712,400.596313 183.275848,400.798157 183.000000,401.000000 
	C181.285645,401.000000 179.571289,401.000000 177.788528,400.674805 
	C173.086533,399.480530 168.428040,398.725952 163.823120,397.725006 
	C100.619316,383.986633 53.112206,349.167023 22.766891,291.814148 
	C12.259832,271.955719 5.484361,250.716049 2.906628,228.260132 
	C2.813004,227.444550 1.659535,226.750626 1.000000,226.000000 
	C1.000000,209.645767 1.000000,193.291550 1.313622,176.840973 
	C2.072499,175.919937 2.831668,175.126114 2.916320,174.265915 
	C4.385988,159.331818 8.346866,145.027267 13.631804,131.042038 
	C31.886574,82.735481 64.389999,46.980423 109.779137,22.935181 
	C129.760986,12.349640 151.157486,5.603907 173.727539,2.905306 
	C174.549210,2.807061 175.245361,1.658874 176.000000,1.000000 
	C192.354233,1.000000 208.708450,1.000000 225.152725,1.311710 
	C226.230713,2.075735 227.176636,2.744198 228.213333,2.945837 
	C235.848953,4.430987 243.623749,5.359727 251.130630,7.321214 
	C292.293518,18.076729 326.661469,39.768192 353.981201,72.399010 
	C378.851746,102.104446 394.191620,136.084320 399.101868,174.647812 
	C399.210205,175.498642 400.344360,176.218857 401.000000,177.000000 
	C401.000000,192.687561 401.000000,208.375122 401.000000,224.531342 
z"/>
<path fill="#353535" opacity="1.000000" stroke="none" 
	d="
M401.000000,176.531342 
	C400.344360,176.218857 399.210205,175.498642 399.101868,174.647812 
	C394.191620,136.084320 378.851746,102.104446 353.981201,72.399010 
	C326.661469,39.768192 292.293518,18.076729 251.130630,7.321214 
	C243.623749,5.359727 235.848953,4.430987 228.213333,2.945837 
	C227.176636,2.744198 226.230713,2.075735 225.621384,1.311710 
	C284.260559,1.000000 342.521088,1.000000 401.000000,1.000000 
	C401.000000,59.354046 401.000000,117.708366 401.000000,176.531342 
z"/>
<path fill="#353535" opacity="1.000000" stroke="none" 
	d="
M1.000000,226.468658 
	C1.659535,226.750626 2.813004,227.444550 2.906628,228.260132 
	C5.484361,250.716049 12.259832,271.955719 22.766891,291.814148 
	C53.112206,349.167023 100.619316,383.986633 163.823120,397.725006 
	C168.428040,398.725952 173.086533,399.480530 177.360062,400.674805 
	C118.406525,401.000000 59.813042,401.000000 1.000000,401.000000 
	C1.000000,342.979279 1.000000,284.958313 1.000000,226.468658 
z"/>
<path fill="#353535" opacity="1.000000" stroke="none" 
	d="
M175.531342,1.000000 
	C175.245361,1.658874 174.549210,2.807061 173.727539,2.905306 
	C151.157486,5.603907 129.760986,12.349640 109.779137,22.935181 
	C64.389999,46.980423 31.886574,82.735481 13.631804,131.042038 
	C8.346866,145.027267 4.385988,159.331818 2.916320,174.265915 
	C2.831668,175.126114 2.072499,175.919937 1.313622,176.372314 
	C1.000000,117.739647 1.000000,59.479294 1.000000,1.000000 
	C59.020710,1.000000 117.041695,1.000000 175.531342,1.000000 
z"/>
<path fill="#353535" opacity="1.000000" stroke="none" 
	d="
M183.250000,401.000000 
	C183.275848,400.798157 183.551712,400.596313 183.913788,400.697235 
	C184.000000,401.000000 183.500000,401.000000 183.250000,401.000000 
z"/>
<path fill="#F9FAFA" opacity="1.000000" stroke="none" 
	d="
M217.494965,129.495026 
	C230.062698,117.059502 242.343903,104.836723 254.714600,92.705185 
	C259.651947,87.863289 261.594788,87.639099 266.471954,92.411217 
	C280.875702,106.504730 295.148560,120.736076 309.260223,135.121872 
	C314.403320,140.364883 314.176636,142.325104 308.947693,147.638351 
	C292.704071,164.143890 276.383728,180.573868 260.098969,197.038940 
	C258.938110,198.212631 257.824371,199.432907 256.412231,200.923325 
	C257.576324,202.206940 258.613129,203.440247 259.742523,204.582016 
	C275.910980,220.927994 292.114319,237.239578 308.258545,253.609436 
	C314.430908,259.868011 314.607880,261.490326 308.629211,267.578064 
	C295.092468,281.361725 281.427155,295.022186 267.640381,308.555786 
	C261.503571,314.579956 259.874908,314.424072 253.681274,308.324341 
	C237.418900,292.308594 221.217773,276.230682 204.986664,260.183167 
	C203.811859,259.021637 202.591827,257.905853 201.078659,256.470886 
	C199.809921,257.622528 198.580811,258.659149 197.440216,259.785431 
	C181.080688,275.939819 164.757156,292.130737 148.370468,308.257507 
	C142.099350,314.429169 140.473816,314.589447 134.383026,308.602203 
	C120.605003,295.058441 106.939438,281.397125 93.408699,267.606445 
	C87.391060,261.473206 87.555611,259.878448 93.722885,253.624863 
	C109.516022,237.610687 125.359596,221.646088 141.229889,205.708374 
	C142.628403,204.303925 144.370270,203.241364 146.360260,201.705444 
	C144.374786,199.618164 143.176208,198.314148 141.931290,197.056015 
	C125.408302,180.357910 108.863823,163.681061 92.360962,146.963104 
	C87.956543,142.501282 87.781898,140.067551 92.262222,135.517776 
	C106.637131,120.920029 121.123833,106.430901 135.691498,92.025345 
	C139.871048,87.892303 142.642639,87.978828 146.780777,92.228401 
	C164.329926,110.250122 181.776871,128.371353 199.801147,147.014771 
	C206.479431,140.402634 211.861862,135.073502 217.494965,129.495026 
M292.570435,142.043961 
	C291.766724,140.558289 291.224335,138.830200 290.111908,137.630905 
	C286.261871,133.480301 282.252991,129.473846 278.231079,125.486679 
	C272.576385,119.880905 266.856018,114.341446 260.881531,108.497574 
	C257.770630,111.428215 254.958038,113.974686 252.259720,116.636971 
	C237.790482,130.913101 223.388184,145.257324 208.882172,159.495895 
	C202.057404,166.194809 199.951996,166.202240 193.129166,159.504089 
	C178.505432,145.147568 163.992599,130.678101 149.407379,116.282204 
	C146.829147,113.737442 144.120102,111.325211 141.201996,108.600121 
	C130.242081,119.552803 119.565681,130.222168 108.589371,141.191238 
	C111.318672,144.104553 113.738167,146.803802 116.280663,149.381760 
	C130.670746,163.972488 145.141769,178.483795 159.477264,193.127838 
	C166.240311,200.036469 166.242493,201.969223 159.496552,208.859863 
	C145.510178,223.146255 131.384842,237.296555 117.342918,251.528717 
	C114.447998,254.462830 111.667633,257.509949 108.575005,260.779297 
	C119.558220,271.758270 130.234940,282.430847 141.204285,293.395966 
	C144.000580,290.786652 146.586304,288.487396 149.045700,286.060181 
	C163.750290,271.548096 178.380585,256.960449 193.131058,242.495300 
	C199.989853,235.769165 202.002686,235.770752 208.873047,242.504822 
	C223.627136,256.966187 238.261978,271.549194 252.969467,286.058197 
	C255.430496,288.486023 258.011505,290.792236 260.179382,292.820068 
	C271.348602,281.897369 282.209991,271.275665 294.525757,259.231720 
	C280.150452,245.498947 266.023438,232.074158 251.989639,218.552612 
	C247.913788,214.625565 244.099594,210.426544 240.175003,206.343018 
	C236.849014,202.882355 236.665833,199.372314 240.034332,195.810654 
	C241.407547,194.358719 242.720337,192.848358 244.120117,191.422989 
	C260.112122,175.138611 276.115601,158.865555 292.570435,142.043961 
z"/>
<path fill="#F1F4F4" opacity="1.000000" stroke="none" 
	d="
M342.339966,342.357544 
	C336.340729,345.846069 331.707367,344.757324 329.942230,339.687164 
	C328.677338,336.053772 329.098053,332.625732 332.520203,330.445679 
	C335.791351,328.361725 339.296783,328.827423 342.121613,331.414337 
	C345.686035,334.678558 345.301483,338.403534 342.339966,342.357544 
z"/>
<path fill="#353636" opacity="1.000000" stroke="none" 
	d="
M292.343201,142.316711 
	C276.115601,158.865555 260.112122,175.138611 244.120117,191.422989 
	C242.720337,192.848358 241.407547,194.358719 240.034332,195.810654 
	C236.665833,199.372314 236.849014,202.882355 240.175003,206.343018 
	C244.099594,210.426544 247.913788,214.625565 251.989639,218.552612 
	C266.023438,232.074158 280.150452,245.498947 294.525757,259.231720 
	C282.209991,271.275665 271.348602,281.897369 260.179382,292.820068 
	C258.011505,290.792236 255.430496,288.486023 252.969467,286.058197 
	C238.261978,271.549194 223.627136,256.966187 208.873047,242.504822 
	C202.002686,235.770752 199.989853,235.769165 193.131058,242.495300 
	C178.380585,256.960449 163.750290,271.548096 149.045700,286.060181 
	C146.586304,288.487396 144.000580,290.786652 141.204285,293.395966 
	C130.234940,282.430847 119.558220,271.758270 108.575005,260.779297 
	C111.667633,257.509949 114.447998,254.462830 117.342918,251.528717 
	C131.384842,237.296555 145.510178,223.146255 159.496552,208.859863 
	C166.242493,201.969223 166.240311,200.036469 159.477264,193.127838 
	C145.141769,178.483795 130.670746,163.972488 116.280663,149.381760 
	C113.738167,146.803802 111.318672,144.104553 108.589371,141.191238 
	C119.565681,130.222168 130.242081,119.552803 141.201996,108.600121 
	C144.120102,111.325211 146.829147,113.737442 149.407379,116.282204 
	C163.992599,130.678101 178.505432,145.147568 193.129166,159.504089 
	C199.951996,166.202240 202.057404,166.194809 208.882172,159.495895 
	C223.388184,145.257324 237.790482,130.913101 252.259720,116.636971 
	C254.958038,113.974686 257.770630,111.428215 260.881531,108.497574 
	C266.856018,114.341446 272.576385,119.880905 278.231079,125.486679 
	C282.252991,129.473846 286.261871,133.480301 290.111908,137.630905 
	C291.224335,138.830200 291.766724,140.558289 292.343201,142.316711 
z"/>
</svg>