<svg version="1.1" id="Layer_1" xmlns="http://www.w3.org/2000/svg" xmlns:xlink="http://www.w3.org/1999/xlink" x="0px" y="0px"
	 width="100%" viewBox="0 0 512 512" enable-background="new 0 0 512 512" xml:space="preserve">
<path fill="#000000" opacity="1.000000" stroke="none" 
	d="
M513.000000,289.000000 
	C513.000000,363.593719 513.000000,438.187408 513.000000,513.000000 
	C438.645905,513.000000 364.291626,513.000000 289.167236,512.635010 
	C289.233917,511.847504 290.031036,511.188507 290.913788,511.040466 
	C297.304688,509.968872 303.754639,509.212555 310.107849,507.960327 
	C330.685760,503.904358 350.501984,497.278473 369.145844,487.804565 
	C381.738586,481.405548 393.541779,473.435730 405.600006,466.009277 
	C411.504120,462.373016 412.471863,457.745514 409.088379,451.566162 
	C406.367920,446.597687 401.356415,445.043182 395.693176,447.871155 
	C392.264862,449.583130 389.147949,451.923584 385.909912,454.010834 
	C366.517059,466.511627 345.838287,476.211945 323.769806,483.024445 
	C304.736389,488.899994 285.175262,491.739685 265.414764,492.867523 
	C248.991440,493.804932 232.678513,491.761475 216.425720,489.082764 
	C191.590027,484.989471 168.412811,476.438019 146.239441,464.737671 
	C129.534286,455.922821 114.202133,445.132202 100.200607,432.571533 
	C84.993042,418.928925 71.350441,403.700378 60.316635,386.496368 
	C48.419983,367.947021 38.880733,348.187958 32.362083,326.971130 
	C27.059988,309.713928 23.188028,292.124695 22.305193,274.245667 
	C21.518761,258.319000 22.426315,242.158615 24.272036,226.297546 
	C25.865372,212.605362 29.283636,199.041534 32.887379,185.688751 
	C37.294998,169.357391 44.685852,154.149368 53.133472,139.518997 
	C62.427528,123.422668 73.101517,108.307175 86.364113,95.181534 
	C92.241028,89.365303 98.302399,83.730667 104.389648,78.132790 
	C116.128708,67.337479 129.347763,58.620220 143.294464,50.994183 
	C159.832886,41.950996 177.045258,34.634941 195.367874,29.836578 
	C211.291153,25.666561 227.342300,22.704187 243.780563,22.041340 
	C250.077255,21.787439 256.396454,22.138632 262.698944,21.971058 
	C275.708160,21.625166 288.422882,23.621458 301.185455,25.897558 
	C332.725220,31.522411 361.411713,43.915020 387.986359,61.504227 
	C408.250244,74.916443 425.630310,91.458206 440.890839,110.336571 
	C458.168854,131.710785 470.980225,155.437057 480.144012,181.341293 
	C487.781555,202.931152 491.523346,225.239655 492.744873,247.873047 
	C493.469482,261.299500 492.852448,275.057373 490.682861,288.313385 
	C488.150177,303.787964 483.681000,318.998199 479.287170,334.100616 
	C475.013336,348.790558 468.066528,362.407898 460.131775,375.482666 
	C455.881195,382.486633 451.227783,389.266113 447.334320,396.459808 
	C444.756348,401.222931 447.161774,406.910034 451.881378,409.407837 
	C457.383270,412.319580 462.924103,411.282440 465.926880,406.134552 
	C474.417877,391.577759 483.411621,377.242218 490.800964,362.131805 
	C501.757568,339.726868 508.124969,315.783142 511.075714,290.970001 
	C511.161682,290.247284 512.334167,289.653778 513.000000,289.000000 
M156.500015,227.999985 
	C166.122742,237.614929 175.745483,247.229874 185.942947,257.419067 
	C184.202652,258.814514 182.797256,259.742157 181.629105,260.907654 
	C160.277252,282.210358 138.948227,303.536011 117.628334,324.870758 
	C112.267578,330.235260 112.273697,336.769257 117.640190,342.140137 
	C135.660400,360.175201 153.693802,378.197021 171.728699,396.217377 
	C177.322250,401.806427 183.696655,401.781128 189.335464,396.145599 
	C210.551147,374.942078 231.772156,353.743805 252.939362,332.491943 
	C254.201981,331.224274 255.012161,329.506012 256.868652,326.762115 
	C258.848938,329.559235 259.635773,331.081909 260.789337,332.239044 
	C281.966309,353.481354 303.186981,374.680115 324.398987,395.887512 
	C330.469818,401.957031 336.573303,401.922729 342.720093,395.777466 
	C360.396790,378.105042 378.072296,360.431458 395.744965,342.755005 
	C402.051117,336.447510 401.994995,330.477112 395.581909,324.065643 
	C374.487274,302.976349 353.412994,281.866516 332.244995,260.851105 
	C330.998291,259.613373 328.995209,259.137512 327.149536,258.209259 
	C351.302521,234.099014 373.710876,211.737732 396.109283,189.366486 
	C401.780884,183.701797 401.829590,177.340149 396.252563,171.760895 
	C378.346130,153.847427 360.431854,135.941757 342.516846,118.036858 
	C336.621674,112.145004 330.419281,112.114464 324.566162,117.962250 
	C303.228912,139.279984 281.900757,160.606750 260.560577,181.921570 
	C259.420441,183.060379 258.202057,184.120895 256.396515,185.796570 
	C255.178925,184.244614 254.276291,182.818329 253.112946,181.652145 
	C231.811813,160.298645 210.484451,138.971329 189.150208,117.650902 
	C183.817734,112.321877 177.196762,112.306084 171.880829,117.617569 
	C153.845673,135.637650 135.825180,153.672440 117.805573,171.708069 
	C112.193954,177.324692 112.204079,183.681000 117.831291,189.314972 
	C130.549271,202.048218 143.276520,214.772232 156.500015,227.999985 
M440.999969,428.829590 
	C440.447968,423.447235 436.789490,421.254242 432.050140,420.625458 
	C428.143860,420.107208 424.913116,421.466583 422.470337,424.903534 
	C419.740967,428.743652 419.792175,432.542053 421.963684,436.372345 
	C424.309631,440.510345 430.495850,442.912262 435.032196,440.816467 
	C439.421082,438.788727 441.971375,434.985199 440.999969,428.829590 
z"/>
<path fill="#FFFFFF" opacity="1.000000" stroke="none" 
	d="
M513.000000,288.531372 
	C512.334167,289.653778 511.161682,290.247284 511.075714,290.970001 
	C508.124969,315.783142 501.757568,339.726868 490.800964,362.131805 
	C483.411621,377.242218 474.417877,391.577759 465.926880,406.134552 
	C462.924103,411.282440 457.383270,412.319580 451.881378,409.407837 
	C447.161774,406.910034 444.756348,401.222931 447.334320,396.459808 
	C451.227783,389.266113 455.881195,382.486633 460.131775,375.482666 
	C468.066528,362.407898 475.013336,348.790558 479.287170,334.100616 
	C483.681000,318.998199 488.150177,303.787964 490.682861,288.313385 
	C492.852448,275.057373 493.469482,261.299500 492.744873,247.873047 
	C491.523346,225.239655 487.781555,202.931152 480.144012,181.341293 
	C470.980225,155.437057 458.168854,131.710785 440.890839,110.336571 
	C425.630310,91.458206 408.250244,74.916443 387.986359,61.504227 
	C361.411713,43.915020 332.725220,31.522411 301.185455,25.897558 
	C288.422882,23.621458 275.708160,21.625166 262.698944,21.971058 
	C256.396454,22.138632 250.077255,21.787439 243.780563,22.041340 
	C227.342300,22.704187 211.291153,25.666561 195.367874,29.836578 
	C177.045258,34.634941 159.832886,41.950996 143.294464,50.994183 
	C129.347763,58.620220 116.128708,67.337479 104.389648,78.132790 
	C98.302399,83.730667 92.241028,89.365303 86.364113,95.181534 
	C73.101517,108.307175 62.427528,123.422668 53.133472,139.518997 
	C44.685852,154.149368 37.294998,169.357391 32.887379,185.688751 
	C29.283636,199.041534 25.865372,212.605362 24.272036,226.297546 
	C22.426315,242.158615 21.518761,258.319000 22.305193,274.245667 
	C23.188028,292.124695 27.059988,309.713928 32.362083,326.971130 
	C38.880733,348.187958 48.419983,367.947021 60.316635,386.496368 
	C71.350441,403.700378 84.993042,418.928925 100.200607,432.571533 
	C114.202133,445.132202 129.534286,455.922821 146.239441,464.737671 
	C168.412811,476.438019 191.590027,484.989471 216.425720,489.082764 
	C232.678513,491.761475 248.991440,493.804932 265.414764,492.867523 
	C285.175262,491.739685 304.736389,488.899994 323.769806,483.024445 
	C345.838287,476.211945 366.517059,466.511627 385.909912,454.010834 
	C389.147949,451.923584 392.264862,449.583130 395.693176,447.871155 
	C401.356415,445.043182 406.367920,446.597687 409.088379,451.566162 
	C412.471863,457.745514 411.504120,462.373016 405.600006,466.009277 
	C393.541779,473.435730 381.738586,481.405548 369.145844,487.804565 
	C350.501984,497.278473 330.685760,503.904358 310.107849,507.960327 
	C303.754639,509.212555 297.304688,509.968872 290.913788,511.040466 
	C290.031036,511.188507 289.233917,511.847504 288.698578,512.635010 
	C267.979095,513.000000 246.958206,513.000000 225.770081,512.635010 
	C224.932877,511.852356 224.312286,511.209198 223.585678,511.050018 
	C208.649811,507.778168 193.449387,505.421082 178.817917,501.123932 
	C158.928329,495.282593 140.394730,486.212158 122.535904,475.411346 
	C94.065956,458.193024 70.587128,435.699524 50.473488,409.655518 
	C38.379742,393.996033 28.673422,376.657471 21.044542,358.297363 
	C12.181637,336.967407 5.602673,315.002197 2.923887,291.967987 
	C2.840060,291.247162 1.665873,290.653137 1.000003,290.000000 
	C1.000000,268.312439 1.000000,246.624878 1.364950,224.770081 
	C2.147651,223.932938 2.804164,223.310287 2.947613,222.586044 
	C5.392432,210.242554 6.811982,197.602707 10.357001,185.588654 
	C19.436859,154.817062 33.453991,126.469620 53.319695,100.969849 
	C68.199196,81.870399 85.129395,64.943550 104.340401,50.480141 
	C120.141068,38.584278 137.303177,28.613958 155.697662,21.043438 
	C177.050537,12.255352 198.985580,5.562997 222.032181,2.923713 
	C222.752121,2.841265 223.346878,1.665870 224.000000,1.000001 
	C245.687561,1.000000 267.375122,1.000000 289.229919,1.364962 
	C290.067200,2.147669 290.695709,2.829242 291.413666,2.942198 
	C298.302307,4.025973 305.332367,4.491198 312.082977,6.122262 
	C337.294434,12.213760 361.470490,20.953653 384.121124,33.918129 
	C410.096924,48.785839 432.391846,67.851753 451.930908,90.376556 
	C468.021149,108.925529 480.986359,129.405350 491.003754,151.810013 
	C501.184235,174.579407 508.157776,198.221664 511.075806,223.032043 
	C511.160675,223.753479 512.334106,224.346893 513.000000,225.000000 
	C513.000000,246.020889 513.000000,267.041779 513.000000,288.531372 
z"/>
<path fill="#000000" opacity="1.000000" stroke="none" 
	d="
M1.000003,290.468658 
	C1.665873,290.653137 2.840060,291.247162 2.923887,291.967987 
	C5.602673,315.002197 12.181637,336.967407 21.044542,358.297363 
	C28.673422,376.657471 38.379742,393.996033 50.473488,409.655518 
	C70.587128,435.699524 94.065956,458.193024 122.535904,475.411346 
	C140.394730,486.212158 158.928329,495.282593 178.817917,501.123932 
	C193.449387,505.421082 208.649811,507.778168 223.585678,511.050018 
	C224.312286,511.209198 224.932877,511.852356 225.301422,512.635010 
	C150.406464,513.000000 75.812927,513.000000 1.000000,513.000000 
	C1.000000,438.979248 1.000000,364.958282 1.000003,290.468658 
z"/>
<path fill="#000000" opacity="1.000000" stroke="none" 
	d="
M513.000000,224.531342 
	C512.334106,224.346893 511.160675,223.753479 511.075806,223.032043 
	C508.157776,198.221664 501.184235,174.579407 491.003754,151.810013 
	C480.986359,129.405350 468.021149,108.925529 451.930908,90.376556 
	C432.391846,67.851753 410.096924,48.785839 384.121124,33.918129 
	C361.470490,20.953653 337.294434,12.213760 312.082977,6.122262 
	C305.332367,4.491198 298.302307,4.025973 291.413666,2.942198 
	C290.695709,2.829242 290.067200,2.147669 289.698608,1.364962 
	C364.260529,1.000000 438.521088,1.000000 513.000000,1.000000 
	C513.000000,75.354088 513.000000,149.708389 513.000000,224.531342 
z"/>
<path fill="#000000" opacity="1.000000" stroke="none" 
	d="
M223.531342,1.000001 
	C223.346878,1.665870 222.752121,2.841265 222.032181,2.923713 
	C198.985580,5.562997 177.050537,12.255352 155.697662,21.043438 
	C137.303177,28.613958 120.141068,38.584278 104.340401,50.480141 
	C85.129395,64.943550 68.199196,81.870399 53.319695,100.969849 
	C33.453991,126.469620 19.436859,154.817062 10.357001,185.588654 
	C6.811982,197.602707 5.392432,210.242554 2.947613,222.586044 
	C2.804164,223.310287 2.147651,223.932938 1.364950,224.301422 
	C1.000000,149.739624 1.000000,75.479248 1.000000,1.000000 
	C75.020752,1.000000 149.041718,1.000000 223.531342,1.000001 
z"/>
<path fill="#FFFFFF" opacity="1.000000" stroke="none" 
	d="
M156.250000,227.750000 
	C143.276520,214.772232 130.549271,202.048218 117.831291,189.314972 
	C112.204079,183.681000 112.193954,177.324692 117.805573,171.708069 
	C135.825180,153.672440 153.845673,135.637650 171.880829,117.617569 
	C177.196762,112.306084 183.817734,112.321877 189.150208,117.650902 
	C210.484451,138.971329 231.811813,160.298645 253.112946,181.652145 
	C254.276291,182.818329 255.178925,184.244614 256.396515,185.796570 
	C258.202057,184.120895 259.420441,183.060379 260.560577,181.921570 
	C281.900757,160.606750 303.228912,139.279984 324.566162,117.962250 
	C330.419281,112.114464 336.621674,112.145004 342.516846,118.036858 
	C360.431854,135.941757 378.346130,153.847427 396.252563,171.760895 
	C401.829590,177.340149 401.780884,183.701797 396.109283,189.366486 
	C373.710876,211.737732 351.302521,234.099014 327.149536,258.209259 
	C328.995209,259.137512 330.998291,259.613373 332.244995,260.851105 
	C353.412994,281.866516 374.487274,302.976349 395.581909,324.065643 
	C401.994995,330.477112 402.051117,336.447510 395.744965,342.755005 
	C378.072296,360.431458 360.396790,378.105042 342.720093,395.777466 
	C336.573303,401.922729 330.469818,401.957031 324.398987,395.887512 
	C303.186981,374.680115 281.966309,353.481354 260.789337,332.239044 
	C259.635773,331.081909 258.848938,329.559235 256.868652,326.762115 
	C255.012161,329.506012 254.201981,331.224274 252.939362,332.491943 
	C231.772156,353.743805 210.551147,374.942078 189.335464,396.145599 
	C183.696655,401.781128 177.322250,401.806427 171.728699,396.217377 
	C153.693802,378.197021 135.660400,360.175201 117.640190,342.140137 
	C112.273697,336.769257 112.267578,330.235260 117.628334,324.870758 
	C138.948227,303.536011 160.277252,282.210358 181.629105,260.907654 
	C182.797256,259.742157 184.202652,258.814514 185.942947,257.419067 
	C175.745483,247.229874 166.122742,237.614929 156.250000,227.750000 
M369.997040,338.504456 
	C371.680511,336.887177 373.363953,335.269897 375.143066,333.560730 
	C352.376648,310.818420 329.749329,288.216919 307.124512,265.612885 
	C301.473328,259.966888 301.505402,253.996597 307.218262,248.283783 
	C329.801849,225.700333 352.388123,203.119568 374.870117,180.641068 
	C360.951172,166.704987 347.188904,152.925766 333.366394,139.086182 
	C311.139801,161.325867 288.882111,183.599319 266.621033,205.869415 
	C259.713562,212.779694 254.290985,212.784241 247.390671,205.879791 
	C225.131760,183.607529 202.877472,161.330658 181.054291,139.488831 
	C167.160995,153.359665 153.336914,167.161407 139.509979,180.965988 
	C161.668442,203.134995 184.053833,225.516327 206.419785,247.917068 
	C212.579559,254.086426 212.548111,259.894257 206.404877,266.103851 
	C205.350571,267.169525 204.280746,268.219818 203.220657,269.279785 
	C181.822647,290.675110 160.425003,312.070831 139.193253,333.300537 
	C153.124252,347.259308 166.872208,361.034698 180.680405,374.870453 
	C202.890488,352.646423 225.148712,330.373383 247.408035,308.101410 
	C254.326843,301.178680 259.651825,301.168549 266.567719,308.081116 
	C287.660767,329.163940 308.750671,350.249847 329.834839,371.341553 
	C331.054565,372.561707 332.212646,373.843536 333.409729,375.107544 
	C345.705780,362.805237 357.601318,350.903717 369.997040,338.504456 
z"/>
<path fill="#FFFFFF" opacity="1.000000" stroke="none" 
	d="
M441.000000,429.259613 
	C441.971375,434.985199 439.421082,438.788727 435.032196,440.816467 
	C430.495850,442.912262 424.309631,440.510345 421.963684,436.372345 
	C419.792175,432.542053 419.740967,428.743652 422.470337,424.903534 
	C424.913116,421.466583 428.143860,420.107208 432.050140,420.625458 
	C436.789490,421.254242 440.447968,423.447235 441.000000,429.259613 
z"/>
<path fill="#000000" opacity="1.000000" stroke="none" 
	d="
M369.746948,338.753357 
	C357.601318,350.903717 345.705780,362.805237 333.409729,375.107544 
	C332.212646,373.843536 331.054565,372.561707 329.834839,371.341553 
	C308.750671,350.249847 287.660767,329.163940 266.567719,308.081116 
	C259.651825,301.168549 254.326843,301.178680 247.408035,308.101410 
	C225.148712,330.373383 202.890488,352.646423 180.680405,374.870453 
	C166.872208,361.034698 153.124252,347.259308 139.193253,333.300537 
	C160.425003,312.070831 181.822647,290.675110 203.220657,269.279785 
	C204.280746,268.219818 205.350571,267.169525 206.404877,266.103851 
	C212.548111,259.894257 212.579559,254.086426 206.419785,247.917068 
	C184.053833,225.516327 161.668442,203.134995 139.509979,180.965988 
	C153.336914,167.161407 167.160995,153.359665 181.054291,139.488831 
	C202.877472,161.330658 225.131760,183.607529 247.390671,205.879791 
	C254.290985,212.784241 259.713562,212.779694 266.621033,205.869415 
	C288.882111,183.599319 311.139801,161.325867 333.366394,139.086182 
	C347.188904,152.925766 360.951172,166.704987 374.870117,180.641068 
	C352.388123,203.119568 329.801849,225.700333 307.218262,248.283783 
	C301.505402,253.996597 301.473328,259.966888 307.124512,265.612885 
	C329.749329,288.216919 352.376648,310.818420 375.143066,333.560730 
	C373.363953,335.269897 371.680511,336.887177 369.746948,338.753357 
z"/>
</svg>