<svg version="1.1" id="Layer_1" xmlns="http://www.w3.org/2000/svg" xmlns:xlink="http://www.w3.org/1999/xlink" x="0px" y="0px"
	 width="100%" viewBox="0 0 512 512" enable-background="new 0 0 512 512" xml:space="preserve">
<path fill="#000000" opacity="1.000000" stroke="none" 
	d="
M0.999992,455.000000 
	C1.000000,360.645782 1.000000,266.291534 1.302482,171.179245 
	C12.155888,191.830307 31.947985,189.542267 51.000000,188.813477 
	C51.000000,202.758286 51.073696,215.904297 50.960545,229.048706 
	C50.920246,233.729874 52.676502,237.537125 56.567356,239.728867 
	C61.108910,242.287155 65.608574,240.809296 69.623405,237.858917 
	C89.051971,223.581482 108.430084,209.234741 127.937057,195.065353 
	C131.246399,192.661530 135.062927,189.342911 138.703262,189.267899 
	C163.517410,188.756622 188.347244,188.968323 213.171326,189.091080 
	C214.455994,189.097427 216.191940,190.104813 216.946274,191.184952 
	C227.383148,206.129639 237.514771,221.289932 248.092789,236.132553 
	C253.219193,243.325714 261.491089,242.419495 265.837708,236.361359 
	C276.268066,221.823959 286.306274,206.999023 296.204803,192.092300 
	C297.851044,189.613159 299.391571,188.946991 302.071960,188.956650 
	C323.564178,189.034180 345.064453,189.328201 366.545258,188.826935 
	C374.356567,188.644669 380.932861,190.180389 386.784729,195.281189 
	C389.217926,197.402100 391.920868,199.216980 394.528656,201.133575 
	C410.957977,213.208206 427.473663,225.167664 443.776398,237.410721 
	C448.057648,240.625854 452.408508,242.408066 457.182465,239.803696 
	C461.476349,237.461258 463.091980,233.212601 463.042725,228.211945 
	C462.915253,215.266052 463.000000,202.318054 463.000000,189.000000 
	C469.700684,189.000000 475.990936,188.940643 482.279724,189.012436 
	C495.133545,189.159180 504.740692,183.802948 510.928101,172.428558 
	C511.285675,171.771210 512.294312,171.468002 513.000000,171.000000 
	C513.000000,265.354218 513.000000,359.708466 512.673950,454.825806 
	C511.912354,455.118225 511.240479,454.718201 511.075714,454.166656 
	C505.933075,436.952820 495.220947,424.460907 479.181183,416.490845 
	C493.470734,390.691223 487.013214,361.027161 464.318695,344.101257 
	C444.574768,329.376038 418.591125,328.081604 396.126099,345.751282 
	C377.150360,360.676392 368.747345,387.617371 382.796112,415.917603 
	C376.978210,420.290375 371.217499,424.620148 365.458099,428.948914 
	C356.690918,406.348450 341.051086,390.406616 318.800293,380.961426 
	C341.385071,346.914673 332.996674,304.653839 304.713562,281.338165 
	C277.922852,259.252747 239.296844,257.513092 209.914612,280.801453 
	C193.104523,294.125061 183.971878,312.338470 182.254654,333.691040 
	C180.889511,350.665649 185.641571,366.442993 195.024796,381.156799 
	C172.368759,390.578583 157.132874,406.844086 148.546219,428.798645 
	C142.330490,424.369812 136.454956,420.183380 130.552994,415.978119 
	C142.536041,397.063965 140.320206,369.739380 124.007660,351.664368 
	C104.643578,330.208160 74.865189,328.013916 52.846329,341.793457 
	C40.296646,349.647125 32.456348,361.148590 28.908340,375.724243 
	C25.371084,390.255676 27.947607,403.711121 34.725754,416.551971 
	C19.403307,424.089386 9.154209,435.798248 3.615136,451.728516 
	C3.182839,452.971771 1.891865,453.916504 0.999992,455.000000 
z"/>
<path fill="#FFFFFF" opacity="1.000000" stroke="none" 
	d="
M0.999992,455.468658 
	C1.891865,453.916504 3.182839,452.971771 3.615136,451.728516 
	C9.154209,435.798248 19.403307,424.089386 34.725754,416.551971 
	C27.947607,403.711121 25.371084,390.255676 28.908340,375.724243 
	C32.456348,361.148590 40.296646,349.647125 52.846329,341.793457 
	C74.865189,328.013916 104.643578,330.208160 124.007660,351.664368 
	C140.320206,369.739380 142.536041,397.063965 130.552994,415.978119 
	C136.454956,420.183380 142.330490,424.369812 148.546219,428.798645 
	C157.132874,406.844086 172.368759,390.578583 195.024796,381.156799 
	C185.641571,366.442993 180.889511,350.665649 182.254654,333.691040 
	C183.971878,312.338470 193.104523,294.125061 209.914612,280.801453 
	C239.296844,257.513092 277.922852,259.252747 304.713562,281.338165 
	C332.996674,304.653839 341.385071,346.914673 318.800293,380.961426 
	C341.051086,390.406616 356.690918,406.348450 365.458099,428.948914 
	C371.217499,424.620148 376.978210,420.290375 382.796112,415.917603 
	C368.747345,387.617371 377.150360,360.676392 396.126099,345.751282 
	C418.591125,328.081604 444.574768,329.376038 464.318695,344.101257 
	C487.013214,361.027161 493.470734,390.691223 479.181183,416.490845 
	C495.220947,424.460907 505.933075,436.952820 511.075714,454.166656 
	C511.240479,454.718201 511.912354,455.118225 512.673950,455.294434 
	C513.000000,474.302521 513.000000,493.605072 513.000000,513.000000 
	C440.979126,513.000000 368.958221,513.000000 296.758240,512.688721 
	C291.714203,508.534363 290.312012,504.249481 291.992676,499.114929 
	C293.859772,493.410889 298.213562,492.883942 303.326904,492.940399 
	C318.431824,493.107178 333.539825,493.000000 349.000000,493.000000 
	C349.000000,481.614471 349.151031,470.658142 348.936859,459.708954 
	C348.828308,454.159790 348.788666,448.441681 347.458405,443.114471 
	C342.921631,424.946594 331.945526,411.632751 315.414581,402.858734 
	C308.444275,399.159119 301.559479,396.043793 294.934204,403.515808 
	C294.329926,404.197296 293.271698,404.493134 292.399902,404.917999 
	C278.947601,411.474243 265.012787,414.621460 249.823578,413.168549 
	C235.334305,411.782593 222.781357,406.447815 211.015045,398.116180 
	C210.176132,398.372040 209.107056,398.671906 208.055038,399.022858 
	C191.203949,404.644073 178.717545,415.128021 170.872147,431.297028 
	C166.953629,439.372894 164.933594,447.634247 164.983215,456.535248 
	C165.050613,468.624329 165.000000,480.714050 165.000000,493.000000 
	C181.057281,493.000000 196.527893,492.997742 211.998520,493.001007 
	C219.628372,493.002594 223.942871,498.370453 221.899963,505.834656 
	C221.201218,508.387665 219.333572,510.620728 218.000000,513.000000 
	C145.781891,513.000000 73.563797,513.000000 1.000000,513.000000 
	C1.000000,493.980499 1.000000,474.958923 0.999992,455.468658 
M209.974792,313.539307 
	C203.537582,324.654327 201.748611,336.728424 204.163193,349.091766 
	C206.977295,363.500793 214.918274,375.176392 227.042358,383.354614 
	C237.825394,390.628296 249.772598,394.003662 263.206635,392.161469 
	C274.880310,390.560669 284.911377,386.093384 293.270966,378.119843 
	C306.026215,365.953613 312.002228,351.195801 310.119843,333.244537 
	C308.905579,321.665070 304.481750,311.725739 296.766693,303.414886 
	C284.119934,289.791473 268.603424,283.192596 249.703033,285.984711 
	C232.185867,288.572479 219.247482,297.714661 209.974792,313.539307 
M393.500000,493.000000 
	C426.259857,493.000000 459.019745,493.000000 492.000000,493.000000 
	C492.000000,484.954956 491.968384,477.478149 492.006531,470.001648 
	C492.088470,453.952362 483.817047,443.197723 470.298279,435.830078 
	C466.967743,434.014984 463.945831,433.387604 460.010162,435.825287 
	C451.246307,441.253571 441.418732,444.021698 431.003967,443.972168 
	C419.921326,443.919464 409.841278,440.374969 400.338745,434.840607 
	C399.075195,434.104736 396.947601,433.583221 395.785614,434.140808 
	C385.421082,439.114014 377.146454,445.978058 372.820526,457.315277 
	C368.338806,469.060913 370.829193,480.937744 369.904083,493.000000 
	C377.879669,493.000000 385.189850,493.000000 393.500000,493.000000 
M67.807869,441.971619 
	C63.255699,439.985596 58.307171,438.583099 54.269058,435.840271 
	C50.635330,433.372101 47.178200,433.492462 44.354195,435.433533 
	C38.922436,439.166992 33.296337,443.112732 29.151703,448.128113 
	C18.081736,461.523682 22.959818,477.671326 22.008953,492.703094 
	C63.058182,492.703094 103.430428,492.703094 144.000000,492.703094 
	C144.000000,486.433716 143.912277,480.458374 144.017746,474.486450 
	C144.258881,460.832367 139.525772,449.477264 129.063446,440.478088 
	C122.157036,434.537537 116.501999,432.972534 111.042259,435.975220 
	C108.114029,437.585693 105.169044,439.258759 102.049950,440.412384 
	C91.118828,444.455322 79.966141,445.187988 67.807869,441.971619 
M95.357727,356.997742 
	C84.998047,352.476501 74.795570,353.199707 65.450363,359.214630 
	C53.012371,367.220215 46.793812,378.509247 48.923435,393.817780 
	C50.001217,401.565216 53.398842,408.263062 58.931610,413.113159 
	C67.374092,420.513885 77.187714,424.669098 89.147484,422.108948 
	C105.359604,418.638519 116.104378,405.743164 116.813889,390.338898 
	C117.519615,375.016693 109.918274,363.873199 95.357727,356.997742 
M419.450012,356.950714 
	C405.364563,360.287842 394.065643,379.806213 397.789032,395.550476 
	C402.120667,413.866608 420.949127,426.085480 438.365265,422.069489 
	C459.580627,417.177460 472.370148,393.284637 461.747131,373.180511 
	C455.303680,360.986298 438.949005,349.379181 419.450012,356.950714 
z"/>
<path fill="#FFFFFF" opacity="1.000000" stroke="none" 
	d="
M513.000000,170.531342 
	C512.294312,171.468002 511.285675,171.771210 510.928101,172.428558 
	C504.740692,183.802948 495.133545,189.159180 482.279724,189.012436 
	C475.990936,188.940643 469.700684,189.000000 463.000000,189.000000 
	C463.000000,202.318054 462.915253,215.266052 463.042725,228.211945 
	C463.091980,233.212601 461.476349,237.461258 457.182465,239.803696 
	C452.408508,242.408066 448.057648,240.625854 443.776398,237.410721 
	C427.473663,225.167664 410.957977,213.208206 394.528656,201.133575 
	C391.920868,199.216980 389.217926,197.402100 386.784729,195.281189 
	C380.932861,190.180389 374.356567,188.644669 366.545258,188.826935 
	C345.064453,189.328201 323.564178,189.034180 302.071960,188.956650 
	C299.391571,188.946991 297.851044,189.613159 296.204803,192.092300 
	C286.306274,206.999023 276.268066,221.823959 265.837708,236.361359 
	C261.491089,242.419495 253.219193,243.325714 248.092789,236.132553 
	C237.514771,221.289932 227.383148,206.129639 216.946274,191.184952 
	C216.191940,190.104813 214.455994,189.097427 213.171326,189.091080 
	C188.347244,188.968323 163.517410,188.756622 138.703262,189.267899 
	C135.062927,189.342911 131.246399,192.661530 127.937057,195.065353 
	C108.430084,209.234741 89.051971,223.581482 69.623405,237.858917 
	C65.608574,240.809296 61.108910,242.287155 56.567356,239.728867 
	C52.676502,237.537125 50.920246,233.729874 50.960545,229.048706 
	C51.073696,215.904297 51.000000,202.758286 51.000000,188.813477 
	C31.947985,189.542267 12.155888,191.830307 1.302482,170.710587 
	C1.000000,120.645775 1.000000,70.291542 1.305125,19.758427 
	C2.059883,19.131165 2.712252,18.763729 2.928454,18.222164 
	C5.749494,11.155759 10.834662,6.334064 17.584377,3.054034 
	C18.235266,2.737735 18.536469,1.701846 19.000000,1.000000 
	C177.354233,1.000000 335.708466,1.000000 494.241577,1.305117 
	C494.868835,2.059870 495.236267,2.712252 495.777832,2.928445 
	C502.844238,5.749498 507.665985,10.834641 510.946014,17.584372 
	C511.262329,18.235254 512.298157,18.536476 513.000000,19.000002 
	C513.000000,69.354225 513.000000,119.708458 513.000000,170.531342 
M22.000000,147.494995 
	C22.000000,151.327591 21.981161,155.160294 22.004295,158.992752 
	C22.041552,165.164078 24.814262,167.974854 30.953190,167.992462 
	C40.783421,168.020660 50.613800,167.992569 60.444103,168.002441 
	C67.795341,168.009827 71.989906,172.200943 71.997513,179.546814 
	C72.007599,189.293869 72.000000,199.040970 72.000000,208.593735 
	C72.672981,208.837296 72.898178,208.989761 72.972298,208.935577 
	C88.637733,197.483322 104.417526,186.181442 119.880997,174.462204 
	C125.416595,170.266983 130.776169,167.707016 138.084473,167.826385 
	C164.902405,168.264404 191.733948,168.182251 218.555359,167.867920 
	C225.013855,167.792221 228.814545,170.438354 232.190292,175.478714 
	C240.229630,187.482376 248.625687,199.247116 257.088531,211.411469 
	C265.546783,198.998703 273.794861,186.923508 282.008759,174.825119 
	C285.091095,170.285080 288.811127,167.809509 294.807373,167.870468 
	C323.295685,168.160156 351.789429,167.900375 380.278625,168.140747 
	C383.427887,168.167297 387.029602,169.476562 389.622101,171.316971 
	C402.552795,180.496613 415.204865,190.068192 427.980164,199.467590 
	C432.439697,202.748672 436.971375,205.931671 442.000000,209.539658 
	C442.000000,199.157043 441.998474,189.670441 442.000458,180.183853 
	C442.002167,171.860031 445.935883,168.001297 454.418396,168.000259 
	C463.915466,167.999100 473.412598,168.016403 482.909637,167.994171 
	C489.123688,167.979614 491.989014,165.211639 491.991333,159.129959 
	C492.007690,115.976547 491.951874,72.822998 492.078644,29.669962 
	C492.090576,25.604889 489.817993,23.447081 486.877319,22.162838 
	C484.460083,21.107201 481.480713,21.043228 478.750366,21.042345 
	C330.962433,20.994537 183.174500,20.999998 35.386578,21.000025 
	C34.386887,21.000027 33.368702,20.875748 32.390491,21.020817 
	C25.886497,21.985378 21.770992,24.013098 21.844202,32.033447 
	C22.192450,70.185211 22.000000,108.341911 22.000000,147.494995 
z"/>
<path fill="#000000" opacity="1.000000" stroke="none" 
	d="
M218.468658,513.000000 
	C219.333572,510.620728 221.201218,508.387665 221.899963,505.834656 
	C223.942871,498.370453 219.628372,493.002594 211.998520,493.001007 
	C196.527893,492.997742 181.057281,493.000000 165.000000,493.000000 
	C165.000000,480.714050 165.050613,468.624329 164.983215,456.535248 
	C164.933594,447.634247 166.953629,439.372894 170.872147,431.297028 
	C178.717545,415.128021 191.203949,404.644073 208.055038,399.022858 
	C209.107056,398.671906 210.176132,398.372040 211.015045,398.116180 
	C222.781357,406.447815 235.334305,411.782593 249.823578,413.168549 
	C265.012787,414.621460 278.947601,411.474243 292.399902,404.917999 
	C293.271698,404.493134 294.329926,404.197296 294.934204,403.515808 
	C301.559479,396.043793 308.444275,399.159119 315.414581,402.858734 
	C331.945526,411.632751 342.921631,424.946594 347.458405,443.114471 
	C348.788666,448.441681 348.828308,454.159790 348.936859,459.708954 
	C349.151031,470.658142 349.000000,481.614471 349.000000,493.000000 
	C333.539825,493.000000 318.431824,493.107178 303.326904,492.940399 
	C298.213562,492.883942 293.859772,493.410889 291.992676,499.114929 
	C290.312012,504.249481 291.714203,508.534363 296.289581,512.688721 
	C285.312439,513.000000 274.624878,513.000000 263.178497,512.682007 
	C266.630615,509.664764 267.431244,505.669647 267.045990,501.012238 
	C266.651062,496.238617 263.041626,493.019897 257.568695,492.999969 
	C250.955460,492.975830 247.636597,495.805450 246.887161,500.861145 
	C246.150223,505.832520 248.771851,509.254547 251.000000,513.000000 
	C240.312439,513.000000 229.624878,513.000000 218.468658,513.000000 
z"/>
<path fill="#FFFFFF" opacity="1.000000" stroke="none" 
	d="
M251.460632,513.000000 
	C248.771851,509.254547 246.150223,505.832520 246.887161,500.861145 
	C247.636597,495.805450 250.955460,492.975830 257.568695,492.999969 
	C263.041626,493.019897 266.651062,496.238617 267.045990,501.012238 
	C267.431244,505.669647 266.630615,509.664764 262.709839,512.682007 
	C259.307098,513.000000 255.614182,513.000000 251.460632,513.000000 
z"/>
<path fill="#000000" opacity="1.000000" stroke="none" 
	d="
M513.000000,18.530293 
	C512.298157,18.536476 511.262329,18.235254 510.946014,17.584372 
	C507.665985,10.834641 502.844238,5.749498 495.777832,2.928445 
	C495.236267,2.712252 494.868835,2.059870 494.710205,1.305117 
	C500.925751,1.000000 506.851471,1.000000 513.000000,1.000000 
	C513.000000,6.684937 513.000000,12.372761 513.000000,18.530293 
z"/>
<path fill="#000000" opacity="1.000000" stroke="none" 
	d="
M18.530293,1.000000 
	C18.536469,1.701846 18.235266,2.737735 17.584377,3.054034 
	C10.834662,6.334064 5.749494,11.155759 2.928454,18.222164 
	C2.712252,18.763729 2.059883,19.131165 1.305125,19.289768 
	C1.000000,13.074268 1.000000,7.148537 1.000000,1.000000 
	C6.684937,1.000000 12.372760,1.000000 18.530293,1.000000 
z"/>
<path fill="#000000" opacity="1.000000" stroke="none" 
	d="
M210.239807,313.265625 
	C219.247482,297.714661 232.185867,288.572479 249.703033,285.984711 
	C268.603424,283.192596 284.119934,289.791473 296.766693,303.414886 
	C304.481750,311.725739 308.905579,321.665070 310.119843,333.244537 
	C312.002228,351.195801 306.026215,365.953613 293.270966,378.119843 
	C284.911377,386.093384 274.880310,390.560669 263.206635,392.161469 
	C249.772598,394.003662 237.825394,390.628296 227.042358,383.354614 
	C214.918274,375.176392 206.977295,363.500793 204.163193,349.091766 
	C201.748611,336.728424 203.537582,324.654327 210.239807,313.265625 
z"/>
<path fill="#000000" opacity="1.000000" stroke="none" 
	d="
M393.000000,493.000000 
	C385.189850,493.000000 377.879669,493.000000 369.904083,493.000000 
	C370.829193,480.937744 368.338806,469.060913 372.820526,457.315277 
	C377.146454,445.978058 385.421082,439.114014 395.785614,434.140808 
	C396.947601,433.583221 399.075195,434.104736 400.338745,434.840607 
	C409.841278,440.374969 419.921326,443.919464 431.003967,443.972168 
	C441.418732,444.021698 451.246307,441.253571 460.010162,435.825287 
	C463.945831,433.387604 466.967743,434.014984 470.298279,435.830078 
	C483.817047,443.197723 492.088470,453.952362 492.006531,470.001648 
	C491.968384,477.478149 492.000000,484.954956 492.000000,493.000000 
	C459.019745,493.000000 426.259857,493.000000 393.000000,493.000000 
z"/>
<path fill="#000000" opacity="1.000000" stroke="none" 
	d="
M68.233551,441.987091 
	C79.966141,445.187988 91.118828,444.455322 102.049950,440.412384 
	C105.169044,439.258759 108.114029,437.585693 111.042259,435.975220 
	C116.501999,432.972534 122.157036,434.537537 129.063446,440.478088 
	C139.525772,449.477264 144.258881,460.832367 144.017746,474.486450 
	C143.912277,480.458374 144.000000,486.433716 144.000000,492.703094 
	C103.430428,492.703094 63.058182,492.703094 22.008953,492.703094 
	C22.959818,477.671326 18.081736,461.523682 29.151703,448.128113 
	C33.296337,443.112732 38.922436,439.166992 44.354195,435.433533 
	C47.178200,433.492462 50.635330,433.372101 54.269058,435.840271 
	C58.307171,438.583099 63.255699,439.985596 68.233551,441.987091 
z"/>
<path fill="#000000" opacity="1.000000" stroke="none" 
	d="
M95.759926,357.010803 
	C109.918274,363.873199 117.519615,375.016693 116.813889,390.338898 
	C116.104378,405.743164 105.359604,418.638519 89.147484,422.108948 
	C77.187714,424.669098 67.374092,420.513885 58.931610,413.113159 
	C53.398842,408.263062 50.001217,401.565216 48.923435,393.817780 
	C46.793812,378.509247 53.012371,367.220215 65.450363,359.214630 
	C74.795570,353.199707 84.998047,352.476501 95.759926,357.010803 
z"/>
<path fill="#000000" opacity="1.000000" stroke="none" 
	d="
M419.760406,356.680939 
	C438.949005,349.379181 455.303680,360.986298 461.747131,373.180511 
	C472.370148,393.284637 459.580627,417.177460 438.365265,422.069489 
	C420.949127,426.085480 402.120667,413.866608 397.789032,395.550476 
	C394.065643,379.806213 405.364563,360.287842 419.760406,356.680939 
z"/>
<path fill="#000000" opacity="1.000000" stroke="none" 
	d="
M22.000000,146.995926 
	C22.000000,108.341911 22.192450,70.185211 21.844202,32.033447 
	C21.770992,24.013098 25.886497,21.985378 32.390491,21.020817 
	C33.368702,20.875748 34.386887,21.000027 35.386578,21.000025 
	C183.174500,20.999998 330.962433,20.994537 478.750366,21.042345 
	C481.480713,21.043228 484.460083,21.107201 486.877319,22.162838 
	C489.817993,23.447081 492.090576,25.604889 492.078644,29.669962 
	C491.951874,72.822998 492.007690,115.976547 491.991333,159.129959 
	C491.989014,165.211639 489.123688,167.979614 482.909637,167.994171 
	C473.412598,168.016403 463.915466,167.999100 454.418396,168.000259 
	C445.935883,168.001297 442.002167,171.860031 442.000458,180.183853 
	C441.998474,189.670441 442.000000,199.157043 442.000000,209.539658 
	C436.971375,205.931671 432.439697,202.748672 427.980164,199.467590 
	C415.204865,190.068192 402.552795,180.496613 389.622101,171.316971 
	C387.029602,169.476562 383.427887,168.167297 380.278625,168.140747 
	C351.789429,167.900375 323.295685,168.160156 294.807373,167.870468 
	C288.811127,167.809509 285.091095,170.285080 282.008759,174.825119 
	C273.794861,186.923508 265.546783,198.998703 257.088531,211.411469 
	C248.625687,199.247116 240.229630,187.482376 232.190292,175.478714 
	C228.814545,170.438354 225.013855,167.792221 218.555359,167.867920 
	C191.733948,168.182251 164.902405,168.264404 138.084473,167.826385 
	C130.776169,167.707016 125.416595,170.266983 119.880997,174.462204 
	C104.417526,186.181442 88.637733,197.483322 72.972298,208.935577 
	C72.898178,208.989761 72.672981,208.837296 72.000000,208.593735 
	C72.000000,199.040970 72.007599,189.293869 71.997513,179.546814 
	C71.989906,172.200943 67.795341,168.009827 60.444103,168.002441 
	C50.613800,167.992569 40.783421,168.020660 30.953190,167.992462 
	C24.814262,167.974854 22.041552,165.164078 22.004295,158.992752 
	C21.981161,155.160294 22.000000,151.327591 22.000000,146.995926 
M275.500000,77.000000 
	C333.963776,77.000000 392.427521,77.002388 450.891296,76.995613 
	C455.774261,76.995049 459.975830,74.073151 460.946716,70.075951 
	C462.158295,65.087799 460.192902,59.499645 455.943481,57.589325 
	C453.524750,56.501980 450.621216,56.064682 447.935303,56.062286 
	C362.987976,55.986427 278.040619,55.999996 193.093246,56.000000 
	C192.427002,56.000000 191.760117,55.981163 191.094589,56.002983 
	C184.788483,56.209732 179.992523,60.757481 179.999985,66.515663 
	C180.009201,73.628532 183.556931,76.998650 191.051697,76.999199 
	C218.867798,77.001228 246.683899,77.000000 275.500000,77.000000 
M248.500000,112.000000 
	C187.337555,112.000000 126.175102,111.999153 65.012650,112.001015 
	C56.773312,112.001259 52.986259,115.358276 53.000000,122.628586 
	C53.013760,129.907288 56.490883,132.999878 64.663620,132.999893 
	C148.324509,133.000061 231.985382,133.000000 315.646271,133.000000 
	C318.479401,133.000000 321.478882,133.585754 324.100677,132.841339 
	C326.935760,132.036392 330.044800,130.539429 331.938354,128.382248 
	C337.893280,121.598274 331.288269,111.811165 321.994049,111.911949 
	C297.831879,112.173973 273.665009,112.000000 248.500000,112.000000 
M453.688080,112.177193 
	C428.073669,112.118164 402.459198,112.000565 376.844940,112.041702 
	C370.517303,112.051865 365.913116,116.850807 366.000061,122.744270 
	C366.091064,128.912384 370.390076,132.985657 376.952942,132.991455 
	C401.241821,133.012924 425.530701,133.000549 449.819580,132.999603 
	C455.903839,132.999359 460.164612,130.201813 460.990387,125.671410 
	C462.216278,118.945808 460.474854,115.611633 453.688080,112.177193 
M54.369339,61.085152 
	C50.368790,68.314354 54.458691,76.937469 62.090984,76.964935 
	C87.724304,77.057144 113.358704,77.069855 138.990845,76.873161 
	C141.144775,76.856636 143.990250,75.602951 145.281006,73.956863 
	C147.772888,70.779037 149.331284,66.971741 147.201889,62.673042 
	C145.033295,58.295185 141.630203,56.017220 136.790070,56.011978 
	C112.654518,55.985840 88.516434,55.835613 64.386337,56.199341 
	C61.219856,56.247066 58.094151,58.999958 54.369339,61.085152 
z"/>
<path fill="#FFFFFF" opacity="1.000000" stroke="none" 
	d="
M275.000000,77.000000 
	C246.683899,77.000000 218.867798,77.001228 191.051697,76.999199 
	C183.556931,76.998650 180.009201,73.628532 179.999985,66.515663 
	C179.992523,60.757481 184.788483,56.209732 191.094589,56.002983 
	C191.760117,55.981163 192.427002,56.000000 193.093246,56.000000 
	C278.040619,55.999996 362.987976,55.986427 447.935303,56.062286 
	C450.621216,56.064682 453.524750,56.501980 455.943481,57.589325 
	C460.192902,59.499645 462.158295,65.087799 460.946716,70.075951 
	C459.975830,74.073151 455.774261,76.995049 450.891296,76.995613 
	C392.427521,77.002388 333.963776,77.000000 275.000000,77.000000 
z"/>
<path fill="#FFFFFF" opacity="1.000000" stroke="none" 
	d="
M249.000000,112.000000 
	C273.665009,112.000000 297.831879,112.173973 321.994049,111.911949 
	C331.288269,111.811165 337.893280,121.598274 331.938354,128.382248 
	C330.044800,130.539429 326.935760,132.036392 324.100677,132.841339 
	C321.478882,133.585754 318.479401,133.000000 315.646271,133.000000 
	C231.985382,133.000000 148.324509,133.000061 64.663620,132.999893 
	C56.490883,132.999878 53.013760,129.907288 53.000000,122.628586 
	C52.986259,115.358276 56.773312,112.001259 65.012650,112.001015 
	C126.175102,111.999153 187.337555,112.000000 249.000000,112.000000 
z"/>
<path fill="#FFFFFF" opacity="1.000000" stroke="none" 
	d="
M453.978760,112.490265 
	C460.474854,115.611633 462.216278,118.945808 460.990387,125.671410 
	C460.164612,130.201813 455.903839,132.999359 449.819580,132.999603 
	C425.530701,133.000549 401.241821,133.012924 376.952942,132.991455 
	C370.390076,132.985657 366.091064,128.912384 366.000061,122.744270 
	C365.913116,116.850807 370.517303,112.051865 376.844940,112.041702 
	C402.459198,112.000565 428.073669,112.118164 453.978760,112.490265 
z"/>
<path fill="#FFFFFF" opacity="1.000000" stroke="none" 
	d="
M54.659447,60.792538 
	C58.094151,58.999958 61.219856,56.247066 64.386337,56.199341 
	C88.516434,55.835613 112.654518,55.985840 136.790070,56.011978 
	C141.630203,56.017220 145.033295,58.295185 147.201889,62.673042 
	C149.331284,66.971741 147.772888,70.779037 145.281006,73.956863 
	C143.990250,75.602951 141.144775,76.856636 138.990845,76.873161 
	C113.358704,77.069855 87.724304,77.057144 62.090984,76.964935 
	C54.458691,76.937469 50.368790,68.314354 54.659447,60.792538 
z"/>
</svg>