<svg version="1.1" id="Layer_1" xmlns="http://www.w3.org/2000/svg" xmlns:xlink="http://www.w3.org/1999/xlink" x="0px" y="0px"
	 width="100%" viewBox="0 0 512 512" enable-background="new 0 0 512 512" xml:space="preserve">
<path fill="#333333" opacity="1.000000" stroke="none" 
	d="
M513.000000,285.000000 
	C513.000000,360.927032 513.000000,436.854095 513.000000,513.000000 
	C437.312592,513.000000 361.624939,513.000000 285.132416,512.654541 
	C285.334106,511.873596 286.301575,511.250946 287.353271,511.031128 
	C301.754120,508.021362 316.335205,505.706757 330.540070,501.962219 
	C357.685699,494.806396 382.285309,481.991943 405.149689,465.857391 
	C407.321716,464.324677 409.137115,461.448547 409.833191,458.851685 
	C410.978760,454.577789 409.443939,450.586182 405.449463,448.216766 
	C400.900299,445.518311 396.604767,447.040314 392.698151,449.849213 
	C377.791382,460.567505 361.742126,469.104462 344.763123,476.105225 
	C321.291687,485.782990 296.835205,491.297089 271.655731,492.799927 
	C252.598633,493.937347 233.551437,492.789581 214.583771,489.213898 
	C193.616638,485.261292 173.352783,479.232727 154.540588,469.528870 
	C140.080856,462.070129 126.597847,452.613403 113.090736,443.441071 
	C98.822952,433.752167 86.806892,421.417389 75.842041,408.205963 
	C60.440212,389.648529 48.191635,369.117737 38.935535,346.787964 
	C27.666960,319.603302 22.105240,291.206421 21.161100,261.946686 
	C20.822908,251.465790 21.692055,240.834839 23.159687,230.434601 
	C25.035166,217.144226 27.125603,203.747253 30.801003,190.875214 
	C39.513340,160.362762 53.316380,132.171539 74.481361,108.284523 
	C86.238312,95.015503 98.617569,82.029305 112.231430,70.743179 
	C128.691925,57.097134 147.663803,47.009205 167.533401,38.807766 
	C189.406357,29.779409 212.177948,24.270370 235.650024,22.180056 
	C247.239502,21.147949 258.996735,21.995466 270.678070,22.000334 
	C285.135376,22.006359 299.214905,24.708439 313.206238,28.006138 
	C340.078094,34.339733 364.984772,45.456303 387.877014,60.629944 
	C405.269135,72.157944 420.838928,85.966942 434.615082,101.895576 
	C450.262329,119.987602 462.993561,139.747162 472.858948,161.458496 
	C484.447418,186.961853 490.803131,213.851257 492.837708,241.638229 
	C494.213135,260.423309 493.222595,279.340973 489.835907,297.894501 
	C485.556519,321.338379 478.076904,343.889862 466.875214,364.974091 
	C461.351410,375.371216 454.433838,385.019501 448.410828,395.163300 
	C445.367676,400.288483 446.993195,406.091827 451.668396,408.887177 
	C456.119507,411.548431 462.913330,410.297089 465.650940,405.656250 
	C473.849823,391.757141 482.523560,378.058228 489.580231,363.583221 
	C501.358246,339.423401 508.475189,313.742004 511.081360,286.892395 
	C511.147980,286.205994 512.335327,285.628357 513.000000,285.000000 
M333.000000,277.500000 
	C356.918823,253.581253 380.838745,229.663574 404.755737,205.742996 
	C410.787140,199.710693 410.894501,194.459045 404.856842,188.394836 
	C387.106079,170.566025 369.303040,152.789215 351.487061,135.025528 
	C346.439514,129.992798 339.615570,129.616821 334.300964,134.994186 
	C299.281586,170.427246 263.945709,205.547424 228.738174,240.794754 
	C227.013351,242.521530 225.523758,244.483276 223.892838,246.372452 
	C208.823776,231.308029 194.096664,217.043182 179.951065,202.223236 
	C174.140289,196.135422 167.145844,197.292679 162.004898,202.452820 
	C144.483170,220.039902 126.988617,237.655441 109.314125,255.088211 
	C103.118423,261.199158 104.333336,268.106140 109.249855,272.967834 
	C144.792053,308.113708 180.049835,343.547180 215.398926,378.888336 
	C221.357925,384.846008 225.692230,384.807434 231.766022,378.734161 
	C265.345459,345.157532 298.922272,311.578339 333.000000,277.500000 
M439.065826,436.494568 
	C442.628235,432.116119 441.406158,427.503632 438.261505,424.087921 
	C435.422882,421.004578 431.171906,419.725433 426.675110,421.787811 
	C422.152313,423.862183 420.389832,427.408844 421.055237,432.095764 
	C421.634491,436.175476 423.880981,439.161072 427.983826,440.509766 
	C432.400818,441.961761 435.840393,440.200562 439.065826,436.494568 
z"/>
<path fill="#FFFFFF" opacity="1.000000" stroke="none" 
	d="
M513.000000,284.531372 
	C512.335327,285.628357 511.147980,286.205994 511.081360,286.892395 
	C508.475189,313.742004 501.358246,339.423401 489.580231,363.583221 
	C482.523560,378.058228 473.849823,391.757141 465.650940,405.656250 
	C462.913330,410.297089 456.119507,411.548431 451.668396,408.887177 
	C446.993195,406.091827 445.367676,400.288483 448.410828,395.163300 
	C454.433838,385.019501 461.351410,375.371216 466.875214,364.974091 
	C478.076904,343.889862 485.556519,321.338379 489.835907,297.894501 
	C493.222595,279.340973 494.213135,260.423309 492.837708,241.638229 
	C490.803131,213.851257 484.447418,186.961853 472.858948,161.458496 
	C462.993561,139.747162 450.262329,119.987602 434.615082,101.895576 
	C420.838928,85.966942 405.269135,72.157944 387.877014,60.629944 
	C364.984772,45.456303 340.078094,34.339733 313.206238,28.006138 
	C299.214905,24.708439 285.135376,22.006359 270.678070,22.000334 
	C258.996735,21.995466 247.239502,21.147949 235.650024,22.180056 
	C212.177948,24.270370 189.406357,29.779409 167.533401,38.807766 
	C147.663803,47.009205 128.691925,57.097134 112.231430,70.743179 
	C98.617569,82.029305 86.238312,95.015503 74.481361,108.284523 
	C53.316380,132.171539 39.513340,160.362762 30.801003,190.875214 
	C27.125603,203.747253 25.035166,217.144226 23.159687,230.434601 
	C21.692055,240.834839 20.822908,251.465790 21.161100,261.946686 
	C22.105240,291.206421 27.666960,319.603302 38.935535,346.787964 
	C48.191635,369.117737 60.440212,389.648529 75.842041,408.205963 
	C86.806892,421.417389 98.822952,433.752167 113.090736,443.441071 
	C126.597847,452.613403 140.080856,462.070129 154.540588,469.528870 
	C173.352783,479.232727 193.616638,485.261292 214.583771,489.213898 
	C233.551437,492.789581 252.598633,493.937347 271.655731,492.799927 
	C296.835205,491.297089 321.291687,485.782990 344.763123,476.105225 
	C361.742126,469.104462 377.791382,460.567505 392.698151,449.849213 
	C396.604767,447.040314 400.900299,445.518311 405.449463,448.216766 
	C409.443939,450.586182 410.978760,454.577789 409.833191,458.851685 
	C409.137115,461.448547 407.321716,464.324677 405.149689,465.857391 
	C382.285309,481.991943 357.685699,494.806396 330.540070,501.962219 
	C316.335205,505.706757 301.754120,508.021362 287.353271,511.031128 
	C286.301575,511.250946 285.334106,511.873596 284.663757,512.654541 
	C266.645782,513.000000 248.291550,513.000000 229.804352,512.658020 
	C228.999939,511.887634 228.373260,511.193146 227.650208,511.071503 
	C219.326920,509.671021 210.938797,508.611237 202.663956,506.975250 
	C172.706802,501.052612 145.119461,489.180115 119.434029,472.866577 
	C97.204086,458.747681 77.680199,441.541901 60.665165,421.340302 
	C48.781120,407.230621 38.581902,392.090027 30.031666,375.840332 
	C15.511868,348.245483 6.191924,318.991180 2.919613,287.890198 
	C2.847040,287.200439 1.664675,286.627441 0.999999,286.000000 
	C1.000000,266.979095 1.000000,247.958206 1.341670,228.804337 
	C2.120142,227.833786 2.805951,227.038101 2.954996,226.152130 
	C4.354977,217.830078 5.298315,209.414459 7.063177,201.173553 
	C13.555432,170.858368 25.492907,142.786545 42.566334,116.904503 
	C56.534389,95.729988 73.194252,77.026230 92.658859,60.673973 
	C106.778633,48.811924 121.946007,38.635178 138.160751,30.042154 
	C165.721878,15.436094 195.032913,6.275829 226.109360,2.919883 
	C226.800629,2.845232 227.372467,1.664685 228.000000,1.000004 
	C247.020889,1.000000 266.041779,1.000000 285.195648,1.341674 
	C286.166138,2.120147 286.966644,2.830047 287.847198,2.949353 
	C293.503387,3.715716 299.268585,3.922558 304.829651,5.104866 
	C332.275909,10.940081 358.546234,19.888861 383.065674,33.905964 
	C403.466248,45.568413 421.887604,59.733898 438.463409,76.204933 
	C446.916626,84.604736 454.509460,93.966705 461.782074,103.438271 
	C476.727692,122.902931 488.425659,144.312927 496.889618,167.326080 
	C503.991821,186.636658 509.476715,206.435623 511.083618,227.111359 
	C511.136108,227.786484 512.335327,228.372467 513.000000,229.000000 
	C513.000000,247.354233 513.000000,265.708466 513.000000,284.531372 
z"/>
<path fill="#333333" opacity="1.000000" stroke="none" 
	d="
M0.999999,286.468658 
	C1.664675,286.627441 2.847040,287.200439 2.919613,287.890198 
	C6.191924,318.991180 15.511868,348.245483 30.031666,375.840332 
	C38.581902,392.090027 48.781120,407.230621 60.665165,421.340302 
	C77.680199,441.541901 97.204086,458.747681 119.434029,472.866577 
	C145.119461,489.180115 172.706802,501.052612 202.663956,506.975250 
	C210.938797,508.611237 219.326920,509.671021 227.650208,511.071503 
	C228.373260,511.193146 228.999939,511.887634 229.335693,512.658020 
	C153.073120,513.000000 77.146255,513.000000 1.000000,513.000000 
	C1.000000,437.645905 1.000000,362.291626 0.999999,286.468658 
z"/>
<path fill="#333333" opacity="1.000000" stroke="none" 
	d="
M513.000000,228.531342 
	C512.335327,228.372467 511.136108,227.786484 511.083618,227.111359 
	C509.476715,206.435623 503.991821,186.636658 496.889618,167.326080 
	C488.425659,144.312927 476.727692,122.902931 461.782074,103.438271 
	C454.509460,93.966705 446.916626,84.604736 438.463409,76.204933 
	C421.887604,59.733898 403.466248,45.568413 383.065674,33.905964 
	C358.546234,19.888861 332.275909,10.940081 304.829651,5.104866 
	C299.268585,3.922558 293.503387,3.715716 287.847198,2.949353 
	C286.966644,2.830047 286.166138,2.120147 285.664307,1.341674 
	C361.593842,1.000000 437.187714,1.000000 513.000000,1.000000 
	C513.000000,76.687424 513.000000,152.375046 513.000000,228.531342 
z"/>
<path fill="#333333" opacity="1.000000" stroke="none" 
	d="
M227.531342,1.000004 
	C227.372467,1.664685 226.800629,2.845232 226.109360,2.919883 
	C195.032913,6.275829 165.721878,15.436094 138.160751,30.042154 
	C121.946007,38.635178 106.778633,48.811924 92.658859,60.673973 
	C73.194252,77.026230 56.534389,95.729988 42.566334,116.904503 
	C25.492907,142.786545 13.555432,170.858368 7.063177,201.173553 
	C5.298315,209.414459 4.354977,217.830078 2.954996,226.152130 
	C2.805951,227.038101 2.120142,227.833786 1.341670,228.335678 
	C1.000000,152.406296 1.000000,76.812576 1.000000,1.000000 
	C76.354088,1.000000 151.708389,1.000000 227.531342,1.000004 
z"/>
<path fill="#FFFFFF" opacity="1.000000" stroke="none" 
	d="
M332.750000,277.750000 
	C298.922272,311.578339 265.345459,345.157532 231.766022,378.734161 
	C225.692230,384.807434 221.357925,384.846008 215.398926,378.888336 
	C180.049835,343.547180 144.792053,308.113708 109.249855,272.967834 
	C104.333336,268.106140 103.118423,261.199158 109.314125,255.088211 
	C126.988617,237.655441 144.483170,220.039902 162.004898,202.452820 
	C167.145844,197.292679 174.140289,196.135422 179.951065,202.223236 
	C194.096664,217.043182 208.823776,231.308029 223.892838,246.372452 
	C225.523758,244.483276 227.013351,242.521530 228.738174,240.794754 
	C263.945709,205.547424 299.281586,170.427246 334.300964,134.994186 
	C339.615570,129.616821 346.439514,129.992798 351.487061,135.025528 
	C369.303040,152.789215 387.106079,170.566025 404.856842,188.394836 
	C410.894501,194.459045 410.787140,199.710693 404.755737,205.742996 
	C380.838745,229.663574 356.918823,253.581253 332.750000,277.750000 
M295.499969,286.999969 
	C325.318848,257.191589 355.137756,227.383209 384.849487,197.681976 
	C370.660828,183.465088 356.546234,169.322418 342.367859,155.115829 
	C305.522308,191.967377 268.643860,228.853546 231.762833,265.737091 
	C225.687668,271.812683 221.355209,271.852966 215.394241,265.882141 
	C200.796310,251.260040 186.205505,236.630814 171.704926,222.097763 
	C157.456680,236.334412 143.323059,250.456512 129.297318,264.470825 
	C160.703964,295.883728 192.151154,327.337219 223.672058,358.864410 
	C247.407379,335.116974 271.203705,311.308502 295.499969,286.999969 
z"/>
<path fill="#FFFFFF" opacity="1.000000" stroke="none" 
	d="
M439.011597,436.890381 
	C435.840393,440.200562 432.400818,441.961761 427.983826,440.509766 
	C423.880981,439.161072 421.634491,436.175476 421.055237,432.095764 
	C420.389832,427.408844 422.152313,423.862183 426.675110,421.787811 
	C431.171906,419.725433 435.422882,421.004578 438.261505,424.087921 
	C441.406158,427.503632 442.628235,432.116119 439.011597,436.890381 
z"/>
<path fill="#333333" opacity="1.000000" stroke="none" 
	d="
M295.250000,287.250000 
	C271.203705,311.308502 247.407379,335.116974 223.672058,358.864410 
	C192.151154,327.337219 160.703964,295.883728 129.297318,264.470825 
	C143.323059,250.456512 157.456680,236.334412 171.704926,222.097763 
	C186.205505,236.630814 200.796310,251.260040 215.394241,265.882141 
	C221.355209,271.852966 225.687668,271.812683 231.762833,265.737091 
	C268.643860,228.853546 305.522308,191.967377 342.367859,155.115829 
	C356.546234,169.322418 370.660828,183.465088 384.849487,197.681976 
	C355.137756,227.383209 325.318848,257.191589 295.250000,287.250000 
z"/>
</svg>