<svg version="1.1" id="Layer_1" xmlns="http://www.w3.org/2000/svg" xmlns:xlink="http://www.w3.org/1999/xlink" x="0px" y="0px"
	 width="100%" viewBox="0 0 512 512" enable-background="new 0 0 512 512" xml:space="preserve">
<path fill="#000000" opacity="1.000000" stroke="none" 
	d="
M513.000000,289.000000 
	C513.000000,363.593719 513.000000,438.187408 513.000000,513.000000 
	C438.645905,513.000000 364.291626,513.000000 289.167236,512.635010 
	C289.233856,511.847504 290.030884,511.188477 290.913635,511.040436 
	C297.304199,509.968872 303.754120,509.213501 310.106720,507.959930 
	C330.203064,503.994171 349.609467,497.640808 367.826843,488.393982 
	C380.849213,481.784058 393.102081,473.640564 405.593231,466.009369 
	C411.510559,462.394287 412.472137,457.744751 409.093262,451.570923 
	C406.364716,446.585419 401.376312,445.033051 395.698792,447.866394 
	C392.270294,449.577423 389.162048,451.932037 385.916901,454.008453 
	C366.353851,466.525696 345.582367,476.342102 323.293884,483.088074 
	C303.081879,489.205536 282.415680,492.259094 261.432404,492.836823 
	C251.290985,493.116028 241.023239,492.240906 230.954483,490.856995 
	C218.332382,489.122101 205.684952,486.995575 193.355560,483.838623 
	C173.688568,478.802917 155.064911,470.754639 137.954056,459.845734 
	C125.974083,452.207977 114.566734,443.587067 103.404991,434.770538 
	C86.144089,421.136261 72.032158,404.426910 60.142799,386.065155 
	C47.811882,367.021515 38.209015,346.622772 31.743944,324.675537 
	C26.867554,308.121490 23.167828,291.332672 22.313139,274.275970 
	C21.515192,258.351654 22.399498,242.185883 24.278370,226.332016 
	C25.918579,212.491989 29.182882,198.705338 33.123116,185.304840 
	C42.399940,153.754929 58.830753,125.912865 80.412758,101.290298 
	C94.193214,85.568382 109.814728,71.563057 127.498566,60.299980 
	C146.084488,48.462337 165.780441,38.825123 187.023590,32.354725 
	C204.291504,27.095137 221.867874,23.285610 239.748566,22.254482 
	C258.476807,21.174473 277.314514,21.453667 295.981110,24.909843 
	C315.501282,28.524065 334.446350,33.749119 352.563477,41.941959 
	C384.638947,56.446987 412.213959,76.833496 435.233429,103.580582 
	C449.784027,120.487404 461.462799,139.011703 471.124512,159.081970 
	C484.671570,187.223190 490.990417,217.075912 492.758240,247.888062 
	C493.528107,261.306519 492.852905,275.071228 490.682343,288.326355 
	C488.148529,303.799835 483.670685,319.006592 479.282898,334.110138 
	C475.014435,348.802979 468.062866,362.416321 460.126892,375.489807 
	C455.875763,382.493011 451.223907,389.272980 447.330811,396.466461 
	C444.759125,401.218384 447.173645,406.918854 451.886139,409.412659 
	C457.399445,412.330261 462.914093,411.294495 465.927582,406.128571 
	C474.418701,391.572723 483.410645,377.237213 490.801666,362.128296 
	C501.760956,339.725159 508.122253,315.781067 511.075714,290.969788 
	C511.161743,290.247070 512.334106,289.653687 513.000000,289.000000 
M397.000000,214.500000 
	C400.063263,211.432343 403.129822,208.367966 406.189056,205.296295 
	C411.325745,200.138748 411.323883,194.847610 406.160522,189.680359 
	C388.019623,171.525757 369.871521,153.378372 351.726379,135.228027 
	C344.975220,128.474930 340.003082,128.493835 333.174927,135.321884 
	C298.056702,170.439590 262.880646,205.499954 227.915665,240.769608 
	C224.240356,244.476929 222.361603,244.153778 218.940292,240.619980 
	C206.190567,227.451004 193.116074,214.596115 180.142471,201.644409 
	C174.232819,195.744736 168.760437,195.717834 162.996140,201.484406 
	C144.734146,219.753616 126.635437,238.191132 108.097794,256.176239 
	C103.307793,260.823486 103.482338,268.245483 108.024506,272.737091 
	C143.574799,307.891479 178.898819,343.275757 214.130447,378.750214 
	C220.314636,384.977020 226.672516,384.967377 232.870453,378.747009 
	C287.334686,324.085968 341.937927,269.563507 397.000000,214.500000 
M422.486084,437.001953 
	C425.352966,442.352173 430.584503,441.591187 434.872162,440.665741 
	C437.259155,440.150513 440.024872,436.837860 440.780121,434.249207 
	C442.422394,428.620056 440.336243,423.917542 436.174194,421.743225 
	C431.868073,419.493652 427.352173,419.867554 423.880280,423.118286 
	C419.973175,426.776520 419.299042,431.495178 422.486084,437.001953 
z"/>
<path fill="#FFFFFF" opacity="1.000000" stroke="none" 
	d="
M513.000000,288.531342 
	C512.334106,289.653687 511.161743,290.247070 511.075714,290.969788 
	C508.122253,315.781067 501.760956,339.725159 490.801666,362.128296 
	C483.410645,377.237213 474.418701,391.572723 465.927582,406.128571 
	C462.914093,411.294495 457.399445,412.330261 451.886139,409.412659 
	C447.173645,406.918854 444.759125,401.218384 447.330811,396.466461 
	C451.223907,389.272980 455.875763,382.493011 460.126892,375.489807 
	C468.062866,362.416321 475.014435,348.802979 479.282898,334.110138 
	C483.670685,319.006592 488.148529,303.799835 490.682343,288.326355 
	C492.852905,275.071228 493.528107,261.306519 492.758240,247.888062 
	C490.990417,217.075912 484.671570,187.223190 471.124512,159.081970 
	C461.462799,139.011703 449.784027,120.487404 435.233429,103.580582 
	C412.213959,76.833496 384.638947,56.446987 352.563477,41.941959 
	C334.446350,33.749119 315.501282,28.524065 295.981110,24.909843 
	C277.314514,21.453667 258.476807,21.174473 239.748566,22.254482 
	C221.867874,23.285610 204.291504,27.095137 187.023590,32.354725 
	C165.780441,38.825123 146.084488,48.462337 127.498566,60.299980 
	C109.814728,71.563057 94.193214,85.568382 80.412758,101.290298 
	C58.830753,125.912865 42.399940,153.754929 33.123116,185.304840 
	C29.182882,198.705338 25.918579,212.491989 24.278370,226.332016 
	C22.399498,242.185883 21.515192,258.351654 22.313139,274.275970 
	C23.167828,291.332672 26.867554,308.121490 31.743944,324.675537 
	C38.209015,346.622772 47.811882,367.021515 60.142799,386.065155 
	C72.032158,404.426910 86.144089,421.136261 103.404991,434.770538 
	C114.566734,443.587067 125.974083,452.207977 137.954056,459.845734 
	C155.064911,470.754639 173.688568,478.802917 193.355560,483.838623 
	C205.684952,486.995575 218.332382,489.122101 230.954483,490.856995 
	C241.023239,492.240906 251.290985,493.116028 261.432404,492.836823 
	C282.415680,492.259094 303.081879,489.205536 323.293884,483.088074 
	C345.582367,476.342102 366.353851,466.525696 385.916901,454.008453 
	C389.162048,451.932037 392.270294,449.577423 395.698792,447.866394 
	C401.376312,445.033051 406.364716,446.585419 409.093262,451.570923 
	C412.472137,457.744751 411.510559,462.394287 405.593231,466.009369 
	C393.102081,473.640564 380.849213,481.784058 367.826843,488.393982 
	C349.609467,497.640808 330.203064,503.994171 310.106720,507.959930 
	C303.754120,509.213501 297.304199,509.968872 290.913635,511.040436 
	C290.030884,511.188477 289.233856,511.847504 288.698578,512.635010 
	C267.979095,513.000000 246.958206,513.000000 225.770081,512.635010 
	C224.932816,511.852325 224.312149,511.209229 223.585464,511.050018 
	C208.649429,507.777954 193.466949,505.371735 178.812790,501.135345 
	C158.882751,495.373749 140.397217,486.196167 122.544434,475.402222 
	C94.078880,458.191742 70.555740,435.739990 50.470882,409.660339 
	C38.397217,393.983032 28.674252,376.658447 21.044773,358.298370 
	C12.181127,336.968353 5.602928,315.002533 2.923881,291.968048 
	C2.840039,291.247192 1.665864,290.653168 0.999998,290.000000 
	C1.000000,268.312439 1.000000,246.624878 1.364950,224.770081 
	C2.147651,223.932938 2.804164,223.310287 2.947613,222.586044 
	C5.392432,210.242554 6.811982,197.602707 10.357001,185.588654 
	C19.436859,154.817062 33.453991,126.469620 53.319695,100.969849 
	C68.199196,81.870399 85.129395,64.943550 104.340401,50.480141 
	C120.141068,38.584278 137.303177,28.613958 155.697662,21.043438 
	C177.050537,12.255352 198.985580,5.562997 222.032181,2.923713 
	C222.752121,2.841265 223.346878,1.665870 224.000000,1.000001 
	C245.687561,1.000000 267.375122,1.000000 289.229919,1.364962 
	C290.067200,2.147669 290.695709,2.829242 291.413666,2.942198 
	C298.302307,4.025973 305.332367,4.491198 312.082977,6.122262 
	C337.294434,12.213760 361.470490,20.953653 384.121124,33.918129 
	C410.096924,48.785839 432.391846,67.851753 451.930908,90.376556 
	C468.021149,108.925529 480.986359,129.405350 491.003754,151.810013 
	C501.184235,174.579407 508.157776,198.221664 511.075806,223.032043 
	C511.160675,223.753479 512.334106,224.346893 513.000000,225.000000 
	C513.000000,246.020889 513.000000,267.041779 513.000000,288.531342 
z"/>
<path fill="#000000" opacity="1.000000" stroke="none" 
	d="
M0.999998,290.468658 
	C1.665864,290.653168 2.840039,291.247192 2.923881,291.968048 
	C5.602928,315.002533 12.181127,336.968353 21.044773,358.298370 
	C28.674252,376.658447 38.397217,393.983032 50.470882,409.660339 
	C70.555740,435.739990 94.078880,458.191742 122.544434,475.402222 
	C140.397217,486.196167 158.882751,495.373749 178.812790,501.135345 
	C193.466949,505.371735 208.649429,507.777954 223.585464,511.050018 
	C224.312149,511.209229 224.932816,511.852325 225.301422,512.635010 
	C150.406464,513.000000 75.812927,513.000000 1.000000,513.000000 
	C1.000000,438.979248 1.000000,364.958282 0.999998,290.468658 
z"/>
<path fill="#000000" opacity="1.000000" stroke="none" 
	d="
M513.000000,224.531342 
	C512.334106,224.346893 511.160675,223.753479 511.075806,223.032043 
	C508.157776,198.221664 501.184235,174.579407 491.003754,151.810013 
	C480.986359,129.405350 468.021149,108.925529 451.930908,90.376556 
	C432.391846,67.851753 410.096924,48.785839 384.121124,33.918129 
	C361.470490,20.953653 337.294434,12.213760 312.082977,6.122262 
	C305.332367,4.491198 298.302307,4.025973 291.413666,2.942198 
	C290.695709,2.829242 290.067200,2.147669 289.698608,1.364962 
	C364.260529,1.000000 438.521088,1.000000 513.000000,1.000000 
	C513.000000,75.354088 513.000000,149.708389 513.000000,224.531342 
z"/>
<path fill="#000000" opacity="1.000000" stroke="none" 
	d="
M223.531342,1.000001 
	C223.346878,1.665870 222.752121,2.841265 222.032181,2.923713 
	C198.985580,5.562997 177.050537,12.255352 155.697662,21.043438 
	C137.303177,28.613958 120.141068,38.584278 104.340401,50.480141 
	C85.129395,64.943550 68.199196,81.870399 53.319695,100.969849 
	C33.453991,126.469620 19.436859,154.817062 10.357001,185.588654 
	C6.811982,197.602707 5.392432,210.242554 2.947613,222.586044 
	C2.804164,223.310287 2.147651,223.932938 1.364950,224.301422 
	C1.000000,149.739624 1.000000,75.479248 1.000000,1.000000 
	C75.020752,1.000000 149.041718,1.000000 223.531342,1.000001 
z"/>
<path fill="#FFFFFF" opacity="1.000000" stroke="none" 
	d="
M396.750000,214.750000 
	C341.937927,269.563507 287.334686,324.085968 232.870453,378.747009 
	C226.672516,384.967377 220.314636,384.977020 214.130447,378.750214 
	C178.898819,343.275757 143.574799,307.891479 108.024506,272.737091 
	C103.482338,268.245483 103.307793,260.823486 108.097794,256.176239 
	C126.635437,238.191132 144.734146,219.753616 162.996140,201.484406 
	C168.760437,195.717834 174.232819,195.744736 180.142471,201.644409 
	C193.116074,214.596115 206.190567,227.451004 218.940292,240.619980 
	C222.361603,244.153778 224.240356,244.476929 227.915665,240.769608 
	C262.880646,205.499954 298.056702,170.439590 333.174927,135.321884 
	C340.003082,128.493835 344.975220,128.474930 351.726379,135.228027 
	C369.871521,153.378372 388.019623,171.525757 406.160522,189.680359 
	C411.323883,194.847610 411.325745,200.138748 406.189056,205.296295 
	C403.129822,208.367966 400.063263,211.432343 396.750000,214.750000 
M234.500000,347.000000 
	C284.324951,297.182465 334.149872,247.364960 383.960358,197.561905 
	C370.083221,183.684204 356.300598,169.900970 342.432648,156.032425 
	C306.057007,192.419052 269.668549,228.818298 233.280350,265.217804 
	C226.357773,272.142548 220.688705,272.200653 213.892914,265.400269 
	C199.777374,251.275208 185.666641,237.145386 171.569870,223.033463 
	C157.677094,236.925064 143.893585,250.707413 130.542374,264.057526 
	C161.675339,295.190735 192.820496,326.336151 224.001297,357.517212 
	C227.174011,354.338623 230.587006,350.919312 234.500000,347.000000 
z"/>
<path fill="#FFFFFF" opacity="1.000000" stroke="none" 
	d="
M422.213623,436.704346 
	C419.299042,431.495178 419.973175,426.776520 423.880280,423.118286 
	C427.352173,419.867554 431.868073,419.493652 436.174194,421.743225 
	C440.336243,423.917542 442.422394,428.620056 440.780121,434.249207 
	C440.024872,436.837860 437.259155,440.150513 434.872162,440.665741 
	C430.584503,441.591187 425.352966,442.352173 422.213623,436.704346 
z"/>
<path fill="#000000" opacity="1.000000" stroke="none" 
	d="
M234.250000,347.250000 
	C230.587006,350.919312 227.174011,354.338623 224.001297,357.517212 
	C192.820496,326.336151 161.675339,295.190735 130.542374,264.057526 
	C143.893585,250.707413 157.677094,236.925064 171.569870,223.033463 
	C185.666641,237.145386 199.777374,251.275208 213.892914,265.400269 
	C220.688705,272.200653 226.357773,272.142548 233.280350,265.217804 
	C269.668549,228.818298 306.057007,192.419052 342.432648,156.032425 
	C356.300598,169.900970 370.083221,183.684204 383.960358,197.561905 
	C334.149872,247.364960 284.324951,297.182465 234.250000,347.250000 
z"/>
</svg>