<svg version="1.1" id="Layer_1" xmlns="http://www.w3.org/2000/svg" xmlns:xlink="http://www.w3.org/1999/xlink" x="0px" y="0px"
	 width="100%" viewBox="0 0 512 512" enable-background="new 0 0 512 512" xml:space="preserve">
<path fill="#FFFFFF" opacity="1.000000" stroke="none" 
	d="
M513.000000,166.000000 
	C513.000000,254.354233 513.000000,342.708466 512.663818,431.234924 
	C511.899139,431.888000 511.188385,432.314117 511.082977,432.857635 
	C507.269379,452.517365 488.546570,466.055817 468.954041,466.040833 
	C358.367310,465.956329 247.780487,466.012817 137.193710,465.957642 
	C132.290237,465.955200 127.276070,465.871552 122.506714,464.888336 
	C112.438599,462.812714 104.019226,457.920868 97.706604,449.403320 
	C92.057663,441.781281 88.595863,433.569794 88.846962,424.438141 
	C85.710083,423.891205 83.166206,423.364838 80.598412,423.013184 
	C61.859909,420.447144 46.308182,403.556549 42.862988,385.646362 
	C42.530022,383.915344 40.479374,381.479980 38.889542,381.184967 
	C22.307926,378.107666 10.766390,368.909271 3.862543,353.614716 
	C3.374219,352.532867 1.975422,351.862000 0.999993,351.000000 
	C1.000000,267.979095 1.000000,184.958206 1.391867,101.465240 
	C2.081058,100.902443 2.591699,100.879677 2.645331,100.711319 
	C6.940073,87.229477 14.292469,75.692413 25.044149,66.510765 
	C37.281166,56.060680 51.329971,49.128021 67.625420,49.097679 
	C170.916626,48.905346 274.208771,49.149590 377.499603,48.875229 
	C398.445953,48.819592 419.154877,66.851105 422.062469,86.458488 
	C422.415100,88.836365 423.003998,90.736809 426.545685,91.429047 
	C438.788696,93.821945 449.687073,99.282852 456.481476,110.199516 
	C460.620087,116.849075 463.395050,124.347343 467.010376,131.943100 
	C468.732788,132.184875 471.714203,132.303955 474.523285,133.061798 
	C479.888214,134.509186 485.533447,135.595901 490.384827,138.129562 
	C500.917786,143.630539 507.645447,152.594254 511.040375,164.038055 
	C511.271515,164.817245 512.327576,165.351715 513.000000,166.000000 
M363.500000,445.000000 
	C398.664398,445.000000 433.828796,445.010712 468.993164,444.968231 
	C470.745544,444.966095 472.569855,444.735229 474.238037,444.216492 
	C488.739685,439.707214 491.387451,431.539215 491.847229,419.131439 
	C492.463928,402.488892 492.137848,385.803925 491.844421,369.143738 
	C491.802612,366.771179 490.278320,363.640137 488.408112,362.206970 
	C471.570984,349.304535 454.455109,336.766846 437.526581,323.982361 
	C430.588257,318.742493 425.363922,318.825348 418.276123,324.157471 
	C406.640106,332.911102 394.799103,341.392212 383.051849,349.998169 
	C378.260284,353.508423 373.487732,357.044617 368.073853,361.035370 
	C370.363220,363.144836 372.265900,364.730865 373.975098,366.503479 
	C379.719360,372.460968 385.703430,378.227509 390.993103,384.569702 
	C394.817719,389.155334 393.753296,395.364838 389.521057,398.949280 
	C385.462219,402.386749 379.254608,401.856873 375.021637,397.519226 
	C364.707611,386.950104 354.504822,376.272369 344.185760,365.708191 
	C327.345764,348.468201 310.422760,331.309326 293.592712,314.059662 
	C288.865021,309.214081 284.427734,304.085358 279.705719,299.233948 
	C264.176239,283.278961 248.662796,267.306396 232.949677,251.533386 
	C228.577911,247.144989 221.348801,247.141693 216.660965,250.998703 
	C210.194000,256.319489 204.092896,262.085175 197.839523,267.665283 
	C191.585968,273.245544 185.386261,278.887268 179.077225,284.404022 
	C166.370041,295.515350 153.603592,306.558929 140.863632,317.632782 
	C133.194534,324.298950 125.469940,330.902985 117.883820,337.662323 
	C113.071632,341.950104 109.432800,346.140289 109.710121,353.910828 
	C110.523903,376.713318 110.498779,399.578735 109.804489,422.389160 
	C109.416046,435.151215 120.712837,445.093445 132.518097,445.071869 
	C209.178513,444.931793 285.839325,445.000000 363.500000,445.000000 
M388.500000,153.000000 
	C306.500305,153.000000 224.500595,152.984589 142.500946,153.042480 
	C138.091141,153.045593 133.686188,153.856064 129.271286,153.958542 
	C118.745010,154.202866 109.739395,165.832291 109.826637,175.746521 
	C110.222588,220.742874 110.000000,265.744659 110.000000,310.744507 
	C110.000000,312.334381 110.000000,313.924255 110.000000,316.220276 
	C115.041611,312.007965 119.573669,308.363403 123.948204,304.538727 
	C135.191208,294.708801 146.374741,284.810699 157.562897,274.918182 
	C172.202774,261.973694 186.775864,248.953201 201.467346,236.067612 
	C215.945099,223.369492 235.210281,224.399902 248.383804,237.008133 
	C255.555328,243.871902 262.087311,251.398926 269.039490,258.497803 
	C288.934906,278.813049 308.898285,299.061737 328.831787,319.339691 
	C329.880524,320.406586 330.902863,321.499512 331.932190,322.585358 
	C339.183289,330.234497 346.432953,337.884979 353.718842,345.572784 
	C355.427429,344.029266 356.450226,342.925385 357.643280,342.054810 
	C373.317505,330.616272 389.049652,319.256958 404.697388,307.782410 
	C417.636810,298.293884 431.223724,295.312164 445.641174,304.053711 
	C451.702393,307.728668 457.254608,312.254974 462.967834,316.489288 
	C472.526337,323.573486 482.028381,330.733856 491.999939,338.195740 
	C491.999939,284.605713 492.116089,231.791000 491.846771,178.978256 
	C491.814636,172.673309 490.504333,166.247253 485.698334,161.046753 
	C480.129089,155.020370 473.119568,153.111160 465.499329,153.061920 
	C440.167145,152.898193 414.833252,153.000000 388.500000,153.000000 
M438.042114,120.568100 
	C432.525299,114.662003 425.818359,111.917076 417.647339,111.944298 
	C379.822021,112.070351 341.996002,112.000008 304.170258,111.999985 
	C301.337494,111.999985 298.499542,112.110519 295.673004,111.977867 
	C288.656281,111.648582 282.710480,106.758919 283.360138,101.309975 
	C284.062622,95.417862 286.103485,90.722557 295.937622,90.843048 
	C329.425873,91.253365 362.922272,91.000000 396.415558,91.000000 
	C398.131226,91.000000 399.846924,91.000000 402.757233,91.000000 
	C400.015198,86.437202 398.138519,82.501129 395.528870,79.132919 
	C389.135803,70.881386 379.744995,69.100815 370.175842,69.079971 
	C301.523285,68.930420 232.869995,68.898552 164.217392,69.045288 
	C132.639084,69.112793 101.054832,69.368279 69.486603,70.107765 
	C49.361515,70.579208 35.819019,82.192459 26.104214,98.743866 
	C21.052729,107.350235 20.172348,117.294266 20.125824,126.942726 
	C19.864697,181.097275 19.925293,235.253922 20.045893,289.409485 
	C20.081697,305.487518 20.589687,321.566467 21.027517,337.640991 
	C21.311758,348.076630 32.099575,359.348755 42.000000,359.583801 
	C42.000000,357.759460 42.000000,355.939178 42.000000,354.118927 
	C42.000000,284.966125 42.149788,215.812714 41.877457,146.660980 
	C41.820930,132.307571 44.507233,119.357666 53.951321,108.157036 
	C62.381618,98.158752 73.041634,91.396927 85.925896,91.221016 
	C128.742676,90.636452 171.572388,90.993553 214.397141,91.009621 
	C218.861938,91.011299 223.021927,94.093552 223.949341,97.935310 
	C225.151810,102.916420 223.103424,108.763527 218.930054,110.414909 
	C216.149918,111.514984 212.933624,111.929146 209.910812,111.936539 
	C170.752213,112.032333 131.591492,112.220245 92.435356,111.895920 
	C75.843811,111.758507 62.991020,124.849373 62.993912,141.335190 
	C63.007572,219.152939 62.928394,296.970886 63.169468,374.787903 
	C63.184700,379.703766 64.966331,384.927979 67.100716,389.455017 
	C70.980934,397.685059 81.349365,403.483765 89.000000,402.498718 
	C89.000000,400.721252 89.000000,398.906921 89.000000,397.092590 
	C89.000000,321.940979 89.010735,246.789368 88.985092,171.637756 
	C88.982208,163.165237 92.475029,155.830063 97.288383,149.426483 
	C106.684708,136.925842 120.126312,132.054428 135.328934,132.042175 
	C236.308640,131.960785 337.288452,132.000000 438.268219,132.000000 
	C440.151093,132.000000 442.033966,132.000000 444.664154,132.000000 
	C442.306580,127.757774 440.448273,124.413887 438.042114,120.568100 
z"/>
<path fill="#000000" opacity="1.000000" stroke="none" 
	d="
M513.000000,165.531342 
	C512.327576,165.351715 511.271515,164.817245 511.040375,164.038055 
	C507.645447,152.594254 500.917786,143.630539 490.384827,138.129562 
	C485.533447,135.595901 479.888214,134.509186 474.523285,133.061798 
	C471.714203,132.303955 468.732788,132.184875 467.010376,131.943100 
	C463.395050,124.347343 460.620087,116.849075 456.481476,110.199516 
	C449.687073,99.282852 438.788696,93.821945 426.545685,91.429047 
	C423.003998,90.736809 422.415100,88.836365 422.062469,86.458488 
	C419.154877,66.851105 398.445953,48.819592 377.499603,48.875229 
	C274.208771,49.149590 170.916626,48.905346 67.625420,49.097679 
	C51.329971,49.128021 37.281166,56.060680 25.044149,66.510765 
	C14.292469,75.692413 6.940073,87.229477 2.645331,100.711319 
	C2.591699,100.879677 2.081058,100.902443 1.391867,100.996582 
	C1.000000,67.685432 1.000000,34.370865 1.000000,1.028148 
	C171.551819,1.028148 342.103638,1.028148 513.000000,1.028148 
	C513.000000,55.687080 513.000000,110.374878 513.000000,165.531342 
z"/>
<path fill="#000000" opacity="1.000000" stroke="none" 
	d="
M0.999993,351.468689 
	C1.975422,351.862000 3.374219,352.532867 3.862543,353.614716 
	C10.766390,368.909271 22.307926,378.107666 38.889542,381.184967 
	C40.479374,381.479980 42.530022,383.915344 42.862988,385.646362 
	C46.308182,403.556549 61.859909,420.447144 80.598412,423.013184 
	C83.166206,423.364838 85.710083,423.891205 88.846962,424.438141 
	C88.595863,433.569794 92.057663,441.781281 97.706604,449.403320 
	C104.019226,457.920868 112.438599,462.812714 122.506714,464.888336 
	C127.276070,465.871552 132.290237,465.955200 137.193710,465.957642 
	C247.780487,466.012817 358.367310,465.956329 468.954041,466.040833 
	C488.546570,466.055817 507.269379,452.517365 511.082977,432.857635 
	C511.188385,432.314117 511.899139,431.888000 512.663818,431.703552 
	C513.000000,458.984344 513.000000,485.968658 513.000000,512.976501 
	C342.447937,512.976501 171.895889,512.976501 1.000000,512.976501 
	C1.000000,459.312927 1.000000,405.625122 0.999993,351.468689 
z"/>
<path fill="#000000" opacity="1.000000" stroke="none" 
	d="
M363.000000,445.000000 
	C285.839325,445.000000 209.178513,444.931793 132.518097,445.071869 
	C120.712837,445.093445 109.416046,435.151215 109.804489,422.389160 
	C110.498779,399.578735 110.523903,376.713318 109.710121,353.910828 
	C109.432800,346.140289 113.071632,341.950104 117.883820,337.662323 
	C125.469940,330.902985 133.194534,324.298950 140.863632,317.632782 
	C153.603592,306.558929 166.370041,295.515350 179.077225,284.404022 
	C185.386261,278.887268 191.585968,273.245544 197.839523,267.665283 
	C204.092896,262.085175 210.194000,256.319489 216.660965,250.998703 
	C221.348801,247.141693 228.577911,247.144989 232.949677,251.533386 
	C248.662796,267.306396 264.176239,283.278961 279.705719,299.233948 
	C284.427734,304.085358 288.865021,309.214081 293.592712,314.059662 
	C310.422760,331.309326 327.345764,348.468201 344.185760,365.708191 
	C354.504822,376.272369 364.707611,386.950104 375.021637,397.519226 
	C379.254608,401.856873 385.462219,402.386749 389.521057,398.949280 
	C393.753296,395.364838 394.817719,389.155334 390.993103,384.569702 
	C385.703430,378.227509 379.719360,372.460968 373.975098,366.503479 
	C372.265900,364.730865 370.363220,363.144836 368.073853,361.035370 
	C373.487732,357.044617 378.260284,353.508423 383.051849,349.998169 
	C394.799103,341.392212 406.640106,332.911102 418.276123,324.157471 
	C425.363922,318.825348 430.588257,318.742493 437.526581,323.982361 
	C454.455109,336.766846 471.570984,349.304535 488.408112,362.206970 
	C490.278320,363.640137 491.802612,366.771179 491.844421,369.143738 
	C492.137848,385.803925 492.463928,402.488892 491.847229,419.131439 
	C491.387451,431.539215 488.739685,439.707214 474.238037,444.216492 
	C472.569855,444.735229 470.745544,444.966095 468.993164,444.968231 
	C433.828796,445.010712 398.664398,445.000000 363.000000,445.000000 
z"/>
<path fill="#000000" opacity="1.000000" stroke="none" 
	d="
M389.000000,153.000000 
	C414.833252,153.000000 440.167145,152.898193 465.499329,153.061920 
	C473.119568,153.111160 480.129089,155.020370 485.698334,161.046753 
	C490.504333,166.247253 491.814636,172.673309 491.846771,178.978256 
	C492.116089,231.791000 491.999939,284.605713 491.999939,338.195740 
	C482.028381,330.733856 472.526337,323.573486 462.967834,316.489288 
	C457.254608,312.254974 451.702393,307.728668 445.641174,304.053711 
	C431.223724,295.312164 417.636810,298.293884 404.697388,307.782410 
	C389.049652,319.256958 373.317505,330.616272 357.643280,342.054810 
	C356.450226,342.925385 355.427429,344.029266 353.718842,345.572784 
	C346.432953,337.884979 339.183289,330.234497 331.932190,322.585358 
	C330.902863,321.499512 329.880524,320.406586 328.831787,319.339691 
	C308.898285,299.061737 288.934906,278.813049 269.039490,258.497803 
	C262.087311,251.398926 255.555328,243.871902 248.383804,237.008133 
	C235.210281,224.399902 215.945099,223.369492 201.467346,236.067612 
	C186.775864,248.953201 172.202774,261.973694 157.562897,274.918182 
	C146.374741,284.810699 135.191208,294.708801 123.948204,304.538727 
	C119.573669,308.363403 115.041611,312.007965 110.000000,316.220276 
	C110.000000,313.924255 110.000000,312.334381 110.000000,310.744507 
	C110.000000,265.744659 110.222588,220.742874 109.826637,175.746521 
	C109.739395,165.832291 118.745010,154.202866 129.271286,153.958542 
	C133.686188,153.856064 138.091141,153.045593 142.500946,153.042480 
	C224.500595,152.984589 306.500305,153.000000 389.000000,153.000000 
M372.824432,276.974670 
	C379.505615,278.648285 386.040070,280.008270 393.187744,279.188080 
	C405.118652,277.818970 414.596832,272.853027 421.996033,263.531860 
	C431.778290,251.208740 434.102692,237.649780 429.286194,222.685913 
	C422.834778,202.642853 406.215851,193.520233 388.711304,193.271179 
	C375.242065,193.079559 363.358765,198.332214 354.699615,209.680023 
	C345.846161,221.282425 343.389801,233.915268 346.972443,247.878891 
	C350.510437,261.668488 359.435669,270.789429 372.824432,276.974670 
z"/>
<path fill="#000000" opacity="1.000000" stroke="none" 
	d="
M438.316040,120.819046 
	C440.448273,124.413887 442.306580,127.757774 444.664154,132.000000 
	C442.033966,132.000000 440.151093,132.000000 438.268219,132.000000 
	C337.288452,132.000000 236.308640,131.960785 135.328934,132.042175 
	C120.126312,132.054428 106.684708,136.925842 97.288383,149.426483 
	C92.475029,155.830063 88.982208,163.165237 88.985092,171.637756 
	C89.010735,246.789368 89.000000,321.940979 89.000000,397.092590 
	C89.000000,398.906921 89.000000,400.721252 89.000000,402.498718 
	C81.349365,403.483765 70.980934,397.685059 67.100716,389.455017 
	C64.966331,384.927979 63.184700,379.703766 63.169468,374.787903 
	C62.928394,296.970886 63.007572,219.152939 62.993912,141.335190 
	C62.991020,124.849373 75.843811,111.758507 92.435356,111.895920 
	C131.591492,112.220245 170.752213,112.032333 209.910812,111.936539 
	C212.933624,111.929146 216.149918,111.514984 218.930054,110.414909 
	C223.103424,108.763527 225.151810,102.916420 223.949341,97.935310 
	C223.021927,94.093552 218.861938,91.011299 214.397141,91.009621 
	C171.572388,90.993553 128.742676,90.636452 85.925896,91.221016 
	C73.041634,91.396927 62.381618,98.158752 53.951321,108.157036 
	C44.507233,119.357666 41.820930,132.307571 41.877457,146.660980 
	C42.149788,215.812714 42.000000,284.966125 42.000000,354.118927 
	C42.000000,355.939178 42.000000,357.759460 42.000000,359.583801 
	C32.099575,359.348755 21.311758,348.076630 21.027517,337.640991 
	C20.589687,321.566467 20.081697,305.487518 20.045893,289.409485 
	C19.925293,235.253922 19.864697,181.097275 20.125824,126.942726 
	C20.172348,117.294266 21.052729,107.350235 26.104214,98.743866 
	C35.819019,82.192459 49.361515,70.579208 69.486603,70.107765 
	C101.054832,69.368279 132.639084,69.112793 164.217392,69.045288 
	C232.869995,68.898552 301.523285,68.930420 370.175842,69.079971 
	C379.744995,69.100815 389.135803,70.881386 395.528870,79.132919 
	C398.138519,82.501129 400.015198,86.437202 402.757233,91.000000 
	C399.846924,91.000000 398.131226,91.000000 396.415558,91.000000 
	C362.922272,91.000000 329.425873,91.253365 295.937622,90.843048 
	C286.103485,90.722557 284.062622,95.417862 283.360138,101.309975 
	C282.710480,106.758919 288.656281,111.648582 295.673004,111.977867 
	C298.499542,112.110519 301.337494,111.999985 304.170258,111.999985 
	C341.996002,112.000008 379.822021,112.070351 417.647339,111.944298 
	C425.818359,111.917076 432.525299,114.662003 438.316040,120.819046 
M251.005432,91.000664 
	C249.552994,91.948883 247.911240,92.700142 246.682617,93.881187 
	C242.508224,97.893913 242.699844,105.505142 246.966293,108.986511 
	C252.117950,113.190239 259.185242,111.834648 262.369141,107.284637 
	C264.969788,103.568169 264.541687,99.824821 262.977448,96.221962 
	C260.908020,91.455559 256.618164,90.492744 251.005432,91.000664 
z"/>
<path fill="#FFFFFF" opacity="1.000000" stroke="none" 
	d="
M372.461761,276.798584 
	C359.435669,270.789429 350.510437,261.668488 346.972443,247.878891 
	C343.389801,233.915268 345.846161,221.282425 354.699615,209.680023 
	C363.358765,198.332214 375.242065,193.079559 388.711304,193.271179 
	C406.215851,193.520233 422.834778,202.642853 429.286194,222.685913 
	C434.102692,237.649780 431.778290,251.208740 421.996033,263.531860 
	C414.596832,272.853027 405.118652,277.818970 393.187744,279.188080 
	C386.040070,280.008270 379.505615,278.648285 372.461761,276.798584 
M406.043335,223.454239 
	C401.046844,215.649887 390.334259,212.084671 381.347534,215.235321 
	C372.950897,218.179092 364.903107,229.406677 366.060699,237.286774 
	C368.076630,251.009598 377.837067,259.977264 392.347107,258.066162 
	C406.574585,256.192322 416.864410,237.249374 406.043335,223.454239 
z"/>
<path fill="#FFFFFF" opacity="1.000000" stroke="none" 
	d="
M251.425873,91.000351 
	C256.618164,90.492744 260.908020,91.455559 262.977448,96.221962 
	C264.541687,99.824821 264.969788,103.568169 262.369141,107.284637 
	C259.185242,111.834648 252.117950,113.190239 246.966293,108.986511 
	C242.699844,105.505142 242.508224,97.893913 246.682617,93.881187 
	C247.911240,92.700142 249.552994,91.948883 251.425873,91.000351 
z"/>
<path fill="#000000" opacity="1.000000" stroke="none" 
	d="
M406.292297,223.738403 
	C416.864410,237.249374 406.574585,256.192322 392.347107,258.066162 
	C377.837067,259.977264 368.076630,251.009598 366.060699,237.286774 
	C364.903107,229.406677 372.950897,218.179092 381.347534,215.235321 
	C390.334259,212.084671 401.046844,215.649887 406.292297,223.738403 
z"/>
</svg>