<svg version="1.1" id="Layer_1" xmlns="http://www.w3.org/2000/svg" xmlns:xlink="http://www.w3.org/1999/xlink" x="0px" y="0px"
	 width="100%" viewBox="0 0 512 512" enable-background="new 0 0 512 512" xml:space="preserve">
<path fill="#000000" opacity="1.000000" stroke="none" 
	d="
M513.000000,215.000000 
	C513.000000,314.294586 513.000000,413.589203 513.000000,512.941895 
	C342.438660,512.941895 171.877274,512.941895 1.000000,512.941895 
	C1.000000,413.977570 1.000000,314.954834 1.408801,215.471191 
	C2.112840,215.109344 2.635854,215.157501 2.670973,215.314682 
	C6.309132,231.595840 12.776770,246.704117 20.966177,261.207397 
	C35.477036,286.905853 54.366238,309.225189 74.334435,330.666748 
	C83.251099,340.241302 92.976768,349.080627 102.566902,358.004669 
	C112.073860,366.851318 121.678696,375.613434 131.587936,384.002350 
	C146.524231,396.647095 161.268158,409.604065 176.987091,421.219513 
	C201.132370,439.061523 226.042740,455.867645 250.611267,473.137756 
	C254.824524,476.099396 259.045135,476.004120 263.223053,473.273743 
	C271.981567,467.549957 280.831512,461.948639 289.370605,455.910461 
	C304.162689,445.450653 318.996033,435.020721 333.349487,423.977020 
	C348.067780,412.652588 362.407257,400.815155 376.587952,388.818542 
	C390.614716,376.952087 404.627533,365.018677 417.944855,352.375671 
	C438.722778,332.649872 458.125214,311.635071 475.146698,288.465881 
	C491.289551,266.492737 504.768951,243.310501 511.073853,216.472519 
	C511.216675,215.864395 512.336121,215.485718 513.000000,215.000000 
z"/>
<path fill="#000000" opacity="1.000000" stroke="none" 
	d="
M0.999998,171.000000 
	C1.000000,114.362427 1.000000,57.724850 1.000000,1.043637 
	C171.549957,1.043637 342.099945,1.043637 513.000000,1.043637 
	C513.000000,57.353745 513.000000,113.708214 512.637146,170.832611 
	C511.855072,170.933868 511.136719,170.297531 511.060394,169.591782 
	C509.165375,152.061035 503.105865,135.810776 494.920593,120.445305 
	C486.253021,104.174393 475.173828,89.719795 461.134064,77.403931 
	C447.849762,65.750755 433.439270,56.263287 417.132050,49.604984 
	C403.642059,44.096985 389.597137,40.122459 375.129944,39.231846 
	C361.537567,38.395084 347.860321,38.386154 334.200378,40.837563 
	C314.418945,44.387516 296.156189,51.432873 279.391418,62.266151 
	C271.535370,67.342682 264.314148,73.401581 256.849915,78.981850 
	C255.326813,77.923500 253.788208,77.005051 252.431122,75.869659 
	C251.031250,74.698471 249.929886,73.157600 248.489136,72.050079 
	C227.893890,56.218235 205.279678,45.111942 179.330063,40.846504 
	C160.747437,37.792011 142.136887,37.563877 123.978348,41.326668 
	C102.182877,45.843094 81.874474,54.487061 63.853184,68.374283 
	C49.448967,79.474174 36.986286,92.091599 27.010550,107.186554 
	C14.446468,126.198097 5.894452,146.801727 2.913671,169.550873 
	C2.840680,170.107941 1.662639,170.520203 0.999998,171.000000 
z"/>
<path fill="#FFFFFF" opacity="1.000000" stroke="none" 
	d="
M0.999998,171.468658 
	C1.662639,170.520203 2.840680,170.107941 2.913671,169.550873 
	C5.894452,146.801727 14.446468,126.198097 27.010550,107.186554 
	C36.986286,92.091599 49.448967,79.474174 63.853184,68.374283 
	C81.874474,54.487061 102.182877,45.843094 123.978348,41.326668 
	C142.136887,37.563877 160.747437,37.792011 179.330063,40.846504 
	C205.279678,45.111942 227.893890,56.218235 248.489136,72.050079 
	C249.929886,73.157600 251.031250,74.698471 252.431122,75.869659 
	C253.788208,77.005051 255.326813,77.923500 256.849915,78.981850 
	C264.314148,73.401581 271.535370,67.342682 279.391418,62.266151 
	C296.156189,51.432873 314.418945,44.387516 334.200378,40.837563 
	C347.860321,38.386154 361.537567,38.395084 375.129944,39.231846 
	C389.597137,40.122459 403.642059,44.096985 417.132050,49.604984 
	C433.439270,56.263287 447.849762,65.750755 461.134064,77.403931 
	C475.173828,89.719795 486.253021,104.174393 494.920593,120.445305 
	C503.105865,135.810776 509.165375,152.061035 511.060394,169.591782 
	C511.136719,170.297531 511.855072,170.933868 512.637146,171.301270 
	C513.000000,185.354233 513.000000,199.708450 513.000000,214.531342 
	C512.336121,215.485718 511.216675,215.864395 511.073853,216.472519 
	C504.768951,243.310501 491.289551,266.492737 475.146698,288.465881 
	C458.125214,311.635071 438.722778,332.649872 417.944855,352.375671 
	C404.627533,365.018677 390.614716,376.952087 376.587952,388.818542 
	C362.407257,400.815155 348.067780,412.652588 333.349487,423.977020 
	C318.996033,435.020721 304.162689,445.450653 289.370605,455.910461 
	C280.831512,461.948639 271.981567,467.549957 263.223053,473.273743 
	C259.045135,476.004120 254.824524,476.099396 250.611267,473.137756 
	C226.042740,455.867645 201.132370,439.061523 176.987091,421.219513 
	C161.268158,409.604065 146.524231,396.647095 131.587936,384.002350 
	C121.678696,375.613434 112.073860,366.851318 102.566902,358.004669 
	C92.976768,349.080627 83.251099,340.241302 74.334435,330.666748 
	C54.366238,309.225189 35.477036,286.905853 20.966177,261.207397 
	C12.776770,246.704117 6.309132,231.595840 2.670973,215.314682 
	C2.635854,215.157501 2.112840,215.109344 1.408801,215.005157 
	C1.000000,200.645767 1.000000,186.291550 0.999998,171.468658 
M50.524906,110.979485 
	C46.351830,117.298622 41.716408,123.365593 38.103333,129.990158 
	C30.904984,143.188293 26.317429,157.255997 23.740904,172.210770 
	C21.470325,185.389771 20.990711,198.474106 23.368876,211.390869 
	C26.085907,226.148193 32.825306,239.658035 40.306107,252.562225 
	C54.355812,276.797577 72.639771,297.899628 91.853691,318.028839 
	C105.969841,332.817383 121.274994,346.538208 136.693115,359.998474 
	C153.145584,374.361725 169.986557,388.338776 187.324173,401.614349 
	C209.152161,418.328125 231.665878,434.145691 253.852219,450.392975 
	C256.140045,452.068451 258.015228,451.948151 260.294312,450.273743 
	C267.329468,445.105042 274.577820,440.225830 281.596497,435.035553 
	C300.991150,420.693481 320.768005,406.817749 339.540344,391.698059 
	C360.940491,374.461853 382.120239,356.823456 402.077911,337.965149 
	C418.333954,322.604553 432.874481,305.389801 447.758972,288.627167 
	C462.519989,272.003510 474.425507,253.403931 483.431488,233.044510 
	C488.493652,221.600662 492.387634,209.795380 491.980011,197.035461 
	C491.759033,190.119629 491.680786,183.172104 490.925507,176.306274 
	C489.491974,163.274429 485.865387,150.753204 480.349884,138.875214 
	C472.212799,121.351532 461.836700,105.327080 446.531830,93.150986 
	C438.575348,86.821037 430.463196,80.468399 421.660065,75.465508 
	C401.957123,64.268120 380.587189,58.793270 357.776184,60.043804 
	C350.768555,60.427971 343.592468,60.528484 336.842255,62.182259 
	C325.993805,64.840073 314.947632,67.623589 304.867920,72.269539 
	C289.426666,79.386734 275.963776,89.749695 264.201263,102.201736 
	C260.264435,106.369347 253.959000,106.151970 249.750946,102.237930 
	C245.282013,98.081245 241.184738,93.383278 236.225250,89.925629 
	C226.337997,83.032433 216.475449,75.755699 205.649963,70.662285 
	C196.356796,66.289818 185.824097,64.358040 175.683716,62.023853 
	C158.963928,58.175175 142.215652,59.243767 125.526405,62.811020 
	C107.617867,66.638893 91.187477,74.018990 76.914085,85.221313 
	C67.486237,92.620659 59.562599,101.936562 50.524906,110.979485 
z"/>
<path fill="#000000" opacity="1.000000" stroke="none" 
	d="
M50.745193,110.686935 
	C59.562599,101.936562 67.486237,92.620659 76.914085,85.221313 
	C91.187477,74.018990 107.617867,66.638893 125.526405,62.811020 
	C142.215652,59.243767 158.963928,58.175175 175.683716,62.023853 
	C185.824097,64.358040 196.356796,66.289818 205.649963,70.662285 
	C216.475449,75.755699 226.337997,83.032433 236.225250,89.925629 
	C241.184738,93.383278 245.282013,98.081245 249.750946,102.237930 
	C253.959000,106.151970 260.264435,106.369347 264.201263,102.201736 
	C275.963776,89.749695 289.426666,79.386734 304.867920,72.269539 
	C314.947632,67.623589 325.993805,64.840073 336.842255,62.182259 
	C343.592468,60.528484 350.768555,60.427971 357.776184,60.043804 
	C380.587189,58.793270 401.957123,64.268120 421.660065,75.465508 
	C430.463196,80.468399 438.575348,86.821037 446.531830,93.150986 
	C461.836700,105.327080 472.212799,121.351532 480.349884,138.875214 
	C485.865387,150.753204 489.491974,163.274429 490.925507,176.306274 
	C491.680786,183.172104 491.759033,190.119629 491.980011,197.035461 
	C492.387634,209.795380 488.493652,221.600662 483.431488,233.044510 
	C474.425507,253.403931 462.519989,272.003510 447.758972,288.627167 
	C432.874481,305.389801 418.333954,322.604553 402.077911,337.965149 
	C382.120239,356.823456 360.940491,374.461853 339.540344,391.698059 
	C320.768005,406.817749 300.991150,420.693481 281.596497,435.035553 
	C274.577820,440.225830 267.329468,445.105042 260.294312,450.273743 
	C258.015228,451.948151 256.140045,452.068451 253.852219,450.392975 
	C231.665878,434.145691 209.152161,418.328125 187.324173,401.614349 
	C169.986557,388.338776 153.145584,374.361725 136.693115,359.998474 
	C121.274994,346.538208 105.969841,332.817383 91.853691,318.028839 
	C72.639771,297.899628 54.355812,276.797577 40.306107,252.562225 
	C32.825306,239.658035 26.085907,226.148193 23.368876,211.390869 
	C20.990711,198.474106 21.470325,185.389771 23.740904,172.210770 
	C26.317429,157.255997 30.904984,143.188293 38.103333,129.990158 
	C41.716408,123.365593 46.351830,117.298622 50.745193,110.686935 
M444.037567,137.426651 
	C439.806793,131.898468 436.148956,125.786316 431.229553,120.960068 
	C419.946472,109.890617 407.127930,101.063560 391.519165,96.838928 
	C383.761902,94.739372 378.018250,98.506592 378.000000,106.342865 
	C377.985046,112.760124 380.206970,115.512245 388.076874,117.949356 
	C399.017456,121.337387 408.181427,127.764832 415.843475,135.815125 
	C431.037781,151.779343 438.603516,171.171188 439.022430,193.291138 
	C439.111084,197.970093 442.994110,201.747681 448.458588,202.819626 
	C451.966003,203.507645 458.257599,200.237427 458.662628,196.395111 
	C459.371796,189.667267 459.880219,182.659973 458.776001,176.053345 
	C456.519043,162.549500 452.110077,149.624237 444.037567,137.426651 
M358.089905,97.636353 
	C355.559296,94.149529 351.696564,92.964584 348.106659,94.216866 
	C345.066956,95.277222 342.095306,97.784073 340.148285,100.427635 
	C337.335449,104.246773 339.088806,108.718750 342.138550,111.239334 
	C344.632294,113.300400 348.996735,114.875946 351.988495,114.213394 
	C360.024292,112.433792 361.920227,107.882210 358.089905,97.636353 
z"/>
<path fill="#FFFFFF" opacity="1.000000" stroke="none" 
	d="
M444.275696,137.718567 
	C452.110077,149.624237 456.519043,162.549500 458.776001,176.053345 
	C459.880219,182.659973 459.371796,189.667267 458.662628,196.395111 
	C458.257599,200.237427 451.966003,203.507645 448.458588,202.819626 
	C442.994110,201.747681 439.111084,197.970093 439.022430,193.291138 
	C438.603516,171.171188 431.037781,151.779343 415.843475,135.815125 
	C408.181427,127.764832 399.017456,121.337387 388.076874,117.949356 
	C380.206970,115.512245 377.985046,112.760124 378.000000,106.342865 
	C378.018250,98.506592 383.761902,94.739372 391.519165,96.838928 
	C407.127930,101.063560 419.946472,109.890617 431.229553,120.960068 
	C436.148956,125.786316 439.806793,131.898468 444.275696,137.718567 
z"/>
<path fill="#FFFFFF" opacity="1.000000" stroke="none" 
	d="
M358.396545,97.904007 
	C361.920227,107.882210 360.024292,112.433792 351.988495,114.213394 
	C348.996735,114.875946 344.632294,113.300400 342.138550,111.239334 
	C339.088806,108.718750 337.335449,104.246773 340.148285,100.427635 
	C342.095306,97.784073 345.066956,95.277222 348.106659,94.216866 
	C351.696564,92.964584 355.559296,94.149529 358.396545,97.904007 
z"/>
</svg>