<svg version="1.1" id="Layer_1" xmlns="http://www.w3.org/2000/svg" xmlns:xlink="http://www.w3.org/1999/xlink" x="0px" y="0px"
	 width="100%" viewBox="0 0 512 512" enable-background="new 0 0 512 512" xml:space="preserve">
<path fill="#333333" opacity="1.000000" stroke="none" 
	d="
M229.000000,1.000000 
	C323.611664,1.000000 418.223297,1.000000 513.000000,1.000000 
	C513.000000,154.022598 513.000000,307.045258 512.670959,460.829468 
	C507.767273,448.563873 497.477905,439.996613 488.167999,430.679718 
	C449.529144,392.011963 410.867279,353.367188 372.218781,314.709076 
	C371.066376,313.556366 369.968231,312.349396 369.549103,311.908539 
	C376.080444,298.181702 382.788513,285.199219 388.503418,271.793365 
	C395.835815,254.593292 399.460510,236.276932 400.761627,217.752991 
	C401.662750,204.923447 401.144592,191.850494 399.772675,179.045715 
	C398.419128,166.411926 396.251556,153.656326 392.555969,141.528595 
	C386.064056,120.224297 375.944489,100.443069 362.748230,82.409798 
	C352.703064,68.682663 341.188446,56.159321 327.900970,45.580456 
	C310.958405,32.091553 292.579132,20.598434 271.951385,13.675126 
	C258.597656,9.193214 244.639221,6.517898 230.976761,2.937710 
	C230.201813,2.734637 229.653687,1.665861 229.000000,1.000000 
z"/>
<path fill="#333333" opacity="1.000000" stroke="none" 
	d="
M461.000000,513.000000 
	C307.755737,513.000000 154.511475,513.000000 1.000000,513.000000 
	C1.000000,418.644196 1.000000,324.288116 1.364148,229.164658 
	C2.146631,229.066833 2.862231,229.703781 2.939808,230.410751 
	C4.852574,247.842026 10.043976,264.414703 16.950031,280.374451 
	C30.301575,311.229614 50.193138,337.210815 76.610748,358.138245 
	C97.166260,374.421753 119.977272,386.502747 145.207703,393.424286 
	C158.091705,396.958801 171.429657,399.830963 184.710800,400.679016 
	C202.082291,401.788300 219.572357,401.528137 236.951859,398.176666 
	C253.320099,395.020203 269.107758,390.434967 284.115570,383.323242 
	C293.372101,378.936798 302.308990,373.875732 311.623627,368.994812 
	C312.702271,370.111298 313.836700,371.321136 315.008667,372.493439 
	C357.306152,414.801300 399.595459,457.117401 441.922516,499.395630 
	C447.217682,504.684692 452.861328,509.527618 460.503723,511.214630 
	C460.786743,511.277100 460.839783,512.381287 461.000000,513.000000 
z"/>
<path fill="#FFFFFF" opacity="1.000000" stroke="none" 
	d="
M461.468628,513.000000 
	C460.839783,512.381287 460.786743,511.277100 460.503723,511.214630 
	C452.861328,509.527618 447.217682,504.684692 441.922516,499.395630 
	C399.595459,457.117401 357.306152,414.801300 315.008667,372.493439 
	C313.836700,371.321136 312.702271,370.111298 311.623627,368.994812 
	C302.308990,373.875732 293.372101,378.936798 284.115570,383.323242 
	C269.107758,390.434967 253.320099,395.020203 236.951859,398.176666 
	C219.572357,401.528137 202.082291,401.788300 184.710800,400.679016 
	C171.429657,399.830963 158.091705,396.958801 145.207703,393.424286 
	C119.977272,386.502747 97.166260,374.421753 76.610748,358.138245 
	C50.193138,337.210815 30.301575,311.229614 16.950031,280.374451 
	C10.043976,264.414703 4.852574,247.842026 2.939808,230.410751 
	C2.862231,229.703781 2.146631,229.066833 1.364148,228.698624 
	C1.000000,210.645767 1.000000,192.291550 1.364147,173.770035 
	C2.151325,172.766983 2.775214,171.974609 2.966626,171.088806 
	C5.109526,161.172043 6.329233,150.961639 9.455820,141.370911 
	C16.252760,120.521477 25.869846,100.989525 38.902107,83.150047 
	C49.146061,69.127411 60.710022,56.343987 74.168472,45.542828 
	C91.043076,32.000011 109.465240,20.579578 130.074356,13.655940 
	C143.417709,9.173233 157.370956,6.511025 171.025955,2.937641 
	C171.799988,2.735088 172.347214,1.665861 173.000000,1.000001 
	C191.354233,1.000000 209.708450,1.000000 228.531342,1.000000 
	C229.653687,1.665861 230.201813,2.734637 230.976761,2.937710 
	C244.639221,6.517898 258.597656,9.193214 271.951385,13.675126 
	C292.579132,20.598434 310.958405,32.091553 327.900970,45.580456 
	C341.188446,56.159321 352.703064,68.682663 362.748230,82.409798 
	C375.944489,100.443069 386.064056,120.224297 392.555969,141.528595 
	C396.251556,153.656326 398.419128,166.411926 399.772675,179.045715 
	C401.144592,191.850494 401.662750,204.923447 400.761627,217.752991 
	C399.460510,236.276932 395.835815,254.593292 388.503418,271.793365 
	C382.788513,285.199219 376.080444,298.181702 369.549103,311.908539 
	C369.968231,312.349396 371.066376,313.556366 372.218781,314.709076 
	C410.867279,353.367188 449.529144,392.011963 488.167999,430.679718 
	C497.477905,439.996613 507.767273,448.563873 512.670959,461.295471 
	C513.000000,468.687592 513.000000,476.375153 512.670959,484.235901 
	C512.079956,484.613800 511.665863,484.767578 511.577728,485.030579 
	C507.208893,498.069733 498.955658,507.205139 485.499725,511.210419 
	C485.183594,511.304504 485.160034,512.381470 485.000000,513.000000 
	C477.312408,513.000000 469.624847,513.000000 461.468628,513.000000 
M37.965504,274.700409 
	C40.525784,279.862946 42.839226,285.166321 45.690254,290.162964 
	C56.471260,309.057617 70.172142,325.659027 87.032555,339.344177 
	C100.300148,350.113129 114.682793,359.355560 130.603378,365.951355 
	C143.700424,371.377319 157.123428,376.104065 171.156204,377.786407 
	C184.862991,379.429657 198.804489,380.165466 212.593811,379.733032 
	C223.357788,379.395477 234.189514,377.278534 244.736694,374.848145 
	C262.674622,370.714783 279.406921,363.403961 295.011658,353.529297 
	C312.682587,342.347137 328.223419,328.913910 341.229095,312.416626 
	C352.701019,297.864807 361.822693,282.111633 368.604858,264.905487 
	C374.681305,249.489670 378.710480,233.435638 379.682953,217.063507 
	C380.518402,202.997803 380.602814,188.807755 378.296448,174.565094 
	C375.356354,156.408722 370.227478,139.140106 362.202454,122.770821 
	C351.811096,101.574722 337.889984,82.997444 320.000885,67.330070 
	C308.834625,57.550606 297.000946,48.837757 283.873840,42.084911 
	C266.064117,32.923233 247.311310,26.718220 227.292892,23.773237 
	C207.997894,20.934673 188.821487,20.973965 169.852203,24.261332 
	C149.381500,27.808886 129.921310,34.906666 111.860176,45.552185 
	C93.117172,56.599625 76.409859,70.117599 62.718407,86.968529 
	C50.504147,102.001396 40.575130,118.510078 33.569336,136.753525 
	C27.629070,152.222275 23.444786,168.210266 22.337904,184.543549 
	C21.374624,198.757797 21.247652,213.146301 23.743031,227.534683 
	C26.542341,243.675537 30.634790,259.215546 37.965504,274.700409 
M394.477814,375.014984 
	C386.666962,382.799438 378.856110,390.583862 370.897186,398.515900 
	C400.303070,427.887787 429.589630,457.220978 458.991547,486.438141 
	C464.643707,492.054810 474.140106,493.709503 480.190094,490.979431 
	C493.612640,484.922363 496.331238,468.841980 485.857605,458.367432 
	C456.769012,429.276306 427.675537,400.190033 398.272095,370.789978 
	C397.160126,372.052795 396.073608,373.286713 394.477814,375.014984 
M355.642212,382.964508 
	C364.973267,374.121368 374.304291,365.278229 382.942352,357.091827 
	C373.298126,347.415070 364.322723,338.409332 356.821167,330.882416 
	C348.080872,339.417755 338.970123,348.314850 329.697632,357.369904 
	C337.609772,365.232788 346.329071,373.897797 355.642212,382.964508 
z"/>
<path fill="#333333" opacity="1.000000" stroke="none" 
	d="
M172.531342,1.000001 
	C172.347214,1.665861 171.799988,2.735088 171.025955,2.937641 
	C157.370956,6.511025 143.417709,9.173233 130.074356,13.655940 
	C109.465240,20.579578 91.043076,32.000011 74.168472,45.542828 
	C60.710022,56.343987 49.146061,69.127411 38.902107,83.150047 
	C25.869846,100.989525 16.252760,120.521477 9.455820,141.370911 
	C6.329233,150.961639 5.109526,161.172043 2.966626,171.088806 
	C2.775214,171.974609 2.151325,172.766983 1.364147,173.301376 
	C1.000000,115.739647 1.000000,58.479294 1.000000,1.000000 
	C58.020706,1.000000 115.041695,1.000000 172.531342,1.000001 
z"/>
<path fill="#333333" opacity="1.000000" stroke="none" 
	d="
M485.468658,513.000000 
	C485.160034,512.381470 485.183594,511.304504 485.499725,511.210419 
	C498.955658,507.205139 507.208893,498.069733 511.577728,485.030579 
	C511.665863,484.767578 512.079956,484.613800 512.670959,484.704529 
	C513.000000,494.259796 513.000000,503.519562 513.000000,513.000000 
	C503.980316,513.000000 494.958801,513.000000 485.468658,513.000000 
z"/>
<path fill="#333333" opacity="1.000000" stroke="none" 
	d="
M37.755302,274.366394 
	C30.634790,259.215546 26.542341,243.675537 23.743031,227.534683 
	C21.247652,213.146301 21.374624,198.757797 22.337904,184.543549 
	C23.444786,168.210266 27.629070,152.222275 33.569336,136.753525 
	C40.575130,118.510078 50.504147,102.001396 62.718407,86.968529 
	C76.409859,70.117599 93.117172,56.599625 111.860176,45.552185 
	C129.921310,34.906666 149.381500,27.808886 169.852203,24.261332 
	C188.821487,20.973965 207.997894,20.934673 227.292892,23.773237 
	C247.311310,26.718220 266.064117,32.923233 283.873840,42.084911 
	C297.000946,48.837757 308.834625,57.550606 320.000885,67.330070 
	C337.889984,82.997444 351.811096,101.574722 362.202454,122.770821 
	C370.227478,139.140106 375.356354,156.408722 378.296448,174.565094 
	C380.602814,188.807755 380.518402,202.997803 379.682953,217.063507 
	C378.710480,233.435638 374.681305,249.489670 368.604858,264.905487 
	C361.822693,282.111633 352.701019,297.864807 341.229095,312.416626 
	C328.223419,328.913910 312.682587,342.347137 295.011658,353.529297 
	C279.406921,363.403961 262.674622,370.714783 244.736694,374.848145 
	C234.189514,377.278534 223.357788,379.395477 212.593811,379.733032 
	C198.804489,380.165466 184.862991,379.429657 171.156204,377.786407 
	C157.123428,376.104065 143.700424,371.377319 130.603378,365.951355 
	C114.682793,359.355560 100.300148,350.113129 87.032555,339.344177 
	C70.172142,325.659027 56.471260,309.057617 45.690254,290.162964 
	C42.839226,285.166321 40.525784,279.862946 37.755302,274.366394 
M361.000000,189.612854 
	C358.810333,177.702423 357.608612,165.503616 354.232910,153.939407 
	C346.297760,126.755913 331.578827,103.567093 310.777405,84.133171 
	C296.397766,70.698891 280.326080,60.169186 262.203888,52.640137 
	C247.521774,46.540302 232.182358,42.531643 216.456528,41.255638 
	C204.649094,40.297577 192.620255,41.225864 180.748566,42.105247 
	C164.217041,43.329800 148.466141,48.325249 133.587906,55.280796 
	C109.567116,66.510460 89.559944,82.837944 73.246468,104.032295 
	C54.690235,128.140411 44.421898,155.436630 41.320248,185.187378 
	C39.641598,201.288879 40.301144,217.730591 43.925842,233.871140 
	C51.271694,266.581726 66.476799,294.647858 91.066124,317.687225 
	C105.305931,331.029419 121.199493,341.503510 139.158310,349.060181 
	C153.979080,355.296448 169.441833,359.608246 185.306900,360.679565 
	C199.031815,361.606384 212.921341,361.730103 226.806870,359.244904 
	C241.345993,356.642639 255.367905,352.715424 268.643219,346.598175 
	C291.548218,336.043640 310.898132,320.664429 326.605896,300.864410 
	C336.772736,288.048859 344.978577,274.097290 350.728638,258.716095 
	C358.164825,238.824356 362.053253,218.377914 361.014130,197.085587 
	C360.908661,194.924362 361.000000,192.753540 361.000000,189.612854 
z"/>
<path fill="#333333" opacity="1.000000" stroke="none" 
	d="
M394.732422,374.767822 
	C396.073608,373.286713 397.160126,372.052795 398.272095,370.789978 
	C427.675537,400.190033 456.769012,429.276306 485.857605,458.367432 
	C496.331238,468.841980 493.612640,484.922363 480.190094,490.979431 
	C474.140106,493.709503 464.643707,492.054810 458.991547,486.438141 
	C429.589630,457.220978 400.303070,427.887787 370.897186,398.515900 
	C378.856110,390.583862 386.666962,382.799438 394.732422,374.767822 
z"/>
<path fill="#333333" opacity="1.000000" stroke="none" 
	d="
M355.345276,382.763672 
	C346.329071,373.897797 337.609772,365.232788 329.697632,357.369904 
	C338.970123,348.314850 348.080872,339.417755 356.821167,330.882416 
	C364.322723,338.409332 373.298126,347.415070 382.942352,357.091827 
	C374.304291,365.278229 364.973267,374.121368 355.345276,382.763672 
z"/>
<path fill="#FFFFFF" opacity="1.000000" stroke="none" 
	d="
M361.000000,190.100006 
	C361.000000,192.753540 360.908661,194.924362 361.014130,197.085587 
	C362.053253,218.377914 358.164825,238.824356 350.728638,258.716095 
	C344.978577,274.097290 336.772736,288.048859 326.605896,300.864410 
	C310.898132,320.664429 291.548218,336.043640 268.643219,346.598175 
	C255.367905,352.715424 241.345993,356.642639 226.806870,359.244904 
	C212.921341,361.730103 199.031815,361.606384 185.306900,360.679565 
	C169.441833,359.608246 153.979080,355.296448 139.158310,349.060181 
	C121.199493,341.503510 105.305931,331.029419 91.066124,317.687225 
	C66.476799,294.647858 51.271694,266.581726 43.925842,233.871140 
	C40.301144,217.730591 39.641598,201.288879 41.320248,185.187378 
	C44.421898,155.436630 54.690235,128.140411 73.246468,104.032295 
	C89.559944,82.837944 109.567116,66.510460 133.587906,55.280796 
	C148.466141,48.325249 164.217041,43.329800 180.748566,42.105247 
	C192.620255,41.225864 204.649094,40.297577 216.456528,41.255638 
	C232.182358,42.531643 247.521774,46.540302 262.203888,52.640137 
	C280.326080,60.169186 296.397766,70.698891 310.777405,84.133171 
	C331.578827,103.567093 346.297760,126.755913 354.232910,153.939407 
	C357.608612,165.503616 358.810333,177.702423 361.000000,190.100006 
M137.006363,77.490814 
	C128.261856,83.236259 118.808800,88.157364 110.939720,94.921257 
	C99.271248,104.950920 89.159233,116.508476 81.242439,130.040665 
	C70.722206,148.022949 64.015114,167.240005 62.255432,187.766830 
	C60.899929,203.578918 61.683403,219.519424 65.889030,235.183975 
	C71.455696,255.917984 80.799263,274.688385 94.643524,290.883484 
	C104.860245,302.835052 116.692863,313.233276 130.564133,321.170380 
	C148.444794,331.401642 167.551529,338.096069 187.946350,339.762909 
	C203.606766,341.042847 219.347977,340.208832 234.865753,336.112823 
	C268.261444,327.297821 295.012299,308.956787 314.890717,280.950836 
	C327.016418,263.867310 334.874969,244.887207 338.222626,223.896683 
	C340.928009,206.933411 340.822815,190.177170 337.660034,173.500061 
	C334.619904,157.469650 328.422791,142.454697 319.866333,128.527512 
	C306.968231,107.533737 289.756317,90.902061 268.137604,79.075218 
	C254.249695,71.477623 239.676559,65.362259 223.686676,64.009880 
	C211.396912,62.970455 198.928345,61.280285 186.751633,62.333870 
	C169.592636,63.818558 153.002136,68.787666 137.006363,77.490814 
z"/>
<path fill="#333333" opacity="1.000000" stroke="none" 
	d="
M137.317062,77.262344 
	C153.002136,68.787666 169.592636,63.818558 186.751633,62.333870 
	C198.928345,61.280285 211.396912,62.970455 223.686676,64.009880 
	C239.676559,65.362259 254.249695,71.477623 268.137604,79.075218 
	C289.756317,90.902061 306.968231,107.533737 319.866333,128.527512 
	C328.422791,142.454697 334.619904,157.469650 337.660034,173.500061 
	C340.822815,190.177170 340.928009,206.933411 338.222626,223.896683 
	C334.874969,244.887207 327.016418,263.867310 314.890717,280.950836 
	C295.012299,308.956787 268.261444,327.297821 234.865753,336.112823 
	C219.347977,340.208832 203.606766,341.042847 187.946350,339.762909 
	C167.551529,338.096069 148.444794,331.401642 130.564133,321.170380 
	C116.692863,313.233276 104.860245,302.835052 94.643524,290.883484 
	C80.799263,274.688385 71.455696,255.917984 65.889030,235.183975 
	C61.683403,219.519424 60.899929,203.578918 62.255432,187.766830 
	C64.015114,167.240005 70.722206,148.022949 81.242439,130.040665 
	C89.159233,116.508476 99.271248,104.950920 110.939720,94.921257 
	C118.808800,88.157364 128.261856,83.236259 137.317062,77.262344 
M214.672668,102.952850 
	C216.004913,102.973587 217.380524,102.783234 218.662903,103.046684 
	C238.225220,107.065727 255.543182,115.684174 269.898590,129.548645 
	C280.228607,139.525406 288.461670,151.125061 293.420929,164.851410 
	C295.431183,170.415466 302.845245,173.998428 307.509430,171.773773 
	C313.395477,168.966354 315.142120,162.537018 313.232849,157.565094 
	C308.386627,144.945206 301.577118,133.697998 292.961731,123.234818 
	C282.181427,110.142372 269.129059,100.109604 254.126434,92.786049 
	C237.188004,84.517532 219.199570,79.951157 200.089188,80.967278 
	C195.309280,81.221436 191.361328,84.234474 190.997971,88.358521 
	C190.268158,96.641891 192.550217,99.754898 198.833023,100.911972 
	C203.790344,101.824944 208.894012,101.943214 214.672668,102.952850 
M320.159271,206.276901 
	C320.439514,204.219955 320.678894,202.156448 321.008575,200.107452 
	C321.691864,195.860443 319.055634,192.847504 315.919128,191.786667 
	C312.840393,190.745377 308.734253,190.995239 305.631714,192.155914 
	C300.158417,194.203506 300.135620,199.660049 301.257812,204.154633 
	C301.908417,206.760315 304.782837,210.120468 307.222198,210.681519 
	C311.537384,211.674011 316.741089,212.191345 320.159271,206.276901 
z"/>
<path fill="#FFFFFF" opacity="1.000000" stroke="none" 
	d="
M214.302673,102.683647 
	C208.894012,101.943214 203.790344,101.824944 198.833023,100.911972 
	C192.550217,99.754898 190.268158,96.641891 190.997971,88.358521 
	C191.361328,84.234474 195.309280,81.221436 200.089188,80.967278 
	C219.199570,79.951157 237.188004,84.517532 254.126434,92.786049 
	C269.129059,100.109604 282.181427,110.142372 292.961731,123.234818 
	C301.577118,133.697998 308.386627,144.945206 313.232849,157.565094 
	C315.142120,162.537018 313.395477,168.966354 307.509430,171.773773 
	C302.845245,173.998428 295.431183,170.415466 293.420929,164.851410 
	C288.461670,151.125061 280.228607,139.525406 269.898590,129.548645 
	C255.543182,115.684174 238.225220,107.065727 218.662903,103.046684 
	C217.380524,102.783234 216.004913,102.973587 214.302673,102.683647 
z"/>
<path fill="#FFFFFF" opacity="1.000000" stroke="none" 
	d="
M319.890747,206.599838 
	C316.741089,212.191345 311.537384,211.674011 307.222198,210.681519 
	C304.782837,210.120468 301.908417,206.760315 301.257812,204.154633 
	C300.135620,199.660049 300.158417,194.203506 305.631714,192.155914 
	C308.734253,190.995239 312.840393,190.745377 315.919128,191.786667 
	C319.055634,192.847504 321.691864,195.860443 321.008575,200.107452 
	C320.678894,202.156448 320.439514,204.219955 319.890747,206.599838 
z"/>
</svg>