<svg version="1.1" id="Layer_1" xmlns="http://www.w3.org/2000/svg" xmlns:xlink="http://www.w3.org/1999/xlink" x="0px" y="0px"
	 width="100%" viewBox="0 0 512 512" enable-background="new 0 0 512 512" xml:space="preserve">
<path fill="#000000" opacity="1.000000" stroke="none" 
	d="
M0.999998,242.000000 
	C1.000000,196.312439 1.000000,150.624878 1.333564,104.172638 
	C1.927533,103.614418 2.355814,103.776260 2.424216,104.033722 
	C5.570528,115.876251 11.797543,125.782539 21.177530,133.650574 
	C30.705029,141.642349 41.540867,146.926102 54.128040,146.935745 
	C189.007233,147.039001 323.886536,147.007004 458.765778,146.957916 
	C461.999542,146.956741 465.345642,146.751678 468.448578,145.925323 
	C489.960968,140.196365 504.506226,127.029778 511.065552,105.466087 
	C511.256226,104.839256 512.335205,104.482628 513.000000,104.000015 
	C513.000000,149.687561 513.000000,195.375122 512.666504,241.827362 
	C511.963837,242.259232 511.350281,241.981415 511.261200,241.585556 
	C508.747253,230.413162 502.703918,221.401093 494.318024,213.830765 
	C484.128204,204.631943 472.310791,199.050812 458.445801,199.043320 
	C324.850800,198.971039 191.255707,198.992630 57.660664,199.041702 
	C54.254971,199.042953 50.782528,199.346146 47.454731,200.047302 
	C24.739685,204.833267 9.968887,218.428436 2.935876,240.532272 
	C2.735195,241.162979 1.664840,241.516968 0.999998,242.000000 
z"/>
<path fill="#000000" opacity="1.000000" stroke="none" 
	d="
M1.000002,410.000000 
	C1.000000,364.312439 1.000000,318.624878 1.333565,272.172668 
	C2.036221,271.740814 2.649742,272.018646 2.738810,272.414429 
	C5.252824,283.586823 11.296097,292.598907 19.681997,300.169250 
	C29.871855,309.368073 41.689301,314.949188 55.554295,314.956696 
	C189.149261,315.028961 322.744293,315.007385 456.339264,314.958313 
	C459.744965,314.957062 463.217407,314.653839 466.545197,313.952698 
	C489.260254,309.166779 504.031006,295.571594 511.064117,273.467804 
	C511.264771,272.837097 512.335144,272.483063 513.000000,272.000000 
	C513.000000,317.687561 513.000000,363.375122 512.666443,409.827332 
	C512.072449,410.385559 511.644257,410.223724 511.575806,409.966309 
	C508.429474,398.123840 502.202515,388.217499 492.822540,380.349457 
	C483.295044,372.357666 472.459167,367.073914 459.871979,367.064270 
	C324.992798,366.960999 190.113510,366.992981 55.234264,367.042084 
	C52.000515,367.043274 48.654404,367.248291 45.551483,368.074615 
	C24.039078,373.803589 9.493924,386.970215 2.934523,408.533905 
	C2.743837,409.160767 1.664821,409.517365 1.000002,410.000000 
z"/>
<path fill="#FFFFFF" opacity="1.000000" stroke="none" 
	d="
M513.000000,271.531372 
	C512.335144,272.483063 511.264771,272.837097 511.064117,273.467804 
	C504.031006,295.571594 489.260254,309.166779 466.545197,313.952698 
	C463.217407,314.653839 459.744965,314.957062 456.339264,314.958313 
	C322.744293,315.007385 189.149261,315.028961 55.554295,314.956696 
	C41.689301,314.949188 29.871855,309.368073 19.681997,300.169250 
	C11.296097,292.598907 5.252824,283.586823 2.738810,272.414429 
	C2.649742,272.018646 2.036221,271.740814 1.333565,271.704010 
	C1.000000,262.312439 1.000000,252.624878 0.999998,242.468658 
	C1.664840,241.516968 2.735195,241.162979 2.935876,240.532272 
	C9.968887,218.428436 24.739685,204.833267 47.454731,200.047302 
	C50.782528,199.346146 54.254971,199.042953 57.660664,199.041702 
	C191.255707,198.992630 324.850800,198.971039 458.445801,199.043320 
	C472.310791,199.050812 484.128204,204.631943 494.318024,213.830765 
	C502.703918,221.401093 508.747253,230.413162 511.261200,241.585556 
	C511.350281,241.981415 511.963837,242.259232 512.666504,242.296021 
	C513.000000,251.687561 513.000000,261.375122 513.000000,271.531372 
M33.594704,283.964966 
	C43.592117,292.602722 55.486927,294.106476 68.192528,294.091309 
	C194.479309,293.940643 320.766357,294.011230 447.053284,293.957733 
	C451.960083,293.955658 456.925995,293.704590 461.762573,292.932312 
	C478.892548,290.197083 491.188507,275.455780 491.880127,258.805237 
	C492.789185,236.920670 475.768433,220.010162 453.172791,220.007492 
	C323.220520,219.992096 193.268219,220.017380 63.315952,219.973953 
	C49.829277,219.969437 37.955654,223.606735 29.729286,234.887985 
	C23.560551,243.347565 20.461285,252.634537 22.774704,263.559052 
	C24.421564,271.335938 28.437941,277.461884 33.594704,283.964966 
z"/>
<path fill="#FFFFFF" opacity="1.000000" stroke="none" 
	d="
M513.000000,103.531357 
	C512.335205,104.482628 511.256226,104.839256 511.065552,105.466087 
	C504.506226,127.029778 489.960968,140.196365 468.448578,145.925323 
	C465.345642,146.751678 461.999542,146.956741 458.765778,146.957916 
	C323.886536,147.007004 189.007233,147.039001 54.128040,146.935745 
	C41.540867,146.926102 30.705029,141.642349 21.177530,133.650574 
	C11.797543,125.782539 5.570528,115.876251 2.424216,104.033722 
	C2.355814,103.776260 1.927533,103.614418 1.333564,103.703979 
	C1.000000,94.312439 1.000000,84.624878 1.328545,74.763420 
	C4.216640,69.129700 6.232118,63.324913 9.435143,58.273071 
	C20.138763,41.391216 35.706753,31.232187 55.696030,31.180283 
	C189.358948,30.833216 323.023224,30.966087 456.686890,31.119272 
	C462.253784,31.125650 468.061737,32.162083 473.340271,33.950150 
	C491.375763,40.059551 504.208557,51.730846 510.114197,70.314758 
	C510.557007,71.708145 512.014282,72.779144 513.000000,74.000000 
	C513.000000,83.687561 513.000000,93.375122 513.000000,103.531357 
M458.599854,52.996368 
	C456.185638,52.664246 453.771515,52.042412 451.357147,52.041519 
	C324.357574,51.994495 197.357971,51.988472 70.358383,52.042145 
	C65.277435,52.044292 60.200390,52.741211 55.115284,52.983517 
	C37.922096,53.802765 24.081902,68.300850 22.198469,84.718086 
	C19.727512,106.256538 35.820385,125.827545 58.190590,125.871635 
	C190.356339,126.132149 322.522858,125.995003 454.689117,126.004578 
	C478.597961,126.006310 496.579742,103.508240 490.980072,80.617081 
	C487.312927,65.625900 473.347260,53.578598 458.599854,52.996368 
z"/>
<path fill="#FFFFFF" opacity="1.000000" stroke="none" 
	d="
M1.000002,410.468658 
	C1.664821,409.517365 2.743837,409.160767 2.934523,408.533905 
	C9.493924,386.970215 24.039078,373.803589 45.551483,368.074615 
	C48.654404,367.248291 52.000515,367.043274 55.234264,367.042084 
	C190.113510,366.992981 324.992798,366.960999 459.871979,367.064270 
	C472.459167,367.073914 483.295044,372.357666 492.822540,380.349457 
	C502.202515,388.217499 508.429474,398.123840 511.575806,409.966309 
	C511.644257,410.223724 512.072449,410.385559 512.666443,410.295990 
	C513.000000,419.687561 513.000000,429.375122 512.671448,439.236572 
	C509.783264,444.870392 507.767700,450.675232 504.564636,455.727142 
	C493.861023,472.609070 478.292877,482.767853 458.303680,482.819763 
	C324.640808,483.166840 190.976547,483.033905 57.312969,482.880707 
	C51.746105,482.874329 45.938148,481.837830 40.659649,480.049835 
	C22.624144,473.940430 9.791422,462.269104 3.885776,443.685242 
	C3.442980,442.291870 1.985678,441.220886 0.999989,440.000000 
	C1.000000,430.312439 1.000000,420.624878 1.000002,410.468658 
M41.452213,392.955872 
	C37.316101,396.462006 32.519081,399.437805 29.187429,403.589539 
	C23.070869,411.211609 20.273893,420.616974 22.258099,430.093414 
	C26.604551,450.851837 41.185211,461.893646 61.675774,461.918762 
	C191.961716,462.078430 322.247925,462.008759 452.534027,461.953827 
	C456.108673,461.952301 459.796387,461.707489 463.238770,460.824921 
	C482.756531,455.820679 495.926361,436.290649 490.999176,416.731476 
	C486.678741,399.580872 473.094849,388.228180 456.959900,388.187958 
	C323.675690,387.855713 190.390182,387.951569 57.105564,388.187378 
	C52.079224,388.196289 47.057762,390.960876 41.452213,392.955872 
z"/>
<path fill="#000000" opacity="1.000000" stroke="none" 
	d="
M513.000000,73.531342 
	C512.014282,72.779144 510.557007,71.708145 510.114197,70.314758 
	C504.208557,51.730846 491.375763,40.059551 473.340271,33.950150 
	C468.061737,32.162083 462.253784,31.125650 456.686890,31.119272 
	C323.023224,30.966087 189.358948,30.833216 55.696030,31.180283 
	C35.706753,31.232187 20.138763,41.391216 9.435143,58.273071 
	C6.232118,63.324913 4.216640,69.129700 1.328545,74.294762 
	C1.000000,49.682846 1.000000,25.365688 1.000003,1.051952 
	C171.666672,1.055371 342.333344,1.055371 513.000000,1.055371 
	C513.000000,25.094723 513.000000,49.078701 513.000000,73.531342 
z"/>
<path fill="#000000" opacity="1.000000" stroke="none" 
	d="
M0.999989,440.468689 
	C1.985678,441.220886 3.442980,442.291870 3.885776,443.685242 
	C9.791422,462.269104 22.624144,473.940430 40.659649,480.049835 
	C45.938148,481.837830 51.746105,482.874329 57.312969,482.880707 
	C190.976547,483.033905 324.640808,483.166840 458.303680,482.819763 
	C478.292877,482.767853 493.861023,472.609070 504.564636,455.727142 
	C507.767700,450.675232 509.783264,444.870392 512.671448,439.705261 
	C513.000000,464.317139 513.000000,488.634277 513.000000,512.948120 
	C342.333313,512.944824 171.666656,512.944824 1.000000,512.944824 
	C1.000000,488.905487 1.000000,464.921417 0.999989,440.468689 
z"/>
<path fill="#000000" opacity="1.000000" stroke="none" 
	d="
M33.303825,283.737671 
	C28.437941,277.461884 24.421564,271.335938 22.774704,263.559052 
	C20.461285,252.634537 23.560551,243.347565 29.729286,234.887985 
	C37.955654,223.606735 49.829277,219.969437 63.315952,219.973953 
	C193.268219,220.017380 323.220520,219.992096 453.172791,220.007492 
	C475.768433,220.010162 492.789185,236.920670 491.880127,258.805237 
	C491.188507,275.455780 478.892548,290.197083 461.762573,292.932312 
	C456.925995,293.704590 451.960083,293.955658 447.053284,293.957733 
	C320.766357,294.011230 194.479309,293.940643 68.192528,294.091309 
	C55.486927,294.106476 43.592117,292.602722 33.303825,283.737671 
z"/>
<path fill="#000000" opacity="1.000000" stroke="none" 
	d="
M459.052124,52.998047 
	C473.347260,53.578598 487.312927,65.625900 490.980072,80.617081 
	C496.579742,103.508240 478.597961,126.006310 454.689117,126.004578 
	C322.522858,125.995003 190.356339,126.132149 58.190590,125.871635 
	C35.820385,125.827545 19.727512,106.256538 22.198469,84.718086 
	C24.081902,68.300850 37.922096,53.802765 55.115284,52.983517 
	C60.200390,52.741211 65.277435,52.044292 70.358383,52.042145 
	C197.357971,51.988472 324.357574,51.994495 451.357147,52.041519 
	C453.771515,52.042412 456.185638,52.664246 459.052124,52.998047 
M50.926796,74.553192 
	C47.261242,83.442215 51.565239,89.998787 61.075317,89.999084 
	C119.399002,90.000908 177.722702,90.010406 236.046326,89.952667 
	C237.907410,89.950821 240.034195,89.700577 241.578629,88.789185 
	C246.229004,86.044937 247.580734,81.514435 245.994904,75.592552 
	C244.982651,71.812393 240.460419,69.009232 235.156387,69.008057 
	C176.999344,68.995209 118.841934,68.923882 60.686237,69.203537 
	C57.458164,69.219055 54.244267,72.180588 50.926796,74.553192 
M312.602020,73.080887 
	C310.078552,71.721123 307.627472,69.381363 305.017822,69.188705 
	C297.727295,68.650520 290.347412,68.634102 283.047638,69.105843 
	C276.001831,69.561180 272.730225,75.061653 273.091675,80.074455 
	C273.467773,85.290222 277.920898,90.799484 283.742310,90.151428 
	C289.830963,89.473640 296.053650,90.000252 302.217743,89.999947 
	C312.772125,89.999428 316.953125,83.693291 312.602020,73.080887 
z"/>
<path fill="#000000" opacity="1.000000" stroke="none" 
	d="
M41.743118,392.698608 
	C47.057762,390.960876 52.079224,388.196289 57.105564,388.187378 
	C190.390182,387.951569 323.675690,387.855713 456.959900,388.187958 
	C473.094849,388.228180 486.678741,399.580872 490.999176,416.731476 
	C495.926361,436.290649 482.756531,455.820679 463.238770,460.824921 
	C459.796387,461.707489 456.108673,461.952301 452.534027,461.953827 
	C322.247925,462.008759 191.961716,462.078430 61.675774,461.918762 
	C41.185211,461.893646 26.604551,450.851837 22.258099,430.093414 
	C20.273893,420.616974 23.070869,411.211609 29.187429,403.589539 
	C32.519081,399.437805 37.316101,396.462006 41.743118,392.698608 
z"/>
<path fill="#FFFFFF" opacity="1.000000" stroke="none" 
	d="
M50.975281,74.162033 
	C54.244267,72.180588 57.458164,69.219055 60.686237,69.203537 
	C118.841934,68.923882 176.999344,68.995209 235.156387,69.008057 
	C240.460419,69.009232 244.982651,71.812393 245.994904,75.592552 
	C247.580734,81.514435 246.229004,86.044937 241.578629,88.789185 
	C240.034195,89.700577 237.907410,89.950821 236.046326,89.952667 
	C177.722702,90.010406 119.399002,90.000908 61.075317,89.999084 
	C51.565239,89.998787 47.261242,83.442215 50.975281,74.162033 
z"/>
<path fill="#FFFFFF" opacity="1.000000" stroke="none" 
	d="
M312.789215,73.427109 
	C316.953125,83.693291 312.772125,89.999428 302.217743,89.999947 
	C296.053650,90.000252 289.830963,89.473640 283.742310,90.151428 
	C277.920898,90.799484 273.467773,85.290222 273.091675,80.074455 
	C272.730225,75.061653 276.001831,69.561180 283.047638,69.105843 
	C290.347412,68.634102 297.727295,68.650520 305.017822,69.188705 
	C307.627472,69.381363 310.078552,71.721123 312.789215,73.427109 
z"/>
</svg>