<svg version="1.1" id="Layer_1" xmlns="http://www.w3.org/2000/svg" xmlns:xlink="http://www.w3.org/1999/xlink" x="0px" y="0px"
	 width="100%" viewBox="0 0 512 512" enable-background="new 0 0 512 512" xml:space="preserve">
<path fill="#000000" opacity="1.000000" stroke="none" 
	d="
M1.000000,274.000000 
	C1.000000,183.099091 1.000000,92.198181 1.000000,1.000000 
	C43.687099,1.000000 86.374893,1.000000 129.828491,1.341151 
	C130.108932,2.107733 129.672028,2.825682 129.131027,2.915311 
	C118.742035,4.636492 109.859268,9.840844 100.962776,15.010392 
	C95.523239,18.171183 94.025642,28.187778 100.743164,32.363781 
	C106.234093,35.777264 110.879585,33.955349 115.606430,30.898048 
	C127.907837,22.941572 141.814148,19.629728 155.779648,22.364012 
	C172.764038,25.689356 189.125244,32.075230 203.422211,42.255939 
	C212.748489,48.897091 219.040390,58.254227 217.751144,70.124748 
	C216.754044,79.305450 213.599182,88.261795 211.280807,97.286331 
	C208.727646,107.224754 203.559372,115.968201 196.318710,122.898346 
	C185.071655,133.663071 170.723984,137.574753 155.452087,137.918274 
	C148.714478,138.069839 141.955841,137.353165 135.208664,136.994766 
	C127.520248,136.586380 120.735466,133.951508 115.122986,128.595184 
	C110.492500,124.176033 103.651093,123.553093 99.873131,127.747635 
	C96.181381,131.846481 95.656517,139.441254 100.040276,143.723923 
	C106.593849,150.126389 114.638847,153.481796 121.479218,156.039902 
	C123.372192,175.292725 124.711594,193.797745 127.145836,212.157593 
	C129.162018,227.364380 132.824570,242.346573 135.107071,257.526123 
	C137.478363,273.296204 139.660385,289.142517 140.768250,305.036133 
	C141.389359,313.946991 139.517044,323.013733 139.064133,332.025085 
	C138.842682,336.431183 140.889740,340.123596 145.177353,341.568756 
	C149.602859,343.060425 154.126053,342.163361 157.464859,338.850952 
	C160.799683,335.542450 163.585312,331.669220 166.521088,327.971619 
	C177.224899,314.490265 190.467499,304.079010 205.512695,295.918030 
	C225.633484,285.003815 247.033096,281.791992 269.683197,284.902863 
	C285.994141,287.143097 300.565552,293.399811 314.464172,301.816284 
	C326.041687,308.827271 336.068939,317.562378 344.553497,328.066101 
	C349.046875,333.628815 354.829315,332.964874 359.786224,329.551575 
	C363.962494,326.675873 364.496979,318.536072 360.393311,314.062927 
	C353.735535,306.805756 346.696533,299.855896 339.358276,293.290680 
	C337.091095,291.262299 336.501709,290.589935 338.349518,288.019836 
	C346.865906,276.174164 357.497040,266.878845 370.324860,259.927002 
	C381.400818,253.924591 393.339142,250.732544 405.688904,251.233932 
	C418.786774,251.765701 431.134521,255.838852 442.591248,262.821960 
	C459.988037,273.425629 472.713623,288.162994 481.447998,306.160583 
	C489.412689,322.572144 493.109497,340.085999 492.139618,358.602692 
	C491.485931,371.081604 489.111450,383.053497 483.876831,394.243744 
	C473.682587,416.036407 457.150360,432.108215 436.505707,444.031372 
	C413.661987,457.224640 388.865875,464.803741 362.940063,469.035339 
	C357.707947,469.889343 352.137421,470.271912 347.421295,472.411285 
	C325.553833,482.331055 302.846344,489.624451 279.003723,491.741119 
	C258.211151,493.586945 237.262421,492.148346 216.992828,486.418152 
	C196.785446,480.705566 176.854523,474.009644 156.625168,468.381927 
	C142.222610,464.375214 127.646759,460.726837 112.929352,458.186920 
	C96.390640,455.332703 79.837257,452.734314 64.057030,446.897064 
	C54.742641,443.451569 47.431664,437.645569 45.460171,427.014221 
	C44.283600,420.669495 43.289009,414.243713 41.459538,408.077820 
	C38.274723,397.344025 34.827965,386.663544 30.916090,376.175140 
	C23.342314,355.868561 22.049242,334.601776 21.179588,313.347473 
	C20.785751,303.722168 21.995667,293.980225 23.070581,284.357422 
	C24.785505,269.005096 26.541941,253.631287 29.120024,238.408691 
	C31.837603,222.362396 35.278294,206.423508 38.883530,190.546783 
	C42.621605,174.085083 47.089680,157.790359 50.951191,141.355103 
	C54.291515,127.138115 56.642570,112.683678 62.343399,99.086174 
	C63.833183,95.532761 63.578922,91.816536 60.991688,88.449951 
	C58.572178,85.301613 55.190762,83.779655 51.676765,84.235504 
	C46.714268,84.879272 43.356827,88.189407 42.018646,93.187523 
	C38.658932,105.736130 35.163403,118.251251 32.014175,130.852737 
	C25.775787,155.815369 19.591106,180.793396 13.677341,205.834290 
	C11.081900,216.824265 8.872260,227.930878 7.095276,239.081390 
	C5.328053,250.170670 4.349237,261.384796 2.908476,272.529144 
	C2.835674,273.092285 1.661413,273.512970 1.000000,274.000000 
M291.959015,386.552979 
	C279.462891,389.146667 266.823639,390.196198 254.135223,388.905701 
	C246.112030,388.089691 238.039932,386.905670 230.249207,384.885986 
	C222.075211,382.766876 214.231552,379.392029 206.204803,376.680573 
	C200.190811,374.649017 193.266006,379.437622 193.007202,385.714630 
	C192.728775,392.467041 196.730560,395.543121 202.506699,398.029358 
	C221.807144,406.336761 242.000793,410.532745 262.849640,410.801086 
	C273.243011,410.934784 283.794464,409.679535 294.030396,407.754822 
	C302.450745,406.171539 310.654572,403.039429 318.678894,399.891602 
	C323.749634,397.902374 324.937164,392.166321 323.126862,387.099487 
	C321.058380,381.310089 314.729340,379.241760 307.477417,381.856934 
	C302.661957,383.593445 297.608826,384.670837 291.959015,386.552979 
M71.275909,65.799271 
	C72.923820,65.866158 74.574135,66.025360 76.219177,65.982437 
	C80.956367,65.858833 83.751709,62.920952 84.894173,58.803196 
	C86.412056,53.332272 84.642967,49.193775 80.654877,46.960678 
	C74.854172,43.712620 68.839890,45.035313 65.971786,50.036030 
	C62.574436,55.959515 64.659531,62.701084 71.275909,65.799271 
z"/>
<path fill="#000000" opacity="1.000000" stroke="none" 
	d="
M164.000000,0.999999 
	C280.258911,1.000000 396.517822,1.000000 513.000000,1.000000 
	C513.000000,110.688576 513.000000,220.377304 512.649658,330.832092 
	C511.871277,330.938751 511.274231,330.334045 511.040405,329.611755 
	C507.542358,318.805878 505.085907,307.532501 500.415344,297.264801 
	C491.798004,278.320526 478.719635,262.701050 461.822693,250.196442 
	C440.474854,234.397934 416.663208,227.710419 390.567017,231.203766 
	C369.583618,234.012695 351.319244,243.637802 336.152832,258.490448 
	C329.654755,264.854126 323.948120,272.026001 317.983307,278.716919 
	C260.967743,251.371887 208.758469,258.632111 161.524994,301.418793 
	C160.983856,293.693939 160.686386,286.651672 159.949051,279.655701 
	C159.097382,271.575012 158.156403,263.481628 156.722839,255.489090 
	C154.015839,240.396545 150.724976,225.407883 148.078995,210.305573 
	C146.592102,201.818832 145.664444,193.212021 144.934021,184.621094 
	C144.213699,176.149292 144.059906,167.629318 143.693863,159.897507 
	C154.044632,158.862167 163.416824,158.414291 172.612991,156.898529 
	C189.493362,154.116180 204.246246,147.031525 215.167328,133.324387 
	C231.845169,112.391914 239.142303,88.438591 238.000351,61.805542 
	C237.320953,45.960346 228.462265,34.948185 216.487671,25.937284 
	C201.229233,14.455283 183.763046,7.764681 165.473007,2.928097 
	C164.855255,2.764740 164.485413,1.663872 164.000000,0.999999 
z"/>
<path fill="#FFFFFF" opacity="1.000000" stroke="none" 
	d="
M163.531342,0.999999 
	C164.485413,1.663872 164.855255,2.764740 165.473007,2.928097 
	C183.763046,7.764681 201.229233,14.455283 216.487671,25.937284 
	C228.462265,34.948185 237.320953,45.960346 238.000351,61.805542 
	C239.142303,88.438591 231.845169,112.391914 215.167328,133.324387 
	C204.246246,147.031525 189.493362,154.116180 172.612991,156.898529 
	C163.416824,158.414291 154.044632,158.862167 143.693863,159.897507 
	C144.059906,167.629318 144.213699,176.149292 144.934021,184.621094 
	C145.664444,193.212021 146.592102,201.818832 148.078995,210.305573 
	C150.724976,225.407883 154.015839,240.396545 156.722839,255.489090 
	C158.156403,263.481628 159.097382,271.575012 159.949051,279.655701 
	C160.686386,286.651672 160.983856,293.693939 161.524994,301.418793 
	C208.758469,258.632111 260.967743,251.371887 317.983307,278.716919 
	C323.948120,272.026001 329.654755,264.854126 336.152832,258.490448 
	C351.319244,243.637802 369.583618,234.012695 390.567017,231.203766 
	C416.663208,227.710419 440.474854,234.397934 461.822693,250.196442 
	C478.719635,262.701050 491.798004,278.320526 500.415344,297.264801 
	C505.085907,307.532501 507.542358,318.805878 511.040405,329.611755 
	C511.274231,330.334045 511.871277,330.938751 512.649658,331.299072 
	C513.000000,345.687561 513.000000,360.375122 512.650269,375.232300 
	C510.194305,382.244965 508.406158,389.205841 505.923889,395.909698 
	C497.359467,419.040039 482.135376,437.116089 462.798004,452.038940 
	C450.978790,461.159943 438.127289,468.643280 424.232269,473.779083 
	C410.137329,478.988770 395.603333,483.175110 381.020111,486.851776 
	C367.198303,490.336487 353.217896,492.559753 339.837677,498.263245 
	C324.650482,504.737000 308.629211,509.419342 291.966949,511.078552 
	C291.254578,511.149475 290.653137,512.334167 290.000000,513.000000 
	C271.979095,513.000000 253.958206,513.000000 235.769028,512.641357 
	C233.768890,511.847137 231.922562,511.464386 230.107407,510.967712 
	C209.523651,505.335114 188.852661,499.996643 168.389877,493.953430 
	C147.405014,487.756042 126.521370,481.195251 104.803337,478.079834 
	C86.892517,475.510559 69.193817,472.191040 52.514229,464.949341 
	C39.266212,459.197510 29.558962,450.009399 25.991096,435.425690 
	C23.014118,423.257263 20.913424,410.780334 16.805113,399.005127 
	C10.857417,381.957855 4.179716,365.224731 2.884135,346.966919 
	C2.858232,346.601898 1.654323,346.320435 1.000001,346.000000 
	C1.000000,322.312439 1.000000,298.624878 1.000000,274.468658 
	C1.661413,273.512970 2.835674,273.092285 2.908476,272.529144 
	C4.349237,261.384796 5.328053,250.170670 7.095276,239.081390 
	C8.872260,227.930878 11.081900,216.824265 13.677341,205.834290 
	C19.591106,180.793396 25.775787,155.815369 32.014175,130.852737 
	C35.163403,118.251251 38.658932,105.736130 42.018646,93.187523 
	C43.356827,88.189407 46.714268,84.879272 51.676765,84.235504 
	C55.190762,83.779655 58.572178,85.301613 60.991688,88.449951 
	C63.578922,91.816536 63.833183,95.532761 62.343399,99.086174 
	C56.642570,112.683678 54.291515,127.138115 50.951191,141.355103 
	C47.089680,157.790359 42.621605,174.085083 38.883530,190.546783 
	C35.278294,206.423508 31.837603,222.362396 29.120024,238.408691 
	C26.541941,253.631287 24.785505,269.005096 23.070581,284.357422 
	C21.995667,293.980225 20.785751,303.722168 21.179588,313.347473 
	C22.049242,334.601776 23.342314,355.868561 30.916090,376.175140 
	C34.827965,386.663544 38.274723,397.344025 41.459538,408.077820 
	C43.289009,414.243713 44.283600,420.669495 45.460171,427.014221 
	C47.431664,437.645569 54.742641,443.451569 64.057030,446.897064 
	C79.837257,452.734314 96.390640,455.332703 112.929352,458.186920 
	C127.646759,460.726837 142.222610,464.375214 156.625168,468.381927 
	C176.854523,474.009644 196.785446,480.705566 216.992828,486.418152 
	C237.262421,492.148346 258.211151,493.586945 279.003723,491.741119 
	C302.846344,489.624451 325.553833,482.331055 347.421295,472.411285 
	C352.137421,470.271912 357.707947,469.889343 362.940063,469.035339 
	C388.865875,464.803741 413.661987,457.224640 436.505707,444.031372 
	C457.150360,432.108215 473.682587,416.036407 483.876831,394.243744 
	C489.111450,383.053497 491.485931,371.081604 492.139618,358.602692 
	C493.109497,340.085999 489.412689,322.572144 481.447998,306.160583 
	C472.713623,288.162994 459.988037,273.425629 442.591248,262.821960 
	C431.134521,255.838852 418.786774,251.765701 405.688904,251.233932 
	C393.339142,250.732544 381.400818,253.924591 370.324860,259.927002 
	C357.497040,266.878845 346.865906,276.174164 338.349518,288.019836 
	C336.501709,290.589935 337.091095,291.262299 339.358276,293.290680 
	C346.696533,299.855896 353.735535,306.805756 360.393311,314.062927 
	C364.496979,318.536072 363.962494,326.675873 359.786224,329.551575 
	C354.829315,332.964874 349.046875,333.628815 344.553497,328.066101 
	C336.068939,317.562378 326.041687,308.827271 314.464172,301.816284 
	C300.565552,293.399811 285.994141,287.143097 269.683197,284.902863 
	C247.033096,281.791992 225.633484,285.003815 205.512695,295.918030 
	C190.467499,304.079010 177.224899,314.490265 166.521088,327.971619 
	C163.585312,331.669220 160.799683,335.542450 157.464859,338.850952 
	C154.126053,342.163361 149.602859,343.060425 145.177353,341.568756 
	C140.889740,340.123596 138.842682,336.431183 139.064133,332.025085 
	C139.517044,323.013733 141.389359,313.946991 140.768250,305.036133 
	C139.660385,289.142517 137.478363,273.296204 135.107071,257.526123 
	C132.824570,242.346573 129.162018,227.364380 127.145836,212.157593 
	C124.711594,193.797745 123.372192,175.292725 121.479218,156.039902 
	C114.638847,153.481796 106.593849,150.126389 100.040276,143.723923 
	C95.656517,139.441254 96.181381,131.846481 99.873131,127.747635 
	C103.651093,123.553093 110.492500,124.176033 115.122986,128.595184 
	C120.735466,133.951508 127.520248,136.586380 135.208664,136.994766 
	C141.955841,137.353165 148.714478,138.069839 155.452087,137.918274 
	C170.723984,137.574753 185.071655,133.663071 196.318710,122.898346 
	C203.559372,115.968201 208.727646,107.224754 211.280807,97.286331 
	C213.599182,88.261795 216.754044,79.305450 217.751144,70.124748 
	C219.040390,58.254227 212.748489,48.897091 203.422211,42.255939 
	C189.125244,32.075230 172.764038,25.689356 155.779648,22.364012 
	C141.814148,19.629728 127.907837,22.941572 115.606430,30.898048 
	C110.879585,33.955349 106.234093,35.777264 100.743164,32.363781 
	C94.025642,28.187778 95.523239,18.171183 100.962776,15.010392 
	C109.859268,9.840844 118.742035,4.636492 129.131027,2.915311 
	C129.672028,2.825682 130.108932,2.107733 130.297150,1.341151 
	C141.020889,1.000000 152.041794,1.000000 163.531342,0.999999 
z"/>
<path fill="#000000" opacity="1.000000" stroke="none" 
	d="
M1.000001,346.468658 
	C1.654323,346.320435 2.858232,346.601898 2.884135,346.966919 
	C4.179716,365.224731 10.857417,381.957855 16.805113,399.005127 
	C20.913424,410.780334 23.014118,423.257263 25.991096,435.425690 
	C29.558962,450.009399 39.266212,459.197510 52.514229,464.949341 
	C69.193817,472.191040 86.892517,475.510559 104.803337,478.079834 
	C126.521370,481.195251 147.405014,487.756042 168.389877,493.953430 
	C188.852661,499.996643 209.523651,505.335114 230.107407,510.967712 
	C231.922562,511.464386 233.768890,511.847137 235.300369,512.641357 
	C157.085175,513.000000 79.170349,513.000000 1.000000,513.000000 
	C1.000000,457.646027 1.000000,402.291687 1.000001,346.468658 
z"/>
<path fill="#000000" opacity="1.000000" stroke="none" 
	d="
M290.468658,513.000000 
	C290.653137,512.334167 291.254578,511.149475 291.966949,511.078552 
	C308.629211,509.419342 324.650482,504.737000 339.837677,498.263245 
	C353.217896,492.559753 367.198303,490.336487 381.020111,486.851776 
	C395.603333,483.175110 410.137329,478.988770 424.232269,473.779083 
	C438.127289,468.643280 450.978790,461.159943 462.798004,452.038940 
	C482.135376,437.116089 497.359467,419.040039 505.923889,395.909698 
	C508.406158,389.205841 510.194305,382.244965 512.650269,375.700928 
	C513.000000,421.611115 513.000000,467.222198 513.000000,513.000000 
	C438.979187,513.000000 364.958252,513.000000 290.468658,513.000000 
z"/>
<path fill="#FFFFFF" opacity="1.000000" stroke="none" 
	d="
M292.310547,386.298096 
	C297.608826,384.670837 302.661957,383.593445 307.477417,381.856934 
	C314.729340,379.241760 321.058380,381.310089 323.126862,387.099487 
	C324.937164,392.166321 323.749634,397.902374 318.678894,399.891602 
	C310.654572,403.039429 302.450745,406.171539 294.030396,407.754822 
	C283.794464,409.679535 273.243011,410.934784 262.849640,410.801086 
	C242.000793,410.532745 221.807144,406.336761 202.506699,398.029358 
	C196.730560,395.543121 192.728775,392.467041 193.007202,385.714630 
	C193.266006,379.437622 200.190811,374.649017 206.204803,376.680573 
	C214.231552,379.392029 222.075211,382.766876 230.249207,384.885986 
	C238.039932,386.905670 246.112030,388.089691 254.135223,388.905701 
	C266.823639,390.196198 279.462891,389.146667 292.310547,386.298096 
z"/>
<path fill="#FFFFFF" opacity="1.000000" stroke="none" 
	d="
M71.001740,65.496872 
	C64.659531,62.701084 62.574436,55.959515 65.971786,50.036030 
	C68.839890,45.035313 74.854172,43.712620 80.654877,46.960678 
	C84.642967,49.193775 86.412056,53.332272 84.894173,58.803196 
	C83.751709,62.920952 80.956367,65.858833 76.219177,65.982437 
	C74.574135,66.025360 72.923820,65.866158 71.001740,65.496872 
z"/>
</svg>