<svg version="1.1" id="Layer_1" xmlns="http://www.w3.org/2000/svg" xmlns:xlink="http://www.w3.org/1999/xlink" x="0px" y="0px"
	 width="100%" viewBox="0 0 512 512" enable-background="new 0 0 512 512" xml:space="preserve">
<path fill="#FFFFFF" opacity="1.000000" stroke="none" 
	d="
M513.000000,216.000000 
	C513.000000,243.020889 513.000000,270.041779 512.694946,297.241547 
	C511.622772,298.437836 510.678162,299.366180 510.115753,300.486420 
	C504.249054,312.171570 494.829926,318.009766 481.742004,318.005920 
	C431.915375,317.991272 382.088715,317.999207 332.262085,318.000641 
	C322.524109,318.000916 318.001251,322.472198 318.000854,332.103729 
	C317.998932,382.097015 318.010590,432.090302 317.992767,482.083588 
	C317.988159,494.972961 312.058960,504.209106 300.643341,510.093872 
	C299.552704,510.656097 298.871399,512.012390 298.000000,513.000000 
	C270.979095,513.000000 243.958206,513.000000 216.758423,512.694946 
	C215.562012,511.622681 214.633575,510.678009 213.513260,510.115509 
	C201.826248,504.247986 195.989975,494.826813 195.993927,481.737427 
	C196.008972,431.905151 196.000793,382.072876 195.999313,332.240601 
	C195.999023,322.555145 191.482086,318.001221 181.872025,318.000885 
	C131.206436,317.999054 80.540550,318.087860 29.875530,317.917847 
	C20.910879,317.887787 13.412460,314.020630 7.940835,306.621643 
	C5.748985,303.657715 3.320684,300.868652 1.000001,298.000000 
	C1.000000,270.979095 1.000000,243.958206 1.305029,216.758423 
	C2.377226,215.562119 3.321800,214.633789 3.884215,213.513596 
	C9.750929,201.828476 19.170019,195.990234 32.257988,195.994095 
	C82.084602,196.008743 131.911224,196.000763 181.737839,195.999344 
	C191.475906,195.999069 195.998734,191.527893 195.999100,181.896332 
	C196.001022,131.903076 195.989426,81.909813 196.007248,31.916553 
	C196.011841,19.027145 201.940979,9.790950 213.356583,3.906152 
	C214.447250,3.343911 215.128616,1.987644 216.000000,0.999998 
	C243.020889,1.000000 270.041779,1.000000 297.241577,1.305023 
	C298.437836,2.377208 299.366119,3.321771 300.486328,3.884182 
	C312.171448,9.750866 318.009766,19.169924 318.005920,32.257896 
	C317.991272,82.084526 317.999237,131.911148 318.000641,181.737778 
	C318.000916,191.475922 322.472046,195.998718 332.103638,195.999100 
	C382.096893,196.001022 432.090179,195.989426 482.083435,196.007248 
	C494.972839,196.011856 504.209045,201.941010 510.093842,213.356583 
	C510.656128,214.447250 512.012329,215.128616 513.000000,216.000000 
M60.500000,217.000000 
	C52.169399,217.000000 43.837002,217.108170 35.508690,216.970047 
	C26.915030,216.827530 21.724979,221.973694 21.893202,230.325256 
	C22.245461,247.813568 22.333126,265.322784 21.867411,282.805786 
	C21.612965,292.357758 27.089323,297.084167 36.140373,297.061066 
	C86.126923,296.933441 136.113953,296.992432 186.100830,297.004211 
	C202.894821,297.008148 217.009766,311.075958 217.005020,328.031647 
	C216.990982,378.185150 217.038834,428.338684 216.962677,478.492065 
	C216.949631,487.083679 221.973541,492.274994 230.325592,492.106781 
	C247.813904,491.754547 265.323151,491.666870 282.806122,492.132538 
	C292.357758,492.386963 297.084198,486.910522 297.061096,477.859314 
	C296.933411,427.872772 296.992401,377.885742 297.004242,327.898865 
	C297.008209,311.105347 311.075806,296.990173 328.032043,296.994965 
	C378.185547,297.009064 428.339081,296.961182 478.492462,297.037292 
	C487.083344,297.050354 492.275055,292.026886 492.106781,283.674042 
	C491.754517,266.185730 491.666962,248.676514 492.132568,231.193497 
	C492.386902,221.642761 486.911072,216.915787 477.858917,216.938904 
	C427.872375,217.066620 377.885315,217.007645 327.898438,216.995728 
	C311.105377,216.991730 296.990112,202.924255 296.994904,185.967621 
	C297.009094,135.814133 296.961243,85.660576 297.037292,35.507206 
	C297.050323,26.916487 292.027069,21.724947 283.673737,21.893209 
	C266.185425,22.245480 248.676193,22.333015 231.193176,21.867441 
	C221.642990,21.613117 216.915985,27.088814 216.938904,36.141418 
	C217.066254,86.461212 217.185364,136.782578 216.893143,187.100983 
	C216.798828,203.340576 203.359268,216.790161 186.966370,216.903610 
	C145.146042,217.193024 103.322350,217.000000 60.500000,217.000000 
z"/>
<path fill="#000000" opacity="1.000000" stroke="none" 
	d="
M215.531342,0.999998 
	C215.128616,1.987644 214.447250,3.343911 213.356583,3.906152 
	C201.940979,9.790950 196.011841,19.027145 196.007248,31.916553 
	C195.989426,81.909813 196.001022,131.903076 195.999100,181.896332 
	C195.998734,191.527893 191.475906,195.999069 181.737839,195.999344 
	C131.911224,196.000763 82.084602,196.008743 32.257988,195.994095 
	C19.170019,195.990234 9.750929,201.828476 3.884215,213.513596 
	C3.321800,214.633789 2.377226,215.562119 1.305029,216.289764 
	C1.000000,144.406296 1.000000,72.812584 1.000000,1.000000 
	C72.354080,1.000000 143.708374,1.000000 215.531342,0.999998 
z"/>
<path fill="#000000" opacity="1.000000" stroke="none" 
	d="
M513.000000,215.531342 
	C512.012329,215.128616 510.656128,214.447250 510.093842,213.356583 
	C504.209045,201.941010 494.972839,196.011856 482.083435,196.007248 
	C432.090179,195.989426 382.096893,196.001022 332.103638,195.999100 
	C322.472046,195.998718 318.000916,191.475922 318.000641,181.737778 
	C317.999237,131.911148 317.991272,82.084526 318.005920,32.257896 
	C318.009766,19.169924 312.171448,9.750866 300.486328,3.884182 
	C299.366119,3.321771 298.437836,2.377208 297.710205,1.305023 
	C369.593689,1.000000 441.187378,1.000000 513.000000,1.000000 
	C513.000000,72.354080 513.000000,143.708374 513.000000,215.531342 
z"/>
<path fill="#000000" opacity="1.000000" stroke="none" 
	d="
M1.000001,298.468658 
	C3.320684,300.868652 5.748985,303.657715 7.940835,306.621643 
	C13.412460,314.020630 20.910879,317.887787 29.875530,317.917847 
	C80.540550,318.087860 131.206436,317.999054 181.872025,318.000885 
	C191.482086,318.001221 195.999023,322.555145 195.999313,332.240601 
	C196.000793,382.072876 196.008972,431.905151 195.993927,481.737427 
	C195.989975,494.826813 201.826248,504.247986 213.513260,510.115509 
	C214.633575,510.678009 215.562012,511.622681 216.289764,512.694946 
	C144.406311,513.000000 72.812614,513.000000 1.000000,513.000000 
	C1.000000,441.645935 1.000000,370.291626 1.000001,298.468658 
z"/>
<path fill="#000000" opacity="1.000000" stroke="none" 
	d="
M298.468689,513.000000 
	C298.871399,512.012390 299.552704,510.656097 300.643341,510.093872 
	C312.058960,504.209106 317.988159,494.972961 317.992767,482.083588 
	C318.010590,432.090302 317.998932,382.097015 318.000854,332.103729 
	C318.001251,322.472198 322.524109,318.000916 332.262085,318.000641 
	C382.088715,317.999207 431.915375,317.991272 481.742004,318.005920 
	C494.829926,318.009766 504.249054,312.171570 510.115753,300.486420 
	C510.678162,299.366180 511.622772,298.437836 512.694946,297.710205 
	C513.000000,369.593689 513.000000,441.187378 513.000000,513.000000 
	C441.645935,513.000000 370.291626,513.000000 298.468689,513.000000 
z"/>
<path fill="#000000" opacity="1.000000" stroke="none" 
	d="
M61.000000,217.000000 
	C103.322350,217.000000 145.146042,217.193024 186.966370,216.903610 
	C203.359268,216.790161 216.798828,203.340576 216.893143,187.100983 
	C217.185364,136.782578 217.066254,86.461212 216.938904,36.141418 
	C216.915985,27.088814 221.642990,21.613117 231.193176,21.867441 
	C248.676193,22.333015 266.185425,22.245480 283.673737,21.893209 
	C292.027069,21.724947 297.050323,26.916487 297.037292,35.507206 
	C296.961243,85.660576 297.009094,135.814133 296.994904,185.967621 
	C296.990112,202.924255 311.105377,216.991730 327.898438,216.995728 
	C377.885315,217.007645 427.872375,217.066620 477.858917,216.938904 
	C486.911072,216.915787 492.386902,221.642761 492.132568,231.193497 
	C491.666962,248.676514 491.754517,266.185730 492.106781,283.674042 
	C492.275055,292.026886 487.083344,297.050354 478.492462,297.037292 
	C428.339081,296.961182 378.185547,297.009064 328.032043,296.994965 
	C311.075806,296.990173 297.008209,311.105347 297.004242,327.898865 
	C296.992401,377.885742 296.933411,427.872772 297.061096,477.859314 
	C297.084198,486.910522 292.357758,492.386963 282.806122,492.132538 
	C265.323151,491.666870 247.813904,491.754547 230.325592,492.106781 
	C221.973541,492.274994 216.949631,487.083679 216.962677,478.492065 
	C217.038834,428.338684 216.990982,378.185150 217.005020,328.031647 
	C217.009766,311.075958 202.894821,297.008148 186.100830,297.004211 
	C136.113953,296.992432 86.126923,296.933441 36.140373,297.061066 
	C27.089323,297.084167 21.612965,292.357758 21.867411,282.805786 
	C22.333126,265.322784 22.245461,247.813568 21.893202,230.325256 
	C21.724979,221.973694 26.915030,216.827530 35.508690,216.970047 
	C43.837002,217.108170 52.169399,217.000000 61.000000,217.000000 
M455.499725,226.000000 
	C441.003082,226.000000 426.506439,225.999985 412.009796,226.000000 
	C400.345825,226.000000 388.681122,225.920029 377.018219,226.031769 
	C370.612335,226.093124 366.934052,230.317749 367.000000,237.105011 
	C367.061066,243.389786 370.717133,246.991852 377.137573,246.994339 
	C409.130157,247.006714 441.122894,246.953705 473.115234,247.041565 
	C479.048889,247.057861 482.682434,243.681351 483.938141,237.609543 
	C484.895233,232.981659 481.178711,227.276001 475.873291,226.560928 
	C469.505829,225.702728 462.965118,226.129593 455.499725,226.000000 
M356.183716,231.750336 
	C353.902039,229.871506 351.816193,226.790466 349.295349,226.379852 
	C344.899261,225.663742 340.218445,226.424164 335.687897,226.875748 
	C330.428833,227.399948 327.310242,233.645020 328.087158,237.670456 
	C329.194794,243.409363 333.467072,248.009888 338.799347,247.095352 
	C341.865509,246.569458 345.098450,247.083832 348.251404,246.980133 
	C352.971466,246.824890 356.812744,242.975739 356.977966,238.256348 
	C357.047333,236.273605 356.874939,234.282410 356.183716,231.750336 
z"/>
<path fill="#FFFFFF" opacity="1.000000" stroke="none" 
	d="
M455.999573,226.000000 
	C462.965118,226.129593 469.505829,225.702728 475.873291,226.560928 
	C481.178711,227.276001 484.895233,232.981659 483.938141,237.609543 
	C482.682434,243.681351 479.048889,247.057861 473.115234,247.041565 
	C441.122894,246.953705 409.130157,247.006714 377.137573,246.994339 
	C370.717133,246.991852 367.061066,243.389786 367.000000,237.105011 
	C366.934052,230.317749 370.612335,226.093124 377.018219,226.031769 
	C388.681122,225.920029 400.345825,226.000000 412.009796,226.000000 
	C426.506439,225.999985 441.003082,226.000000 455.999573,226.000000 
z"/>
<path fill="#FFFFFF" opacity="1.000000" stroke="none" 
	d="
M356.498108,232.022705 
	C356.874939,234.282410 357.047333,236.273605 356.977966,238.256348 
	C356.812744,242.975739 352.971466,246.824890 348.251404,246.980133 
	C345.098450,247.083832 341.865509,246.569458 338.799347,247.095352 
	C333.467072,248.009888 329.194794,243.409363 328.087158,237.670456 
	C327.310242,233.645020 330.428833,227.399948 335.687897,226.875748 
	C340.218445,226.424164 344.899261,225.663742 349.295349,226.379852 
	C351.816193,226.790466 353.902039,229.871506 356.498108,232.022705 
z"/>
</svg>