<svg version="1.1" id="Layer_1" xmlns="http://www.w3.org/2000/svg" xmlns:xlink="http://www.w3.org/1999/xlink" x="0px" y="0px"
	 width="100%" viewBox="0 0 512 512" enable-background="new 0 0 512 512" xml:space="preserve">
<path fill="#333333" opacity="1.000000" stroke="none" 
	d="
M416.000000,1.000004 
	C448.313293,1.000000 480.626587,1.000000 512.939331,1.000004 
	C512.938843,171.666672 512.938843,342.333344 512.938843,513.000000 
	C480.897614,513.000000 448.917450,513.000000 416.099487,512.774048 
	C415.532074,512.138123 415.708466,511.518341 416.086578,511.348969 
	C425.980713,506.916809 428.789948,498.628296 428.784149,488.611969 
	C428.745758,422.281006 428.764343,355.950012 428.763885,289.619049 
	C428.763885,288.285797 428.989166,286.902313 428.712585,285.628418 
	C427.785583,281.359161 426.719208,277.212585 421.381775,276.205872 
	C413.956696,274.805359 409.239166,278.685699 409.238586,286.475098 
	C409.233582,352.972717 409.238861,419.470367 409.220734,485.967987 
	C409.220184,488.009705 408.998718,490.051361 408.846893,492.667938 
	C407.046570,491.884766 405.962463,491.557800 405.028534,490.985657 
	C384.121033,478.176697 363.239166,465.325836 342.333557,452.513763 
	C317.755219,437.450867 293.163849,422.409302 268.567657,407.375549 
	C260.936127,402.710968 253.181702,402.634583 245.572571,407.290314 
	C203.601608,432.970734 161.669785,458.715149 119.716095,484.423889 
	C115.151154,487.221191 110.532120,489.930267 105.130821,493.163544 
	C105.130821,335.037415 105.130821,178.185516 105.130821,21.224209 
	C206.586288,21.224209 307.766052,21.224209 409.235687,21.224209 
	C409.235687,23.670912 409.235718,25.658764 409.235718,27.646616 
	C409.235718,83.144638 409.224518,138.642685 409.279236,194.140640 
	C409.281281,196.229263 409.466522,198.540558 410.357483,200.360901 
	C412.472534,204.682373 416.373627,206.072632 421.331177,204.833679 
	C426.126221,203.635345 428.741638,199.979218 428.744995,193.932526 
	C428.776886,136.601257 428.841431,79.269737 428.675354,21.938925 
	C428.652039,13.888584 425.181030,7.230240 417.564789,3.325538 
	C416.837036,2.952443 416.511993,1.793908 416.000000,1.000004 
M423.262390,249.141235 
	C428.036041,246.197250 429.667297,241.558685 427.649597,236.666107 
	C425.725769,232.001282 421.737427,230.053009 416.397400,231.169601 
	C411.548950,232.183395 408.986969,235.842667 409.224548,241.414520 
	C409.496368,247.788101 414.272491,250.713486 423.262390,249.141235 
z"/>
<path fill="#333333" opacity="1.000000" stroke="none" 
	d="
M98.000000,513.000000 
	C65.686714,513.000000 33.373425,513.000000 1.060603,513.000000 
	C1.061071,342.333313 1.061071,171.666656 1.061071,1.000000 
	C33.102322,1.000000 65.082504,1.000000 97.900467,1.226004 
	C98.467918,1.861820 98.291420,2.482490 97.913551,2.650651 
	C88.037445,7.045719 85.203850,15.250625 85.206558,25.287790 
	C85.248161,179.539948 85.235550,333.792114 85.235619,488.044281 
	C85.235619,489.376923 85.135025,490.718628 85.253555,492.040680 
	C85.971153,500.044373 88.746803,506.805542 96.436775,510.676178 
	C97.163605,511.041992 97.488487,512.206360 98.000000,513.000000 
z"/>
<path fill="#FAFAFA" opacity="1.000000" stroke="none" 
	d="
M98.466110,513.000000 
	C97.488487,512.206360 97.163605,511.041992 96.436775,510.676178 
	C88.746803,506.805542 85.971153,500.044373 85.253555,492.040680 
	C85.135025,490.718628 85.235619,489.376923 85.235619,488.044281 
	C85.235550,333.792114 85.248161,179.539948 85.206558,25.287790 
	C85.203850,15.250625 88.037445,7.045719 97.913551,2.650651 
	C98.291420,2.482490 98.467918,1.861820 98.369125,1.226004 
	C203.687561,1.000000 309.375122,1.000000 415.531342,1.000004 
	C416.511993,1.793908 416.837036,2.952443 417.564789,3.325538 
	C425.181030,7.230240 428.652039,13.888584 428.675354,21.938925 
	C428.841431,79.269737 428.776886,136.601257 428.744995,193.932526 
	C428.741638,199.979218 426.126221,203.635345 421.331177,204.833679 
	C416.373627,206.072632 412.472534,204.682373 410.357483,200.360901 
	C409.466522,198.540558 409.281281,196.229263 409.279236,194.140640 
	C409.224518,138.642685 409.235718,83.144638 409.235718,27.646616 
	C409.235718,25.658764 409.235687,23.670912 409.235687,21.224209 
	C307.766052,21.224209 206.586288,21.224209 105.130821,21.224209 
	C105.130821,178.185516 105.130821,335.037415 105.130821,493.163544 
	C110.532120,489.930267 115.151154,487.221191 119.716095,484.423889 
	C161.669785,458.715149 203.601608,432.970734 245.572571,407.290314 
	C253.181702,402.634583 260.936127,402.710968 268.567657,407.375549 
	C293.163849,422.409302 317.755219,437.450867 342.333557,452.513763 
	C363.239166,465.325836 384.121033,478.176697 405.028534,490.985657 
	C405.962463,491.557800 407.046570,491.884766 408.846893,492.667938 
	C408.998718,490.051361 409.220184,488.009705 409.220734,485.967987 
	C409.238861,419.470367 409.233582,352.972717 409.238586,286.475098 
	C409.239166,278.685699 413.956696,274.805359 421.381775,276.205872 
	C426.719208,277.212585 427.785583,281.359161 428.712585,285.628418 
	C428.989166,286.902313 428.763885,288.285797 428.763885,289.619049 
	C428.764343,355.950012 428.745758,422.281006 428.784149,488.611969 
	C428.789948,498.628296 425.980713,506.916809 416.086578,511.348969 
	C415.708466,511.518341 415.532074,512.138123 415.630859,512.774048 
	C411.310760,513.000000 406.621490,513.000000 401.835907,512.769958 
	C400.003937,511.359802 398.312714,510.107483 396.526245,509.010101 
	C351.933228,481.617371 307.294464,454.298676 262.787201,426.767303 
	C258.602142,424.178528 255.626709,424.045410 251.355835,426.680634 
	C205.680145,454.863037 159.860962,482.812866 114.113251,510.878845 
	C113.528473,511.237579 113.361809,512.277832 113.000000,513.000000 
	C108.310745,513.000000 103.621490,513.000000 98.466110,513.000000 
z"/>
<path fill="#333333" opacity="1.000000" stroke="none" 
	d="
M113.468658,513.000000 
	C113.361809,512.277832 113.528473,511.237579 114.113251,510.878845 
	C159.860962,482.812866 205.680145,454.863037 251.355835,426.680634 
	C255.626709,424.045410 258.602142,424.178528 262.787201,426.767303 
	C307.294464,454.298676 351.933228,481.617371 396.526245,509.010101 
	C398.312714,510.107483 400.003937,511.359802 401.369781,512.769958 
	C305.312439,513.000000 209.624878,513.000000 113.468658,513.000000 
z"/>
<path fill="#F6F6F6" opacity="1.000000" stroke="none" 
	d="
M422.932953,249.375198 
	C414.272491,250.713486 409.496368,247.788101 409.224548,241.414520 
	C408.986969,235.842667 411.548950,232.183395 416.397400,231.169601 
	C421.737427,230.053009 425.725769,232.001282 427.649597,236.666107 
	C429.667297,241.558685 428.036041,246.197250 422.932953,249.375198 
z"/>
</svg>