<svg version="1.1" id="Layer_1" xmlns="http://www.w3.org/2000/svg" xmlns:xlink="http://www.w3.org/1999/xlink" x="0px" y="0px"
	 width="100%" viewBox="0 0 512 512" enable-background="new 0 0 512 512" xml:space="preserve">
<path fill="#000000" opacity="1.000000" stroke="none" 
	d="
M282.000000,513.000000 
	C188.022812,513.000000 94.545624,513.000000 1.034216,513.000000 
	C1.034216,342.397797 1.034216,171.795563 1.034216,1.096670 
	C171.560532,1.096670 342.121155,1.096670 512.840881,1.096670 
	C512.840881,171.666550 512.840881,342.333252 512.840881,513.000000 
	C436.128876,513.000000 359.314423,513.000000 282.000000,513.000000 
M355.500000,323.000000 
	C297.053833,323.000000 238.607651,323.000000 180.350891,323.000000 
	C177.374573,305.490326 174.482574,288.476685 171.511856,271.000000 
	C174.212509,271.000000 176.020370,271.000000 177.828232,271.000000 
	C261.651611,271.000000 345.474976,271.000000 429.298340,271.000000 
	C430.298218,271.000000 431.301788,271.055756 432.297302,270.989838 
	C436.049408,270.741302 438.696320,269.003052 440.012177,265.349823 
	C448.423218,241.998550 456.812439,218.639267 465.299103,195.315460 
	C475.648743,166.871719 486.163574,138.487717 496.386475,109.998764 
	C497.607971,106.594696 497.859070,102.927780 495.168457,99.325653 
	C492.012482,95.100464 487.698090,95.106491 483.531494,95.083427 
	C454.869110,94.924713 426.205383,94.973122 397.542267,95.043434 
	C394.810669,95.050133 392.045532,95.491028 389.357391,96.034256 
	C384.513885,97.013023 381.401398,101.831093 382.001099,107.075722 
	C382.513245,111.554588 386.621918,114.987640 391.490936,114.999062 
	C393.820068,115.004524 396.149200,115.000000 398.958496,115.000000 
	C392.922546,133.857788 386.831482,152.405563 381.155029,171.079376 
	C380.166779,174.330429 378.877594,175.071335 375.817719,175.055847 
	C354.820740,174.949478 333.822968,175.005234 312.825470,174.986923 
	C311.569641,174.985825 310.313995,174.796204 309.343628,174.717453 
	C309.343628,154.552261 309.343628,134.806458 309.343628,114.999969 
	C312.019562,114.999969 314.352631,114.963455 316.684174,115.007690 
	C321.315369,115.095551 323.931793,112.218040 324.881378,108.330330 
	C326.339478,102.360710 323.900330,97.391426 319.357025,96.203232 
	C316.558014,95.471214 313.592010,95.051979 310.700287,95.048477 
	C256.373505,94.982574 202.046585,95.000046 147.719711,94.999725 
	C146.386566,94.999718 144.902161,95.360725 143.763443,94.889084 
	C142.658447,94.431427 141.291412,93.229233 141.096985,92.161446 
	C138.951385,80.378700 136.707596,68.600098 135.082703,56.739223 
	C132.008438,34.298813 117.013649,24.274645 95.829262,24.030107 
	C81.999420,23.870466 68.155731,23.686846 54.339592,24.150444 
	C48.621555,24.342310 42.665974,25.424021 37.328773,27.447300 
	C23.362499,32.741772 13.461890,50.310089 16.813868,66.397682 
	C19.625917,79.893921 31.002527,92.298836 44.867226,93.909134 
	C52.213230,94.762321 59.666965,94.764763 67.077095,94.947990 
	C69.727150,95.013519 70.678223,95.776260 71.101479,98.601181 
	C73.236710,112.852409 75.582909,127.075645 78.103966,141.264481 
	C80.929672,157.167923 84.104088,173.009247 86.961227,188.907349 
	C88.269341,196.186157 92.554955,199.267227 100.317863,197.995163 
	C104.590790,197.294968 107.963745,190.886993 106.977608,185.267471 
	C104.992752,173.956619 102.983994,162.649963 100.985008,151.341599 
	C96.987221,128.725952 92.980110,106.111938 88.998238,83.493492 
	C88.040985,78.055969 84.484604,75.016907 78.856354,75.004585 
	C70.690697,74.986710 62.509033,75.299347 54.366402,74.865967 
	C50.638119,74.667534 46.782730,73.479851 43.349125,71.932671 
	C38.488476,69.742462 35.639130,62.483086 36.607029,57.752125 
	C38.657806,47.728188 45.551083,44.300766 54.275616,44.091534 
	C68.432457,43.752018 82.604469,43.893150 96.767998,44.037182 
	C106.403763,44.135170 113.197922,48.584877 114.711357,56.521973 
	C117.773430,72.580833 120.314949,88.740082 122.986786,104.871902 
	C125.449219,119.739403 127.701942,134.642090 130.230087,149.498138 
	C132.698975,164.005997 135.511673,178.455444 137.966827,192.965500 
	C140.454041,207.665039 142.555344,222.430130 145.068542,237.124985 
	C147.903656,253.702148 151.151871,270.208954 153.955719,286.791107 
	C156.496216,301.815887 158.562042,316.920654 161.068008,331.951660 
	C162.495468,340.513794 165.827988,342.999847 174.710342,342.999878 
	C258.367065,343.000061 342.023804,342.996735 425.680511,343.022003 
	C427.457092,343.022522 429.361145,342.999023 430.987701,343.588409 
	C437.605469,345.986603 443.060364,353.966614 441.942780,359.256348 
	C440.161530,367.687408 433.863800,372.995239 425.552155,372.995850 
	C334.229675,373.002472 242.907211,373.001556 151.584732,372.997253 
	C143.649643,372.996887 138.150772,369.366547 136.126633,361.564423 
	C134.226776,354.241364 133.252579,346.670288 132.021133,339.183685 
	C130.494812,329.904083 129.185074,320.588898 127.668503,311.307587 
	C125.841095,300.124054 123.917740,288.956024 121.990379,277.789124 
	C121.002327,272.064423 120.201347,266.284393 118.778503,260.665405 
	C117.715195,256.466248 111.841293,253.404785 108.077568,254.431961 
	C102.507523,255.952118 98.603302,260.526733 99.333527,264.810211 
	C101.861084,279.636780 104.469109,294.449677 106.972488,309.280273 
	C110.017982,327.322449 113.404640,345.320526 115.875816,363.442413 
	C118.408821,382.017761 134.836609,393.489136 151.076050,393.018555 
	C155.319778,392.895569 159.570099,393.000000 164.201294,393.000000 
	C141.405304,423.966248 150.746201,457.402710 171.381699,474.847321 
	C189.238281,489.942780 215.323318,493.217560 237.230804,480.754395 
	C252.531891,472.049591 261.950317,458.470947 265.132294,440.574432 
	C268.284882,422.843353 263.097504,407.536194 253.025650,393.319458 
	C278.730743,393.319458 303.782990,393.319458 329.062042,393.319458 
	C308.052643,422.280060 315.002808,451.043213 329.837769,468.213684 
	C348.658752,489.997833 378.488800,494.899170 400.531952,481.313812 
	C436.597748,459.086182 439.049316,427.937897 418.647644,393.000000 
	C420.844025,393.000000 422.850830,392.887451 424.841827,393.017334 
	C445.956818,394.394806 465.186005,375.683838 461.124329,351.524017 
	C458.422455,335.452667 443.204346,322.939972 428.491394,322.981659 
	C404.494446,323.049652 380.497162,323.000000 355.500000,323.000000 
M104.049187,217.567490 
	C102.885605,217.710129 101.702187,217.761978 100.561844,218.011047 
	C95.429977,219.131912 92.272324,223.872299 93.003403,229.273331 
	C93.619255,233.823059 98.758057,238.326111 102.936508,237.977524 
	C109.044037,237.468033 113.621735,233.035736 113.953712,227.310318 
	C114.207794,222.928421 109.957474,218.614777 104.049187,217.567490 
M351.937683,95.000946 
	C345.582855,97.128136 343.900574,99.336693 343.999969,105.421867 
	C344.094025,111.177345 347.996582,114.950195 353.907257,114.999863 
	C359.761658,115.049057 363.890015,111.169258 364.000000,105.514740 
	C364.145569,98.031364 360.914062,95.000916 351.937683,95.000946 
z"/>
<path fill="#FFFFFF" opacity="1.000000" stroke="none" 
	d="
M356.000000,323.000000 
	C380.497162,323.000000 404.494446,323.049652 428.491394,322.981659 
	C443.204346,322.939972 458.422455,335.452667 461.124329,351.524017 
	C465.186005,375.683838 445.956818,394.394806 424.841827,393.017334 
	C422.850830,392.887451 420.844025,393.000000 418.647644,393.000000 
	C439.049316,427.937897 436.597748,459.086182 400.531952,481.313812 
	C378.488800,494.899170 348.658752,489.997833 329.837769,468.213684 
	C315.002808,451.043213 308.052643,422.280060 329.062042,393.319458 
	C303.782990,393.319458 278.730743,393.319458 253.025650,393.319458 
	C263.097504,407.536194 268.284882,422.843353 265.132294,440.574432 
	C261.950317,458.470947 252.531891,472.049591 237.230804,480.754395 
	C215.323318,493.217560 189.238281,489.942780 171.381699,474.847321 
	C150.746201,457.402710 141.405304,423.966248 164.201294,393.000000 
	C159.570099,393.000000 155.319778,392.895569 151.076050,393.018555 
	C134.836609,393.489136 118.408821,382.017761 115.875816,363.442413 
	C113.404640,345.320526 110.017982,327.322449 106.972488,309.280273 
	C104.469109,294.449677 101.861084,279.636780 99.333527,264.810211 
	C98.603302,260.526733 102.507523,255.952118 108.077568,254.431961 
	C111.841293,253.404785 117.715195,256.466248 118.778503,260.665405 
	C120.201347,266.284393 121.002327,272.064423 121.990379,277.789124 
	C123.917740,288.956024 125.841095,300.124054 127.668503,311.307587 
	C129.185074,320.588898 130.494812,329.904083 132.021133,339.183685 
	C133.252579,346.670288 134.226776,354.241364 136.126633,361.564423 
	C138.150772,369.366547 143.649643,372.996887 151.584732,372.997253 
	C242.907211,373.001556 334.229675,373.002472 425.552155,372.995850 
	C433.863800,372.995239 440.161530,367.687408 441.942780,359.256348 
	C443.060364,353.966614 437.605469,345.986603 430.987701,343.588409 
	C429.361145,342.999023 427.457092,343.022522 425.680511,343.022003 
	C342.023804,342.996735 258.367065,343.000061 174.710342,342.999878 
	C165.827988,342.999847 162.495468,340.513794 161.068008,331.951660 
	C158.562042,316.920654 156.496216,301.815887 153.955719,286.791107 
	C151.151871,270.208954 147.903656,253.702148 145.068542,237.124985 
	C142.555344,222.430130 140.454041,207.665039 137.966827,192.965500 
	C135.511673,178.455444 132.698975,164.005997 130.230087,149.498138 
	C127.701942,134.642090 125.449219,119.739403 122.986786,104.871902 
	C120.314949,88.740082 117.773430,72.580833 114.711357,56.521973 
	C113.197922,48.584877 106.403763,44.135170 96.767998,44.037182 
	C82.604469,43.893150 68.432457,43.752018 54.275616,44.091534 
	C45.551083,44.300766 38.657806,47.728188 36.607029,57.752125 
	C35.639130,62.483086 38.488476,69.742462 43.349125,71.932671 
	C46.782730,73.479851 50.638119,74.667534 54.366402,74.865967 
	C62.509033,75.299347 70.690697,74.986710 78.856354,75.004585 
	C84.484604,75.016907 88.040985,78.055969 88.998238,83.493492 
	C92.980110,106.111938 96.987221,128.725952 100.985008,151.341599 
	C102.983994,162.649963 104.992752,173.956619 106.977608,185.267471 
	C107.963745,190.886993 104.590790,197.294968 100.317863,197.995163 
	C92.554955,199.267227 88.269341,196.186157 86.961227,188.907349 
	C84.104088,173.009247 80.929672,157.167923 78.103966,141.264481 
	C75.582909,127.075645 73.236710,112.852409 71.101479,98.601181 
	C70.678223,95.776260 69.727150,95.013519 67.077095,94.947990 
	C59.666965,94.764763 52.213230,94.762321 44.867226,93.909134 
	C31.002527,92.298836 19.625917,79.893921 16.813868,66.397682 
	C13.461890,50.310089 23.362499,32.741772 37.328773,27.447300 
	C42.665974,25.424021 48.621555,24.342310 54.339592,24.150444 
	C68.155731,23.686846 81.999420,23.870466 95.829262,24.030107 
	C117.013649,24.274645 132.008438,34.298813 135.082703,56.739223 
	C136.707596,68.600098 138.951385,80.378700 141.096985,92.161446 
	C141.291412,93.229233 142.658447,94.431427 143.763443,94.889084 
	C144.902161,95.360725 146.386566,94.999718 147.719711,94.999725 
	C202.046585,95.000046 256.373505,94.982574 310.700287,95.048477 
	C313.592010,95.051979 316.558014,95.471214 319.357025,96.203232 
	C323.900330,97.391426 326.339478,102.360710 324.881378,108.330330 
	C323.931793,112.218040 321.315369,115.095551 316.684174,115.007690 
	C314.352631,114.963455 312.019562,114.999969 309.343628,114.999969 
	C309.343628,134.806458 309.343628,154.552261 309.343628,174.717453 
	C310.313995,174.796204 311.569641,174.985825 312.825470,174.986923 
	C333.822968,175.005234 354.820740,174.949478 375.817719,175.055847 
	C378.877594,175.071335 380.166779,174.330429 381.155029,171.079376 
	C386.831482,152.405563 392.922546,133.857788 398.958496,115.000000 
	C396.149200,115.000000 393.820068,115.004524 391.490936,114.999062 
	C386.621918,114.987640 382.513245,111.554588 382.001099,107.075722 
	C381.401398,101.831093 384.513885,97.013023 389.357391,96.034256 
	C392.045532,95.491028 394.810669,95.050133 397.542267,95.043434 
	C426.205383,94.973122 454.869110,94.924713 483.531494,95.083427 
	C487.698090,95.106491 492.012482,95.100464 495.168457,99.325653 
	C497.859070,102.927780 497.607971,106.594696 496.386475,109.998764 
	C486.163574,138.487717 475.648743,166.871719 465.299103,195.315460 
	C456.812439,218.639267 448.423218,241.998550 440.012177,265.349823 
	C438.696320,269.003052 436.049408,270.741302 432.297302,270.989838 
	C431.301788,271.055756 430.298218,271.000000 429.298340,271.000000 
	C345.474976,271.000000 261.651611,271.000000 177.828232,271.000000 
	C176.020370,271.000000 174.212509,271.000000 171.511856,271.000000 
	C174.482574,288.476685 177.374573,305.490326 180.350891,323.000000 
	C238.607651,323.000000 297.053833,323.000000 356.000000,323.000000 
M217.726364,115.000008 
	C216.586868,115.000008 215.447372,115.000008 213.877029,115.000008 
	C217.024536,135.182770 220.107895,154.954071 223.198303,174.770691 
	C245.174591,174.770691 266.920349,174.770691 288.772095,174.770691 
	C288.772095,154.806046 288.772095,135.071381 288.772095,115.000000 
	C265.256989,115.000000 241.968216,115.000000 217.726364,115.000008 
M230.999832,224.604797 
	C232.329971,233.358078 233.660095,242.111374 234.970337,250.733734 
	C253.272156,250.733734 271.007111,250.733734 288.749084,250.733734 
	C288.749084,232.074066 288.749084,213.681793 288.749084,195.197174 
	C267.777740,195.197174 247.057785,195.197174 226.239288,195.197174 
	C227.848526,204.838135 229.422989,214.270782 230.999832,224.604797 
M342.487976,251.000000 
	C345.654480,251.000000 348.839325,250.788620 351.982178,251.061218 
	C354.948364,251.318481 356.275696,250.303314 357.087097,247.390686 
	C358.763519,241.372864 360.934113,235.494400 362.822876,229.533707 
	C366.450867,218.084488 370.024139,206.617920 373.582367,195.278870 
	C352.088165,195.278870 330.660095,195.278870 309.282471,195.278870 
	C309.282471,213.964325 309.282471,232.369583 309.282471,251.000000 
	C320.206635,251.000000 330.849731,251.000000 342.487976,251.000000 
M467.960571,129.354843 
	C469.543671,124.640694 471.126740,119.926544 472.781158,115.000000 
	C459.591064,115.000000 446.608368,114.971428 433.625916,115.015671 
	C429.154541,115.030907 423.608093,113.669472 420.526764,115.796516 
	C417.663666,117.772934 417.351074,123.533569 416.052551,127.671112 
	C411.123352,143.377472 406.249695,159.101273 401.298767,174.999969 
	C416.907776,174.999969 432.237518,175.105637 447.561371,174.853928 
	C449.296753,174.825439 451.984802,173.155563 452.562622,171.619263 
	C457.748962,157.829834 462.561615,143.899887 467.960571,129.354843 
M153.000153,162.431854 
	C153.794617,166.521912 154.589081,170.611984 155.369720,174.630920 
	C171.250031,174.630920 187.069962,174.630920 202.706375,174.630920 
	C199.640182,154.646729 196.625092,134.995697 193.610291,115.346436 
	C177.434906,115.346436 161.276367,115.346436 145.184158,115.346436 
	C147.826202,130.962250 150.413010,146.251709 153.000153,162.431854 
M394.001740,197.445633 
	C388.455231,215.232666 382.908722,233.019699 377.301971,250.999969 
	C391.970673,250.999969 406.270020,250.921188 420.566956,251.071274 
	C423.196075,251.098892 424.249420,250.070251 425.020294,247.817139 
	C427.037323,241.921921 429.237640,236.089661 431.336334,230.222092 
	C435.502655,218.573715 439.649780,206.918488 443.899689,195.000031 
	C428.342224,195.000031 413.378052,194.956573 398.415100,195.068863 
	C396.957581,195.079803 395.507294,196.051636 394.001740,197.445633 
M190.496216,195.000000 
	C180.057892,195.000000 169.619568,195.000000 158.610565,195.000000 
	C161.850616,213.953629 164.997620,232.362885 168.148636,250.795563 
	C183.519348,250.795563 198.590668,250.795563 214.479736,250.795563 
	C211.594803,232.027740 208.758926,213.579010 205.903015,195.000000 
	C200.779755,195.000000 196.137115,195.000000 190.496216,195.000000 
M349.581879,401.948090 
	C339.257324,411.912659 333.848846,423.507446 336.965179,438.228699 
	C340.435791,454.623596 354.282501,466.127167 369.041443,467.879822 
	C394.097168,470.855286 415.189545,447.830048 410.203369,423.607056 
	C406.660767,406.396881 391.510254,393.535095 373.812347,393.072113 
	C364.983063,392.841156 357.190460,396.350677 349.581879,401.948090 
M173.997696,416.648376 
	C172.998795,420.177826 171.333664,423.665894 171.111252,427.243622 
	C169.852371,447.494873 183.296783,464.798187 203.672684,467.813080 
	C228.393234,471.470856 250.202393,447.759674 245.258667,423.738159 
	C241.647232,406.189972 225.600723,392.489471 207.559799,393.155731 
	C192.067291,393.727783 181.025620,402.105713 173.997696,416.648376 
z"/>
<path fill="#FFFFFF" opacity="1.000000" stroke="none" 
	d="
M104.398567,217.767456 
	C109.957474,218.614777 114.207794,222.928421 113.953712,227.310318 
	C113.621735,233.035736 109.044037,237.468033 102.936508,237.977524 
	C98.758057,238.326111 93.619255,233.823059 93.003403,229.273331 
	C92.272324,223.872299 95.429977,219.131912 100.561844,218.011047 
	C101.702187,217.761978 102.885605,217.710129 104.398567,217.767456 
z"/>
<path fill="#FFFFFF" opacity="1.000000" stroke="none" 
	d="
M352.362701,95.000504 
	C360.914062,95.000916 364.145569,98.031364 364.000000,105.514740 
	C363.890015,111.169258 359.761658,115.049057 353.907257,114.999863 
	C347.996582,114.950195 344.094025,111.177345 343.999969,105.421867 
	C343.900574,99.336693 345.582855,97.128136 352.362701,95.000504 
z"/>
<path fill="#000000" opacity="1.000000" stroke="none" 
	d="
M218.202911,115.000000 
	C241.968216,115.000000 265.256989,115.000000 288.772095,115.000000 
	C288.772095,135.071381 288.772095,154.806046 288.772095,174.770691 
	C266.920349,174.770691 245.174591,174.770691 223.198303,174.770691 
	C220.107895,154.954071 217.024536,135.182770 213.877029,115.000008 
	C215.447372,115.000008 216.586868,115.000008 218.202911,115.000000 
z"/>
<path fill="#000000" opacity="1.000000" stroke="none" 
	d="
M230.998657,224.154114 
	C229.422989,214.270782 227.848526,204.838135 226.239288,195.197174 
	C247.057785,195.197174 267.777740,195.197174 288.749084,195.197174 
	C288.749084,213.681793 288.749084,232.074066 288.749084,250.733734 
	C271.007111,250.733734 253.272156,250.733734 234.970337,250.733734 
	C233.660095,242.111374 232.329971,233.358078 230.998657,224.154114 
z"/>
<path fill="#000000" opacity="1.000000" stroke="none" 
	d="
M341.990417,251.000000 
	C330.849731,251.000000 320.206635,251.000000 309.282471,251.000000 
	C309.282471,232.369583 309.282471,213.964325 309.282471,195.278870 
	C330.660095,195.278870 352.088165,195.278870 373.582367,195.278870 
	C370.024139,206.617920 366.450867,218.084488 362.822876,229.533707 
	C360.934113,235.494400 358.763519,241.372864 357.087097,247.390686 
	C356.275696,250.303314 354.948364,251.318481 351.982178,251.061218 
	C348.839325,250.788620 345.654480,251.000000 341.990417,251.000000 
z"/>
<path fill="#000000" opacity="1.000000" stroke="none" 
	d="
M467.722321,129.683029 
	C462.561615,143.899887 457.748962,157.829834 452.562622,171.619263 
	C451.984802,173.155563 449.296753,174.825439 447.561371,174.853928 
	C432.237518,175.105637 416.907776,174.999969 401.298767,174.999969 
	C406.249695,159.101273 411.123352,143.377472 416.052551,127.671112 
	C417.351074,123.533569 417.663666,117.772934 420.526764,115.796516 
	C423.608093,113.669472 429.154541,115.030907 433.625916,115.015671 
	C446.608368,114.971428 459.591064,115.000000 472.781158,115.000000 
	C471.126740,119.926544 469.543671,124.640694 467.722321,129.683029 
z"/>
<path fill="#000000" opacity="1.000000" stroke="none" 
	d="
M153.000000,161.986511 
	C150.413010,146.251709 147.826202,130.962250 145.184158,115.346436 
	C161.276367,115.346436 177.434906,115.346436 193.610291,115.346436 
	C196.625092,134.995697 199.640182,154.646729 202.706375,174.630920 
	C187.069962,174.630920 171.250031,174.630920 155.369720,174.630920 
	C154.589081,170.611984 153.794617,166.521912 153.000000,161.986511 
z"/>
<path fill="#000000" opacity="1.000000" stroke="none" 
	d="
M394.027710,197.011536 
	C395.507294,196.051636 396.957581,195.079803 398.415100,195.068863 
	C413.378052,194.956573 428.342224,195.000031 443.899689,195.000031 
	C439.649780,206.918488 435.502655,218.573715 431.336334,230.222092 
	C429.237640,236.089661 427.037323,241.921921 425.020294,247.817139 
	C424.249420,250.070251 423.196075,251.098892 420.566956,251.071274 
	C406.270020,250.921188 391.970673,250.999969 377.301971,250.999969 
	C382.908722,233.019699 388.455231,215.232666 394.027710,197.011536 
z"/>
<path fill="#000000" opacity="1.000000" stroke="none" 
	d="
M190.995331,195.000000 
	C196.137115,195.000000 200.779755,195.000000 205.903015,195.000000 
	C208.758926,213.579010 211.594803,232.027740 214.479736,250.795563 
	C198.590668,250.795563 183.519348,250.795563 168.148636,250.795563 
	C164.997620,232.362885 161.850616,213.953629 158.610565,195.000000 
	C169.619568,195.000000 180.057892,195.000000 190.995331,195.000000 
z"/>
<path fill="#000000" opacity="1.000000" stroke="none" 
	d="
M349.828125,401.676025 
	C357.190460,396.350677 364.983063,392.841156 373.812347,393.072113 
	C391.510254,393.535095 406.660767,406.396881 410.203369,423.607056 
	C415.189545,447.830048 394.097168,470.855286 369.041443,467.879822 
	C354.282501,466.127167 340.435791,454.623596 336.965179,438.228699 
	C333.848846,423.507446 339.257324,411.912659 349.828125,401.676025 
M371.752014,457.999908 
	C388.034698,459.196930 400.716858,445.740967 400.948151,431.196411 
	C401.205536,415.011536 388.012787,401.639496 369.288055,403.935760 
	C350.090546,406.289978 340.291229,428.593353 349.992676,444.499023 
	C354.809998,452.397095 361.928986,456.546478 371.752014,457.999908 
z"/>
<path fill="#000000" opacity="1.000000" stroke="none" 
	d="
M174.010437,416.248230 
	C181.025620,402.105713 192.067291,393.727783 207.559799,393.155731 
	C225.600723,392.489471 241.647232,406.189972 245.258667,423.738159 
	C250.202393,447.759674 228.393234,471.470856 203.672684,467.813080 
	C183.296783,464.798187 169.852371,447.494873 171.111252,427.243622 
	C171.333664,423.665894 172.998795,420.177826 174.010437,416.248230 
M230.062866,413.597137 
	C223.419693,406.183167 215.422089,403.084290 205.232666,403.853149 
	C185.329193,405.355072 174.258621,429.376312 185.999054,446.057770 
	C192.419815,455.180725 201.547348,459.223083 212.203506,457.790405 
	C222.750427,456.372437 230.283508,450.256805 234.151733,439.710114 
	C237.599091,430.310852 235.622223,422.100555 230.062866,413.597137 
z"/>
<path fill="#FFFFFF" opacity="1.000000" stroke="none" 
	d="
M371.303467,457.999146 
	C361.928986,456.546478 354.809998,452.397095 349.992676,444.499023 
	C340.291229,428.593353 350.090546,406.289978 369.288055,403.935760 
	C388.012787,401.639496 401.205536,415.011536 400.948151,431.196411 
	C400.716858,445.740967 388.034698,459.196930 371.303467,457.999146 
M366.649048,431.115784 
	C366.967651,435.362213 369.896606,437.690918 373.499481,437.778015 
	C376.497742,437.850464 379.371948,436.448120 380.461395,432.365387 
	C381.546967,428.297150 379.279175,426.401306 376.989563,424.629852 
	C373.018524,421.557587 368.671570,424.071167 366.649048,431.115784 
z"/>
<path fill="#FFFFFF" opacity="1.000000" stroke="none" 
	d="
M230.339783,413.844543 
	C235.622223,422.100555 237.599091,430.310852 234.151733,439.710114 
	C230.283508,450.256805 222.750427,456.372437 212.203506,457.790405 
	C201.547348,459.223083 192.419815,455.180725 185.999054,446.057770 
	C174.258621,429.376312 185.329193,405.355072 205.232666,403.853149 
	C215.422089,403.084290 223.419693,406.183167 230.339783,413.844543 
M213.526321,426.016815 
	C210.278091,422.740997 206.991211,422.572266 203.625122,425.856628 
	C200.572281,428.835419 200.647751,432.370544 203.152252,435.188507 
	C205.571548,437.910614 209.171997,438.694550 212.670441,436.694824 
	C215.412186,435.127563 216.015228,430.021301 213.526321,426.016815 
z"/>
<path fill="#000000" opacity="1.000000" stroke="none" 
	d="
M366.382233,430.835693 
	C368.671570,424.071167 373.018524,421.557587 376.989563,424.629852 
	C379.279175,426.401306 381.546967,428.297150 380.461395,432.365387 
	C379.371948,436.448120 376.497742,437.850464 373.499481,437.778015 
	C369.896606,437.690918 366.967651,435.362213 366.382233,430.835693 
z"/>
<path fill="#000000" opacity="1.000000" stroke="none" 
	d="
M213.786926,426.296326 
	C216.015228,430.021301 215.412186,435.127563 212.670441,436.694824 
	C209.171997,438.694550 205.571548,437.910614 203.152252,435.188507 
	C200.647751,432.370544 200.572281,428.835419 203.625122,425.856628 
	C206.991211,422.572266 210.278091,422.740997 213.786926,426.296326 
z"/>
</svg>