<svg version="1.1" id="Layer_1" xmlns="http://www.w3.org/2000/svg" xmlns:xlink="http://www.w3.org/1999/xlink" x="0px" y="0px"
	 width="100%" viewBox="0 0 512 512" enable-background="new 0 0 512 512" xml:space="preserve">
<path fill="#FFFFFF" opacity="1.000000" stroke="none" 
	d="
M513.000000,242.000000 
	C513.000000,252.020889 513.000000,262.041779 512.673950,272.236908 
	C511.912354,272.882050 511.234528,273.283630 511.077026,273.834106 
	C507.767487,285.402435 501.627350,295.207703 492.460632,302.961212 
	C482.476501,311.406067 471.073944,316.942383 457.769775,316.950500 
	C324.657074,317.031952 191.544281,317.028320 58.431664,316.898834 
	C52.983585,316.893524 47.230938,316.264374 42.143719,314.454437 
	C22.345901,307.410583 8.668253,294.168091 2.931177,273.469208 
	C2.759201,272.848724 1.664492,272.483978 0.999999,272.000000 
	C1.000000,261.979095 1.000000,251.958206 1.326053,241.763107 
	C5.433812,234.400375 8.370666,226.581223 13.169751,220.152145 
	C23.786131,205.929947 38.336601,197.174072 56.294975,197.139374 
	C189.390396,196.882156 322.486572,196.971649 455.582367,197.101471 
	C461.029175,197.106781 466.766602,197.763962 471.869019,199.547043 
	C491.764069,206.499481 505.279327,219.888168 511.068542,240.531128 
	C511.242798,241.152435 512.335510,241.516174 513.000000,242.000000 
M120.975975,267.030914 
	C118.763313,278.005859 113.764893,287.736755 106.974571,297.000000 
	C221.432449,297.000000 335.251617,297.088409 449.070099,296.839966 
	C458.653229,296.819061 467.854889,294.581726 476.364258,288.528320 
	C495.447113,274.953003 497.280762,245.618011 481.133453,229.483032 
	C471.785706,220.142426 460.315338,217.102051 447.932831,217.085846 
	C335.946747,216.939240 223.960388,217.000000 111.974106,217.000000 
	C110.502998,217.000000 109.031891,217.000000 107.747192,217.000000 
	C111.183121,223.530777 114.887695,229.870575 117.925903,236.515076 
	C122.241913,245.954193 120.865936,256.144409 120.975975,267.030914 
M84.009293,225.508667 
	C75.367676,217.687500 64.530899,216.352722 54.132355,218.269028 
	C24.265451,223.773071 12.771691,257.812866 29.519829,280.349518 
	C41.074673,295.897949 62.560978,300.321411 78.130127,292.280365 
	C92.356781,284.932709 100.137093,273.291107 100.062057,256.758545 
	C100.003242,243.798950 95.009666,233.584793 84.009293,225.508667 
z"/>
<path fill="#FFFFFF" opacity="1.000000" stroke="none" 
	d="
M513.000000,82.000000 
	C513.000000,91.687561 513.000000,101.375122 512.663757,111.234909 
	C508.552002,118.936836 505.734619,127.174355 500.803162,133.850128 
	C490.263336,148.118011 475.646484,156.826859 457.687622,156.861374 
	C324.598053,157.117188 191.507751,157.028366 58.417816,156.898590 
	C52.971161,156.893280 47.220715,156.258911 42.134022,154.449539 
	C22.337408,147.407745 8.670778,134.159576 2.931153,113.468620 
	C2.759065,112.848251 1.664485,112.483780 1.000001,112.000000 
	C1.000000,101.979103 1.000000,91.958214 1.326302,81.763130 
	C5.432185,74.421471 8.365541,66.620049 13.163506,60.215496 
	C23.904602,45.877781 38.486675,37.126297 56.730408,37.100639 
	C189.677246,36.913647 322.624512,36.971653 455.571503,37.101265 
	C461.019501,37.106575 466.759369,37.758259 471.861481,39.543152 
	C491.752502,46.501709 505.282349,59.880470 511.068481,80.530640 
	C511.242584,81.152039 512.335510,81.515999 513.000000,82.000000 
M140.500000,57.000000 
	C115.671776,57.000000 90.841064,56.809925 66.017128,57.136234 
	C59.957321,57.215889 53.665154,58.217468 47.915314,60.114868 
	C20.503916,69.160431 13.634295,103.846161 32.117813,123.703636 
	C41.382576,133.657089 53.162212,136.911255 65.961700,136.925858 
	C178.272461,137.053955 290.583435,137.000000 402.894348,137.000000 
	C404.122467,137.000000 405.350555,137.000000 406.909882,137.000000 
	C387.648407,110.047615 387.777161,83.581833 406.854584,57.000000 
	C318.111053,57.000000 229.805527,57.000000 140.500000,57.000000 
M487.049225,116.486862 
	C492.579742,108.410255 493.239441,99.045601 491.756744,90.116791 
	C488.676514,71.567551 471.578949,57.602600 452.635315,57.774456 
	C429.835236,57.981304 409.809387,78.263062 414.230408,103.754768 
	C418.334076,127.416496 441.122803,141.520905 465.232635,134.345154 
	C474.801910,131.497070 481.322052,124.966087 487.049225,116.486862 
z"/>
<path fill="#FFFFFF" opacity="1.000000" stroke="none" 
	d="
M513.000000,402.000000 
	C513.000000,411.687561 513.000000,421.375122 512.663818,431.234894 
	C508.552063,438.936859 505.734772,447.174500 500.803162,453.850281 
	C490.263245,468.117981 475.646393,476.826874 457.687500,476.861389 
	C324.597961,477.117188 191.507675,477.028381 58.417763,476.898621 
	C52.971111,476.893311 47.220699,476.258820 42.134007,474.449463 
	C22.337406,467.407654 8.670759,454.159546 2.931147,433.468597 
	C2.759065,432.848236 1.664481,432.483765 1.000000,432.000000 
	C1.000000,421.979095 1.000000,411.958221 1.326305,401.763123 
	C5.432193,394.421387 8.365456,386.619843 13.163540,380.215332 
	C23.904779,365.877808 38.486771,357.126282 56.730576,357.100616 
	C189.677368,356.913666 322.624573,356.971649 455.571503,357.101257 
	C461.019501,357.106567 466.759369,357.758240 471.861481,359.543182 
	C491.752502,366.501709 505.282410,379.880463 511.068512,400.530670 
	C511.242584,401.152069 512.335510,401.515991 513.000000,402.000000 
M388.498840,457.000000 
	C394.528656,457.000000 400.558502,457.000000 406.908203,457.000000 
	C387.655701,429.992279 387.800690,403.544556 406.857971,377.000000 
	C292.534180,377.000000 178.723892,376.956757 64.913925,377.127136 
	C59.197990,377.135681 53.242737,378.276245 47.811157,380.110474 
	C20.408960,389.364197 13.659048,423.963562 32.190231,443.775604 
	C41.473797,453.700836 53.273464,456.909882 66.063553,456.925537 
	C173.208649,457.056458 280.354004,457.000000 388.498840,457.000000 
M414.000000,420.307495 
	C415.474091,442.807495 436.488434,460.510651 460.604736,455.537567 
	C483.384094,450.840240 495.212128,431.665771 491.751648,410.458984 
	C487.911682,386.926727 465.395905,372.455261 440.984375,379.562286 
	C426.592010,383.752350 412.106750,399.274841 414.000000,420.307495 
z"/>
<path fill="#000000" opacity="1.000000" stroke="none" 
	d="
M1.000001,112.468658 
	C1.664485,112.483780 2.759065,112.848251 2.931153,113.468620 
	C8.670778,134.159576 22.337408,147.407745 42.134022,154.449539 
	C47.220715,156.258911 52.971161,156.893280 58.417816,156.898590 
	C191.507751,157.028366 324.598053,157.117188 457.687622,156.861374 
	C475.646484,156.826859 490.263336,148.118011 500.803162,133.850128 
	C505.734619,127.174355 508.552002,118.936836 512.663757,111.703568 
	C513.000000,155.020889 513.000000,198.041794 513.000000,241.531342 
	C512.335510,241.516174 511.242798,241.152435 511.068542,240.531128 
	C505.279327,219.888168 491.764069,206.499481 471.869019,199.547043 
	C466.766602,197.763962 461.029175,197.106781 455.582367,197.101471 
	C322.486572,196.971649 189.390396,196.882156 56.294975,197.139374 
	C38.336601,197.174072 23.786131,205.929947 13.169751,220.152145 
	C8.370666,226.581223 5.433812,234.400375 1.326053,241.294449 
	C1.000000,198.312439 1.000000,155.624878 1.000001,112.468658 
z"/>
<path fill="#000000" opacity="1.000000" stroke="none" 
	d="
M513.000000,401.531342 
	C512.335510,401.515991 511.242584,401.152069 511.068512,400.530670 
	C505.282410,379.880463 491.752502,366.501709 471.861481,359.543182 
	C466.759369,357.758240 461.019501,357.106567 455.571503,357.101257 
	C322.624573,356.971649 189.677368,356.913666 56.730576,357.100616 
	C38.486771,357.126282 23.904779,365.877808 13.163540,380.215332 
	C8.365456,386.619843 5.432193,394.421387 1.326305,401.294464 
	C1.000000,358.312439 1.000000,315.624878 0.999999,272.468658 
	C1.664492,272.483978 2.759201,272.848724 2.931177,273.469208 
	C8.668253,294.168091 22.345901,307.410583 42.143719,314.454437 
	C47.230938,316.264374 52.983585,316.893524 58.431664,316.898834 
	C191.544281,317.028320 324.657074,317.031952 457.769775,316.950500 
	C471.073944,316.942383 482.476501,311.406067 492.460632,302.961212 
	C501.627350,295.207703 507.767487,285.402435 511.077026,273.834106 
	C511.234528,273.283630 511.912354,272.882050 512.673950,272.705566 
	C513.000000,315.687561 513.000000,358.375122 513.000000,401.531342 
z"/>
<path fill="#000000" opacity="1.000000" stroke="none" 
	d="
M1.000000,432.468658 
	C1.664481,432.483765 2.759065,432.848236 2.931147,433.468597 
	C8.670759,454.159546 22.337406,467.407654 42.134007,474.449463 
	C47.220699,476.258820 52.971111,476.893311 58.417763,476.898621 
	C191.507675,477.028381 324.597961,477.117188 457.687500,476.861389 
	C475.646393,476.826874 490.263245,468.117981 500.803162,453.850281 
	C505.734772,447.174500 508.552063,438.936859 512.663818,431.703552 
	C513.000000,458.982452 513.000000,485.964935 513.000000,512.945068 
	C342.333313,512.942749 171.666656,512.942749 1.000000,512.942749 
	C1.000000,486.236115 1.000000,459.586700 1.000000,432.468658 
z"/>
<path fill="#000000" opacity="1.000000" stroke="none" 
	d="
M513.000000,81.531342 
	C512.335510,81.515999 511.242584,81.152039 511.068481,80.530640 
	C505.282349,59.880470 491.752502,46.501709 471.861481,39.543152 
	C466.759369,37.758259 461.019501,37.106575 455.571503,37.101265 
	C322.624512,36.971653 189.677246,36.913647 56.730408,37.100639 
	C38.486675,37.126297 23.904602,45.877781 13.163506,60.215496 
	C8.365541,66.620049 5.432185,74.421471 1.326302,81.294472 
	C1.000000,54.350666 1.000000,27.701332 1.000003,1.054720 
	C171.666672,1.057441 342.333344,1.057441 513.000000,1.057441 
	C513.000000,27.764149 513.000000,54.413418 513.000000,81.531342 
z"/>
<path fill="#000000" opacity="1.000000" stroke="none" 
	d="
M120.987198,266.569092 
	C120.865936,256.144409 122.241913,245.954193 117.925903,236.515076 
	C114.887695,229.870575 111.183121,223.530777 107.747192,217.000000 
	C109.031891,217.000000 110.502998,217.000000 111.974106,217.000000 
	C223.960388,217.000000 335.946747,216.939240 447.932831,217.085846 
	C460.315338,217.102051 471.785706,220.142426 481.133453,229.483032 
	C497.280762,245.618011 495.447113,274.953003 476.364258,288.528320 
	C467.854889,294.581726 458.653229,296.819061 449.070099,296.839966 
	C335.251617,297.088409 221.432449,297.000000 106.974571,297.000000 
	C113.764893,287.736755 118.763313,278.005859 120.987198,266.569092 
M407.499725,267.000000 
	C412.995728,267.000000 418.491821,267.020050 423.987701,266.994598 
	C429.977753,266.966858 432.997345,263.620453 433.000000,257.067474 
	C433.002655,250.514603 429.958618,247.009338 424.122711,247.008163 
	C359.336060,246.995224 294.549377,246.994217 229.762756,247.038834 
	C228.379044,247.039780 226.812851,247.306702 225.645096,247.987198 
	C221.449173,250.432434 219.177612,256.439697 221.184052,261.126617 
	C222.923584,265.190033 226.179306,267.118988 231.126450,267.105133 
	C289.583893,266.941681 348.041931,267.000000 407.499725,267.000000 
M182.382553,251.073868 
	C179.338089,256.514648 180.601364,262.731323 185.392044,265.883759 
	C189.397461,268.519440 196.247986,267.289948 199.161743,263.412445 
	C202.280060,259.262695 201.673660,252.056992 197.948715,248.998505 
	C193.725983,245.531296 187.186188,246.169540 182.382553,251.073868 
z"/>
<path fill="#000000" opacity="1.000000" stroke="none" 
	d="
M84.299606,225.735947 
	C95.009666,233.584793 100.003242,243.798950 100.062057,256.758545 
	C100.137093,273.291107 92.356781,284.932709 78.130127,292.280365 
	C62.560978,300.321411 41.074673,295.897949 29.519829,280.349518 
	C12.771691,257.812866 24.265451,223.773071 54.132355,218.269028 
	C64.530899,216.352722 75.367676,217.687500 84.299606,225.735947 
z"/>
<path fill="#000000" opacity="1.000000" stroke="none" 
	d="
M141.000000,57.000000 
	C229.805527,57.000000 318.111053,57.000000 406.854584,57.000000 
	C387.777161,83.581833 387.648407,110.047615 406.909882,137.000000 
	C405.350555,137.000000 404.122467,137.000000 402.894348,137.000000 
	C290.583435,137.000000 178.272461,137.053955 65.961700,136.925858 
	C53.162212,136.911255 41.382576,133.657089 32.117813,123.703636 
	C13.634295,103.846161 20.503916,69.160431 47.915314,60.114868 
	C53.665154,58.217468 59.957321,57.215889 66.017128,57.136234 
	C90.841064,56.809925 115.671776,57.000000 141.000000,57.000000 
M117.500000,107.000000 
	C172.960007,107.000000 228.419998,107.003540 283.880005,106.994743 
	C289.677277,106.993820 292.973053,103.590065 293.000031,97.674828 
	C293.032288,90.598907 290.136169,87.011017 284.230408,87.009621 
	C219.443756,86.994301 154.657120,86.995178 89.870476,87.008224 
	C84.036674,87.009399 80.997093,90.515144 81.000008,97.074303 
	C81.002914,103.618385 84.029327,106.976524 90.019104,106.993530 
	C98.846008,107.018600 107.673027,107.000000 117.500000,107.000000 
M315.044373,89.626778 
	C314.362915,92.207649 313.519379,94.758530 313.035187,97.375885 
	C312.146973,102.177216 315.051483,105.678154 318.874451,106.644333 
	C322.906372,107.663315 327.823151,108.407425 331.115417,103.590599 
	C333.944061,99.452049 333.752563,95.446373 331.755676,91.272034 
	C329.333466,86.208649 321.403076,85.338203 315.044373,89.626778 
z"/>
<path fill="#000000" opacity="1.000000" stroke="none" 
	d="
M487.013367,116.864227 
	C481.322052,124.966087 474.801910,131.497070 465.232635,134.345154 
	C441.122803,141.520905 418.334076,127.416496 414.230408,103.754768 
	C409.809387,78.263062 429.835236,57.981304 452.635315,57.774456 
	C471.578949,57.602600 488.676514,71.567551 491.756744,90.116791 
	C493.239441,99.045601 492.579742,108.410255 487.013367,116.864227 
z"/>
<path fill="#000000" opacity="1.000000" stroke="none" 
	d="
M387.999054,457.000000 
	C280.354004,457.000000 173.208649,457.056458 66.063553,456.925537 
	C53.273464,456.909882 41.473797,453.700836 32.190231,443.775604 
	C13.659048,423.963562 20.408960,389.364197 47.811157,380.110474 
	C53.242737,378.276245 59.197990,377.135681 64.913925,377.127136 
	C178.723892,376.956757 292.534180,377.000000 406.857971,377.000000 
	C387.800690,403.544556 387.655701,429.992279 406.908203,457.000000 
	C400.558502,457.000000 394.528656,457.000000 387.999054,457.000000 
M288.252838,407.819580 
	C286.689117,407.546387 285.125549,407.035217 283.561646,407.034241 
	C219.252884,406.994202 154.944092,406.998718 90.635307,407.001923 
	C84.172791,407.002258 81.006523,410.240112 81.000000,416.814697 
	C80.993080,423.786774 84.062996,426.998322 90.764542,426.998596 
	C154.906723,427.001007 219.049042,426.947510 283.190826,427.105835 
	C288.000061,427.117706 290.959991,425.004547 292.777222,421.294464 
	C294.757263,417.252014 292.611877,411.215759 288.252838,407.819580 
M328.926147,408.382568 
	C323.485443,405.338043 317.268738,406.601318 314.116272,411.392029 
	C311.480530,415.397461 312.709991,422.247986 316.587494,425.161713 
	C320.737305,428.280060 327.942963,427.673676 331.001465,423.948700 
	C334.468750,419.725861 333.830505,413.186066 328.926147,408.382568 
z"/>
<path fill="#000000" opacity="1.000000" stroke="none" 
	d="
M414.000000,419.836182 
	C412.106750,399.274841 426.592010,383.752350 440.984375,379.562286 
	C465.395905,372.455261 487.911682,386.926727 491.751648,410.458984 
	C495.212128,431.665771 483.384094,450.840240 460.604736,455.537567 
	C436.488434,460.510651 415.474091,442.807495 414.000000,419.836182 
z"/>
<path fill="#FFFFFF" opacity="1.000000" stroke="none" 
	d="
M406.999756,267.000000 
	C348.041931,267.000000 289.583893,266.941681 231.126450,267.105133 
	C226.179306,267.118988 222.923584,265.190033 221.184052,261.126617 
	C219.177612,256.439697 221.449173,250.432434 225.645096,247.987198 
	C226.812851,247.306702 228.379044,247.039780 229.762756,247.038834 
	C294.549377,246.994217 359.336060,246.995224 424.122711,247.008163 
	C429.958618,247.009338 433.002655,250.514603 433.000000,257.067474 
	C432.997345,263.620453 429.977753,266.966858 423.987701,266.994598 
	C418.491821,267.020050 412.995728,267.000000 406.999756,267.000000 
z"/>
<path fill="#FFFFFF" opacity="1.000000" stroke="none" 
	d="
M182.667908,250.767929 
	C187.186188,246.169540 193.725983,245.531296 197.948715,248.998505 
	C201.673660,252.056992 202.280060,259.262695 199.161743,263.412445 
	C196.247986,267.289948 189.397461,268.519440 185.392044,265.883759 
	C180.601364,262.731323 179.338089,256.514648 182.667908,250.767929 
z"/>
<path fill="#FFFFFF" opacity="1.000000" stroke="none" 
	d="
M117.000000,107.000000 
	C107.673027,107.000000 98.846008,107.018600 90.019104,106.993530 
	C84.029327,106.976524 81.002914,103.618385 81.000008,97.074303 
	C80.997093,90.515144 84.036674,87.009399 89.870476,87.008224 
	C154.657120,86.995178 219.443756,86.994301 284.230408,87.009621 
	C290.136169,87.011017 293.032288,90.598907 293.000031,97.674828 
	C292.973053,103.590065 289.677277,106.993820 283.880005,106.994743 
	C228.419998,107.003540 172.960007,107.000000 117.000000,107.000000 
z"/>
<path fill="#FFFFFF" opacity="1.000000" stroke="none" 
	d="
M315.341858,89.334961 
	C321.403076,85.338203 329.333466,86.208649 331.755676,91.272034 
	C333.752563,95.446373 333.944061,99.452049 331.115417,103.590599 
	C327.823151,108.407425 322.906372,107.663315 318.874451,106.644333 
	C315.051483,105.678154 312.146973,102.177216 313.035187,97.375885 
	C313.519379,94.758530 314.362915,92.207649 315.341858,89.334961 
z"/>
<path fill="#FFFFFF" opacity="1.000000" stroke="none" 
	d="
M288.580811,408.090149 
	C292.611877,411.215759 294.757263,417.252014 292.777222,421.294464 
	C290.959991,425.004547 288.000061,427.117706 283.190826,427.105835 
	C219.049042,426.947510 154.906723,427.001007 90.764542,426.998596 
	C84.062996,426.998322 80.993080,423.786774 81.000000,416.814697 
	C81.006523,410.240112 84.172791,407.002258 90.635307,407.001923 
	C154.944092,406.998718 219.252884,406.994202 283.561646,407.034241 
	C285.125549,407.035217 286.689117,407.546387 288.580811,408.090149 
z"/>
<path fill="#FFFFFF" opacity="1.000000" stroke="none" 
	d="
M329.232056,408.667908 
	C333.830505,413.186066 334.468750,419.725861 331.001465,423.948700 
	C327.942963,427.673676 320.737305,428.280060 316.587494,425.161713 
	C312.709991,422.247986 311.480530,415.397461 314.116272,411.392029 
	C317.268738,406.601318 323.485443,405.338043 329.232056,408.667908 
z"/>
</svg>