<svg version="1.1" id="Layer_1" xmlns="http://www.w3.org/2000/svg" xmlns:xlink="http://www.w3.org/1999/xlink" x="0px" y="0px"
	 width="100%" viewBox="0 0 512 512" enable-background="new 0 0 512 512" xml:space="preserve">
<path fill="#333333" opacity="1.000000" stroke="none" 
	d="
M513.000000,214.000000 
	C513.000000,313.627838 513.000000,413.255646 513.000000,512.941772 
	C342.438690,512.941772 171.877335,512.941772 1.000000,512.941772 
	C1.000000,413.977570 1.000000,314.954834 1.293597,215.133636 
	C4.076052,219.684616 5.647525,225.781357 9.259761,230.215668 
	C15.313188,237.646759 22.501572,244.199310 29.599234,250.699112 
	C31.228640,252.191269 34.606190,252.839966 36.872665,252.376785 
	C44.543621,250.809097 46.519058,242.900299 40.803497,236.561401 
	C36.461403,231.745743 31.605120,227.391830 26.950638,222.860184 
	C20.938032,217.006271 18.645521,210.195648 21.426586,202.011826 
	C24.135349,194.040771 29.976982,190.105637 38.043804,188.928619 
	C76.279343,183.349701 114.489983,177.593750 152.756577,172.237213 
	C168.842209,169.985535 180.184616,162.451065 187.385895,147.429901 
	C204.141815,112.478630 221.636597,77.881355 238.863968,43.156509 
	C242.150208,36.532528 246.967194,31.789974 254.791412,31.173635 
	C264.147766,30.436607 270.648773,34.082497 274.956757,42.783134 
	C292.377808,77.967537 309.809753,113.147125 327.041809,148.424164 
	C331.961212,158.495071 339.047211,166.231644 349.724152,169.552902 
	C356.614716,171.696335 364.024780,172.228912 371.230499,173.289963 
	C405.364410,178.316147 439.504608,183.299652 473.650635,188.242783 
	C482.429199,189.513611 489.718475,192.885269 492.702209,201.938766 
	C495.434998,210.230896 492.914825,217.264847 486.722870,223.194595 
	C477.586243,231.944305 468.453278,240.698685 459.396332,249.530685 
	C439.961853,268.482422 420.489838,287.397186 401.214630,306.510040 
	C393.476227,314.183228 388.821533,323.502136 389.824066,334.717926 
	C390.575653,343.126282 391.748840,351.517456 393.170807,359.841736 
	C398.920502,393.500824 404.925079,427.116455 410.649139,460.779816 
	C412.656281,472.583862 402.733795,483.994568 390.825531,482.583801 
	C384.495178,481.833862 378.243225,478.628326 372.428223,475.618591 
	C339.209991,458.425385 306.167999,440.892090 272.988739,423.623016 
	C262.927155,418.386139 252.238739,418.257812 242.225571,423.150055 
	C224.905182,431.612518 207.982239,440.887939 190.885269,449.808350 
	C170.693756,460.343353 150.564117,471.000610 130.257904,481.309875 
	C123.850365,484.562897 117.178017,483.719330 111.501678,479.211304 
	C105.582352,474.510284 102.192307,468.520630 103.624016,460.514252 
	C105.579605,449.578339 107.342674,438.608124 109.215782,427.657318 
	C113.407539,403.151031 117.660034,378.655090 121.796265,354.139465 
	C123.414696,344.546906 126.087181,335.002869 123.563622,325.132751 
	C119.983292,311.129333 109.388016,302.565216 99.038376,293.979462 
	C95.705399,291.214569 91.462357,292.015900 88.175774,295.197449 
	C85.110725,298.164520 84.479851,303.040833 87.182152,306.527344 
	C89.817543,309.927521 92.679390,313.310913 96.021423,315.974426 
	C105.367180,323.422699 107.158936,332.576447 104.983856,344.005981 
	C99.560364,372.505280 94.914970,401.153290 90.026627,429.753448 
	C88.239479,440.209503 85.929001,450.645447 85.144379,461.186371 
	C84.095810,475.273102 89.591118,487.016113 101.607849,494.878632 
	C114.727783,503.462952 128.423325,503.525452 142.237228,496.239136 
	C176.787964,478.014954 211.372421,459.854462 245.885696,441.559662 
	C253.435394,437.557709 260.746948,437.567291 268.206329,441.522308 
	C275.697449,445.494171 283.208679,449.428375 290.720947,453.360260 
	C318.998108,468.160187 347.158112,483.191101 375.611908,497.643433 
	C389.174133,504.531982 402.682953,502.527100 414.542084,493.348114 
	C426.416687,484.157227 431.046906,471.664276 428.429718,456.691864 
	C427.659546,452.285797 426.997833,447.860870 426.241119,443.452362 
	C420.659454,410.934784 415.361572,378.364227 409.325623,345.931061 
	C407.037292,333.635132 408.711151,324.019714 418.612244,315.111176 
	C435.433350,299.976349 451.127380,283.590851 467.339508,267.776550 
	C476.991577,258.361298 486.725952,249.030380 496.428131,239.666504 
	C503.704163,232.644150 510.117798,225.116776 511.450195,214.526108 
	C511.479980,214.289490 512.462097,214.172684 513.000000,214.000000 
M63.047817,281.872253 
	C69.436905,282.106964 74.370636,278.003479 74.148544,272.639587 
	C73.928040,267.313843 68.923759,263.094696 63.638653,263.900055 
	C59.340538,264.554993 56.867374,267.418030 56.109905,271.428345 
	C55.160702,276.453827 58.127579,279.492249 63.047817,281.872253 
z"/>
<path fill="#333333" opacity="1.000000" stroke="none" 
	d="
M1.000001,199.000000 
	C1.000000,133.031830 1.000000,67.063675 1.000000,1.047756 
	C171.552505,1.047756 342.105011,1.047756 513.000000,1.047756 
	C513.000000,66.353828 513.000000,131.708252 512.807495,197.992630 
	C511.885406,197.793411 510.954468,196.746109 510.456970,195.522568 
	C504.668030,181.285156 494.487457,172.529892 479.094543,170.241760 
	C471.537933,169.118484 463.971130,168.063965 456.411072,166.963470 
	C424.999420,162.390961 393.597626,157.749374 362.171326,153.279755 
	C353.957825,152.111572 347.861816,148.388580 344.226990,140.775681 
	C340.858612,133.720963 337.310577,126.752060 333.847321,119.742577 
	C319.783539,91.278145 305.794647,62.776394 291.632477,34.360985 
	C282.975006,16.990412 266.247620,8.933636 247.779373,13.300984 
	C235.672562,16.163986 227.419174,23.818516 221.962585,34.946220 
	C204.758011,70.031746 187.324234,105.004852 170.115738,140.088470 
	C166.260544,147.948227 160.424866,152.362762 151.656570,153.306259 
	C143.901215,154.140778 136.202103,155.496964 128.477463,156.618134 
	C99.371529,160.842697 70.303169,165.353561 41.145489,169.184464 
	C22.591539,171.622192 8.656145,179.340057 2.767090,198.180252 
	C2.636848,198.596924 1.609089,198.733032 1.000001,199.000000 
z"/>
<path fill="#FCFCFC" opacity="1.000000" stroke="none" 
	d="
M1.000001,199.466858 
	C1.609089,198.733032 2.636848,198.596924 2.767090,198.180252 
	C8.656145,179.340057 22.591539,171.622192 41.145489,169.184464 
	C70.303169,165.353561 99.371529,160.842697 128.477463,156.618134 
	C136.202103,155.496964 143.901215,154.140778 151.656570,153.306259 
	C160.424866,152.362762 166.260544,147.948227 170.115738,140.088470 
	C187.324234,105.004852 204.758011,70.031746 221.962585,34.946220 
	C227.419174,23.818516 235.672562,16.163986 247.779373,13.300984 
	C266.247620,8.933636 282.975006,16.990412 291.632477,34.360985 
	C305.794647,62.776394 319.783539,91.278145 333.847321,119.742577 
	C337.310577,126.752060 340.858612,133.720963 344.226990,140.775681 
	C347.861816,148.388580 353.957825,152.111572 362.171326,153.279755 
	C393.597626,157.749374 424.999420,162.390961 456.411072,166.963470 
	C463.971130,168.063965 471.537933,169.118484 479.094543,170.241760 
	C494.487457,172.529892 504.668030,181.285156 510.456970,195.522568 
	C510.954468,196.746109 511.885406,197.793411 512.807495,198.461288 
	C513.000000,203.022095 513.000000,208.044189 513.000000,213.533142 
	C512.462097,214.172684 511.479980,214.289490 511.450195,214.526108 
	C510.117798,225.116776 503.704163,232.644150 496.428131,239.666504 
	C486.725952,249.030380 476.991577,258.361298 467.339508,267.776550 
	C451.127380,283.590851 435.433350,299.976349 418.612244,315.111176 
	C408.711151,324.019714 407.037292,333.635132 409.325623,345.931061 
	C415.361572,378.364227 420.659454,410.934784 426.241119,443.452362 
	C426.997833,447.860870 427.659546,452.285797 428.429718,456.691864 
	C431.046906,471.664276 426.416687,484.157227 414.542084,493.348114 
	C402.682953,502.527100 389.174133,504.531982 375.611908,497.643433 
	C347.158112,483.191101 318.998108,468.160187 290.720947,453.360260 
	C283.208679,449.428375 275.697449,445.494171 268.206329,441.522308 
	C260.746948,437.567291 253.435394,437.557709 245.885696,441.559662 
	C211.372421,459.854462 176.787964,478.014954 142.237228,496.239136 
	C128.423325,503.525452 114.727783,503.462952 101.607849,494.878632 
	C89.591118,487.016113 84.095810,475.273102 85.144379,461.186371 
	C85.929001,450.645447 88.239479,440.209503 90.026627,429.753448 
	C94.914970,401.153290 99.560364,372.505280 104.983856,344.005981 
	C107.158936,332.576447 105.367180,323.422699 96.021423,315.974426 
	C92.679390,313.310913 89.817543,309.927521 87.182152,306.527344 
	C84.479851,303.040833 85.110725,298.164520 88.175774,295.197449 
	C91.462357,292.015900 95.705399,291.214569 99.038376,293.979462 
	C109.388016,302.565216 119.983292,311.129333 123.563622,325.132751 
	C126.087181,335.002869 123.414696,344.546906 121.796265,354.139465 
	C117.660034,378.655090 113.407539,403.151031 109.215782,427.657318 
	C107.342674,438.608124 105.579605,449.578339 103.624016,460.514252 
	C102.192307,468.520630 105.582352,474.510284 111.501678,479.211304 
	C117.178017,483.719330 123.850365,484.562897 130.257904,481.309875 
	C150.564117,471.000610 170.693756,460.343353 190.885269,449.808350 
	C207.982239,440.887939 224.905182,431.612518 242.225571,423.150055 
	C252.238739,418.257812 262.927155,418.386139 272.988739,423.623016 
	C306.167999,440.892090 339.209991,458.425385 372.428223,475.618591 
	C378.243225,478.628326 384.495178,481.833862 390.825531,482.583801 
	C402.733795,483.994568 412.656281,472.583862 410.649139,460.779816 
	C404.925079,427.116455 398.920502,393.500824 393.170807,359.841736 
	C391.748840,351.517456 390.575653,343.126282 389.824066,334.717926 
	C388.821533,323.502136 393.476227,314.183228 401.214630,306.510040 
	C420.489838,287.397186 439.961853,268.482422 459.396332,249.530685 
	C468.453278,240.698685 477.586243,231.944305 486.722870,223.194595 
	C492.914825,217.264847 495.434998,210.230896 492.702209,201.938766 
	C489.718475,192.885269 482.429199,189.513611 473.650635,188.242783 
	C439.504608,183.299652 405.364410,178.316147 371.230499,173.289963 
	C364.024780,172.228912 356.614716,171.696335 349.724152,169.552902 
	C339.047211,166.231644 331.961212,158.495071 327.041809,148.424164 
	C309.809753,113.147125 292.377808,77.967537 274.956757,42.783134 
	C270.648773,34.082497 264.147766,30.436607 254.791412,31.173635 
	C246.967194,31.789974 242.150208,36.532528 238.863968,43.156509 
	C221.636597,77.881355 204.141815,112.478630 187.385895,147.429901 
	C180.184616,162.451065 168.842209,169.985535 152.756577,172.237213 
	C114.489983,177.593750 76.279343,183.349701 38.043804,188.928619 
	C29.976982,190.105637 24.135349,194.040771 21.426586,202.011826 
	C18.645521,210.195648 20.938032,217.006271 26.950638,222.860184 
	C31.605120,227.391830 36.461403,231.745743 40.803497,236.561401 
	C46.519058,242.900299 44.543621,250.809097 36.872665,252.376785 
	C34.606190,252.839966 31.228640,252.191269 29.599234,250.699112 
	C22.501572,244.199310 15.313188,237.646759 9.259761,230.215668 
	C5.647525,225.781357 4.076052,219.684616 1.293597,214.667603 
	C1.000000,209.977905 1.000000,204.955811 1.000001,199.466858 
z"/>
<path fill="#F9F9F9" opacity="1.000000" stroke="none" 
	d="
M62.676086,281.738586 
	C58.127579,279.492249 55.160702,276.453827 56.109905,271.428345 
	C56.867374,267.418030 59.340538,264.554993 63.638653,263.900055 
	C68.923759,263.094696 73.928040,267.313843 74.148544,272.639587 
	C74.370636,278.003479 69.436905,282.106964 62.676086,281.738586 
z"/>
</svg>