<svg version="1.1" id="Layer_1" xmlns="http://www.w3.org/2000/svg" xmlns:xlink="http://www.w3.org/1999/xlink" x="0px" y="0px"
	 width="100%" viewBox="0 0 512 512" enable-background="new 0 0 512 512" xml:space="preserve">
<path fill="#000000" opacity="1.000000" stroke="none" 
	d="
M513.000000,220.000000 
	C513.000000,317.628204 513.000000,415.256378 513.000000,512.942261 
	C342.439026,512.942261 171.878052,512.942261 1.000000,512.942261 
	C1.000000,415.977600 1.000000,318.954834 1.382280,221.468506 
	C3.102250,223.423065 4.031316,226.216812 5.848748,228.193939 
	C13.492989,236.509796 21.229494,244.758804 29.304150,252.651794 
	C32.346508,255.625687 39.183670,254.390228 42.338821,251.168045 
	C45.748081,247.686340 46.706139,241.873398 43.592770,238.232300 
	C38.228821,231.959167 32.523949,225.940353 26.578875,220.212631 
	C21.510355,215.329407 20.790312,209.230545 22.431248,203.414383 
	C24.153036,197.311676 28.085497,192.078842 35.330898,190.993149 
	C44.142815,189.672729 52.948158,188.308487 61.759315,186.982925 
	C75.077477,184.979340 88.403908,183.029922 101.715714,180.985168 
	C109.722397,179.755310 117.694511,178.297592 125.706505,177.105942 
	C135.510269,175.647812 145.327408,174.265198 155.160675,173.023361 
	C168.650848,171.319672 179.694458,165.462738 185.900085,153.100479 
	C204.159210,116.726387 222.028824,80.156639 240.021896,43.649189 
	C243.430832,36.732555 249.039337,32.256607 256.541016,32.221962 
	C264.342407,32.185928 270.476379,36.256569 274.008972,43.735317 
	C280.050385,56.525345 286.190552,69.271118 292.473999,81.943855 
	C304.058228,105.307350 315.825104,128.580261 327.415222,151.940842 
	C332.232300,161.649948 339.801514,168.360184 350.137604,170.860748 
	C361.418152,173.589874 372.984802,175.213654 384.483124,176.944687 
	C397.185730,178.857025 409.969116,180.226868 422.686951,182.045364 
	C440.514832,184.594559 458.331696,187.232452 476.118622,190.050934 
	C483.904846,191.284729 489.789368,195.715256 491.630280,203.447617 
	C493.136536,209.774414 491.995789,215.929504 486.667297,220.965195 
	C473.756592,233.166428 461.110504,245.649338 448.436493,258.098816 
	C439.877594,266.506073 431.504456,275.102478 422.946075,283.510284 
	C418.593048,287.786682 413.828308,291.652954 409.584625,296.029388 
	C404.206085,301.576080 398.410309,306.948395 394.172150,313.313263 
	C388.684296,321.554962 386.748871,330.940857 388.893951,341.116547 
	C391.295654,352.509644 392.907562,364.069855 394.835114,375.562073 
	C396.576355,385.943512 398.247314,396.336884 400.008850,406.714844 
	C401.849945,417.561737 403.919006,428.372375 405.593964,439.244202 
	C406.955170,448.079773 408.260681,456.955383 408.894714,465.862793 
	C409.547241,475.030731 396.398956,485.038116 387.700623,480.925354 
	C374.942139,474.892792 362.377960,468.438629 349.835938,461.960876 
	C324.827423,449.044373 299.917297,435.937347 274.910187,423.018127 
	C265.053223,417.925720 254.594254,417.110016 244.312866,421.095673 
	C236.568008,424.098053 229.263824,428.259338 221.828476,432.032806 
	C210.641327,437.710358 199.477768,443.436432 188.363815,449.255737 
	C168.563065,459.623383 148.863205,470.185150 129.009033,480.448792 
	C118.661934,485.797760 104.379425,476.040527 105.101158,464.614807 
	C105.560486,457.343353 106.903084,450.118805 108.022720,442.900055 
	C109.711197,432.013855 111.494385,421.141479 113.342407,410.281097 
	C115.160042,399.599213 117.123070,388.942139 118.995895,378.269531 
	C120.897446,367.433258 122.558182,356.549774 124.710022,345.763885 
	C126.774673,335.415039 126.447273,325.506470 121.502914,315.944305 
	C116.457024,306.185730 108.283989,299.252838 99.862785,292.817078 
	C97.560791,291.057831 92.328072,291.131165 89.567284,292.552521 
	C86.944649,293.902740 84.552231,297.996613 84.252357,301.096283 
	C83.573845,308.109650 89.253677,311.965698 93.941727,315.970581 
	C101.124237,322.106354 106.930428,328.691742 104.076118,339.234070 
	C103.360115,341.878571 103.432480,344.726746 102.983330,347.455078 
	C101.273972,357.838440 99.526360,368.215729 97.742531,378.586578 
	C95.521111,391.501465 93.241730,404.406372 91.002373,417.318176 
	C89.177254,427.841492 87.103210,438.331512 85.654724,448.906860 
	C84.655212,456.204224 82.997337,463.905762 84.294937,470.935425 
	C89.157784,497.279449 117.265793,510.469147 140.789108,498.539490 
	C164.446732,486.541687 187.715958,473.778564 211.169556,461.377655 
	C222.826035,455.214325 234.574463,449.222107 246.165588,442.939026 
	C253.130646,439.163605 260.000305,438.795197 266.989105,442.485443 
	C283.334747,451.116272 299.613953,459.873230 315.979309,468.466278 
	C334.068359,477.964447 352.239319,487.306396 370.343018,496.776764 
	C379.253357,501.437897 388.273682,504.109985 398.649628,502.128479 
	C415.287537,498.951080 430.743073,484.063934 429.847168,465.976898 
	C429.276917,454.464783 427.538025,442.977234 425.759369,431.566559 
	C423.468231,416.868286 420.575745,402.264465 418.010956,387.607941 
	C415.388855,372.623871 413.099731,357.576172 410.169800,342.653564 
	C408.693695,335.135559 408.414703,328.192291 414.003845,322.261230 
	C417.351288,318.709015 420.979950,315.422119 424.474762,312.008392 
	C439.209961,297.615021 453.990692,283.267822 468.660034,268.807617 
	C479.815063,257.811676 491.048553,246.879272 501.783264,235.481628 
	C505.564178,231.467194 507.939392,226.136856 511.034180,221.458786 
	C511.457397,220.819000 512.333557,220.478867 513.000000,220.000000 
M55.000000,273.361725 
	C55.466991,280.117859 59.294884,283.375458 66.325577,282.999847 
	C72.028290,282.695221 75.208115,278.372772 74.999969,271.208466 
	C74.870224,266.742371 69.925728,262.166382 65.099014,262.045441 
	C59.710617,261.910400 55.097530,266.687775 55.000000,273.361725 
z"/>
<path fill="#000000" opacity="1.000000" stroke="none" 
	d="
M1.000001,196.000000 
	C1.000000,131.031525 1.000000,66.063049 1.000000,1.047288 
	C171.552353,1.047288 342.104736,1.047288 513.000000,1.047288 
	C513.000000,65.687157 513.000000,130.374924 512.680664,195.824585 
	C511.921570,196.122940 511.268738,195.735077 511.073151,195.184708 
	C506.721832,182.941681 498.796814,174.183548 485.951569,171.092789 
	C477.643402,169.093704 469.063019,168.223877 460.602875,166.859146 
	C450.523743,165.233246 440.461426,163.489380 430.357391,162.036026 
	C419.890411,160.530472 409.367065,159.418808 398.896271,157.937485 
	C388.140350,156.415848 377.454437,154.343613 366.670746,153.089813 
	C356.403748,151.896072 348.318573,148.483093 343.889282,138.140991 
	C338.958984,126.629112 333.214172,115.459160 327.643097,104.230072 
	C316.054016,80.870834 304.176239,57.653259 292.759979,34.210499 
	C287.314941,23.029348 278.896271,16.180023 267.113586,12.416510 
	C253.389297,8.032826 234.023483,14.319389 226.825012,25.693556 
	C223.150742,31.499193 219.832184,37.561935 216.762833,43.713047 
	C201.102463,75.097076 185.297043,106.414474 170.162155,138.051682 
	C165.230682,148.360199 157.519287,152.195374 146.951401,153.086975 
	C139.031601,153.755173 131.172348,155.173355 123.297562,156.335022 
	C113.027580,157.850006 102.775650,159.487946 92.503151,160.985107 
	C84.461632,162.157150 76.389992,163.123489 68.350998,164.311523 
	C58.246071,165.804855 48.203888,167.841675 38.057251,168.906906 
	C21.426973,170.652817 9.655487,178.665619 2.972610,194.070923 
	C2.633707,194.852173 1.671821,195.363174 1.000001,196.000000 
z"/>
<path fill="#FFFFFF" opacity="1.000000" stroke="none" 
	d="
M1.000001,196.468643 
	C1.671821,195.363174 2.633707,194.852173 2.972610,194.070923 
	C9.655487,178.665619 21.426973,170.652817 38.057251,168.906906 
	C48.203888,167.841675 58.246071,165.804855 68.350998,164.311523 
	C76.389992,163.123489 84.461632,162.157150 92.503151,160.985107 
	C102.775650,159.487946 113.027580,157.850006 123.297562,156.335022 
	C131.172348,155.173355 139.031601,153.755173 146.951401,153.086975 
	C157.519287,152.195374 165.230682,148.360199 170.162155,138.051682 
	C185.297043,106.414474 201.102463,75.097076 216.762833,43.713047 
	C219.832184,37.561935 223.150742,31.499193 226.825012,25.693556 
	C234.023483,14.319389 253.389297,8.032826 267.113586,12.416510 
	C278.896271,16.180023 287.314941,23.029348 292.759979,34.210499 
	C304.176239,57.653259 316.054016,80.870834 327.643097,104.230072 
	C333.214172,115.459160 338.958984,126.629112 343.889282,138.140991 
	C348.318573,148.483093 356.403748,151.896072 366.670746,153.089813 
	C377.454437,154.343613 388.140350,156.415848 398.896271,157.937485 
	C409.367065,159.418808 419.890411,160.530472 430.357391,162.036026 
	C440.461426,163.489380 450.523743,165.233246 460.602875,166.859146 
	C469.063019,168.223877 477.643402,169.093704 485.951569,171.092789 
	C498.796814,174.183548 506.721832,182.941681 511.073151,195.184708 
	C511.268738,195.735077 511.921570,196.122940 512.680664,196.293243 
	C513.000000,203.687576 513.000000,211.375168 513.000000,219.531372 
	C512.333557,220.478867 511.457397,220.819000 511.034180,221.458786 
	C507.939392,226.136856 505.564178,231.467194 501.783264,235.481628 
	C491.048553,246.879272 479.815063,257.811676 468.660034,268.807617 
	C453.990692,283.267822 439.209961,297.615021 424.474762,312.008392 
	C420.979950,315.422119 417.351288,318.709015 414.003845,322.261230 
	C408.414703,328.192291 408.693695,335.135559 410.169800,342.653564 
	C413.099731,357.576172 415.388855,372.623871 418.010956,387.607941 
	C420.575745,402.264465 423.468231,416.868286 425.759369,431.566559 
	C427.538025,442.977234 429.276917,454.464783 429.847168,465.976898 
	C430.743073,484.063934 415.287537,498.951080 398.649628,502.128479 
	C388.273682,504.109985 379.253357,501.437897 370.343018,496.776764 
	C352.239319,487.306396 334.068359,477.964447 315.979309,468.466278 
	C299.613953,459.873230 283.334747,451.116272 266.989105,442.485443 
	C260.000305,438.795197 253.130646,439.163605 246.165588,442.939026 
	C234.574463,449.222107 222.826035,455.214325 211.169556,461.377655 
	C187.715958,473.778564 164.446732,486.541687 140.789108,498.539490 
	C117.265793,510.469147 89.157784,497.279449 84.294937,470.935425 
	C82.997337,463.905762 84.655212,456.204224 85.654724,448.906860 
	C87.103210,438.331512 89.177254,427.841492 91.002373,417.318176 
	C93.241730,404.406372 95.521111,391.501465 97.742531,378.586578 
	C99.526360,368.215729 101.273972,357.838440 102.983330,347.455078 
	C103.432480,344.726746 103.360115,341.878571 104.076118,339.234070 
	C106.930428,328.691742 101.124237,322.106354 93.941727,315.970581 
	C89.253677,311.965698 83.573845,308.109650 84.252357,301.096283 
	C84.552231,297.996613 86.944649,293.902740 89.567284,292.552521 
	C92.328072,291.131165 97.560791,291.057831 99.862785,292.817078 
	C108.283989,299.252838 116.457024,306.185730 121.502914,315.944305 
	C126.447273,325.506470 126.774673,335.415039 124.710022,345.763885 
	C122.558182,356.549774 120.897446,367.433258 118.995895,378.269531 
	C117.123070,388.942139 115.160042,399.599213 113.342407,410.281097 
	C111.494385,421.141479 109.711197,432.013855 108.022720,442.900055 
	C106.903084,450.118805 105.560486,457.343353 105.101158,464.614807 
	C104.379425,476.040527 118.661934,485.797760 129.009033,480.448792 
	C148.863205,470.185150 168.563065,459.623383 188.363815,449.255737 
	C199.477768,443.436432 210.641327,437.710358 221.828476,432.032806 
	C229.263824,428.259338 236.568008,424.098053 244.312866,421.095673 
	C254.594254,417.110016 265.053223,417.925720 274.910187,423.018127 
	C299.917297,435.937347 324.827423,449.044373 349.835938,461.960876 
	C362.377960,468.438629 374.942139,474.892792 387.700623,480.925354 
	C396.398956,485.038116 409.547241,475.030731 408.894714,465.862793 
	C408.260681,456.955383 406.955170,448.079773 405.593964,439.244202 
	C403.919006,428.372375 401.849945,417.561737 400.008850,406.714844 
	C398.247314,396.336884 396.576355,385.943512 394.835114,375.562073 
	C392.907562,364.069855 391.295654,352.509644 388.893951,341.116547 
	C386.748871,330.940857 388.684296,321.554962 394.172150,313.313263 
	C398.410309,306.948395 404.206085,301.576080 409.584625,296.029388 
	C413.828308,291.652954 418.593048,287.786682 422.946075,283.510284 
	C431.504456,275.102478 439.877594,266.506073 448.436493,258.098816 
	C461.110504,245.649338 473.756592,233.166428 486.667297,220.965195 
	C491.995789,215.929504 493.136536,209.774414 491.630280,203.447617 
	C489.789368,195.715256 483.904846,191.284729 476.118622,190.050934 
	C458.331696,187.232452 440.514832,184.594559 422.686951,182.045364 
	C409.969116,180.226868 397.185730,178.857025 384.483124,176.944687 
	C372.984802,175.213654 361.418152,173.589874 350.137604,170.860748 
	C339.801514,168.360184 332.232300,161.649948 327.415222,151.940842 
	C315.825104,128.580261 304.058228,105.307350 292.473999,81.943855 
	C286.190552,69.271118 280.050385,56.525345 274.008972,43.735317 
	C270.476379,36.256569 264.342407,32.185928 256.541016,32.221962 
	C249.039337,32.256607 243.430832,36.732555 240.021896,43.649189 
	C222.028824,80.156639 204.159210,116.726387 185.900085,153.100479 
	C179.694458,165.462738 168.650848,171.319672 155.160675,173.023361 
	C145.327408,174.265198 135.510269,175.647812 125.706505,177.105942 
	C117.694511,178.297592 109.722397,179.755310 101.715714,180.985168 
	C88.403908,183.029922 75.077477,184.979340 61.759315,186.982925 
	C52.948158,188.308487 44.142815,189.672729 35.330898,190.993149 
	C28.085497,192.078842 24.153036,197.311676 22.431248,203.414383 
	C20.790312,209.230545 21.510355,215.329407 26.578875,220.212631 
	C32.523949,225.940353 38.228821,231.959167 43.592770,238.232300 
	C46.706139,241.873398 45.748081,247.686340 42.338821,251.168045 
	C39.183670,254.390228 32.346508,255.625687 29.304150,252.651794 
	C21.229494,244.758804 13.492989,236.509796 5.848748,228.193939 
	C4.031316,226.216812 3.102250,223.423065 1.382280,221.002472 
	C1.000000,212.979095 1.000000,204.958191 1.000001,196.468643 
z"/>
<path fill="#FFFFFF" opacity="1.000000" stroke="none" 
	d="
M55.000000,272.932922 
	C55.097530,266.687775 59.710617,261.910400 65.099014,262.045441 
	C69.925728,262.166382 74.870224,266.742371 74.999969,271.208466 
	C75.208115,278.372772 72.028290,282.695221 66.325577,282.999847 
	C59.294884,283.375458 55.466991,280.117859 55.000000,272.932922 
z"/>
</svg>