<svg version="1.1" id="Layer_1" xmlns="http://www.w3.org/2000/svg" xmlns:xlink="http://www.w3.org/1999/xlink" x="0px" y="0px"
	 width="100%" viewBox="0 0 512 512" enable-background="new 0 0 512 512" xml:space="preserve">
<path fill="#000000" opacity="1.000000" stroke="none" 
	d="
M280.000000,1.000000 
	C357.620209,1.000000 435.240387,1.000000 512.930298,1.000000 
	C512.930298,171.666641 512.930298,342.333313 512.930298,513.000000 
	C508.948395,513.000000 504.950836,513.000000 500.187805,512.692810 
	C503.712860,509.552490 505.574402,505.707458 505.042236,500.467163 
	C503.588898,486.155914 502.692993,471.780090 500.923950,457.510712 
	C498.372192,436.927765 491.427124,417.541779 482.895386,398.792297 
	C472.662872,376.305145 459.254395,355.720184 442.723938,337.354156 
	C428.395142,321.434296 412.496033,307.047760 394.542511,295.353882 
	C374.052643,282.008026 352.245544,271.129700 328.435822,264.753113 
	C325.358124,263.928833 322.373962,262.755280 318.929169,261.604065 
	C339.000519,251.414490 355.394257,237.678314 368.285431,220.087067 
	C384.496094,197.966125 393.507385,172.889282 394.736877,145.562424 
	C395.284485,133.391891 394.354309,120.786087 391.702179,108.912262 
	C384.833252,78.159401 369.369110,52.215191 344.658295,32.116047 
	C326.059723,16.988440 305.252106,6.790687 281.471649,2.915688 
	C280.892426,2.821307 280.486664,1.662404 280.000000,1.000000 
z"/>
<path fill="#000000" opacity="1.000000" stroke="none" 
	d="
M14.000008,513.000000 
	C9.669137,513.000000 5.338274,513.000000 1.005558,513.000000 
	C1.003705,342.433075 1.003705,171.866165 1.003705,1.000000 
	C78.355721,1.000000 155.711823,1.000000 233.834198,1.356989 
	C233.935730,2.137309 233.304779,2.860381 232.601227,2.939745 
	C218.313965,4.551417 205.027328,9.711240 192.623734,16.346041 
	C170.902954,27.964680 153.206406,44.273037 140.000702,65.391113 
	C126.539078,86.918465 119.935608,110.443253 119.209679,135.527374 
	C118.924065,145.397018 120.449860,155.424500 122.085274,165.224152 
	C126.612885,192.354187 139.680817,215.214325 158.487488,234.946121 
	C167.978760,244.904266 179.112244,252.772324 191.020248,259.588043 
	C191.943848,260.116669 192.645523,261.033020 192.995605,261.353210 
	C178.039230,267.193512 163.125473,272.154816 148.974457,278.752167 
	C129.446854,287.856171 111.586021,299.772949 95.312378,314.069794 
	C78.956268,328.439026 64.304253,344.228424 51.949451,362.184418 
	C41.231869,377.760956 32.564148,394.396545 25.584280,411.919739 
	C19.013542,428.415833 14.331499,445.440552 11.989316,463.077637 
	C11.048192,470.164490 8.965682,477.284515 9.273532,484.307434 
	C9.692000,493.853790 4.931154,504.632599 14.342424,512.635864 
	C14.228293,512.757263 14.114155,512.878662 14.000008,513.000000 
z"/>
<path fill="#FFFFFF" opacity="1.000000" stroke="none" 
	d="
M14.468666,513.000000 
	C14.114155,512.878662 14.228293,512.757263 14.342424,512.635864 
	C4.931154,504.632599 9.692000,493.853790 9.273532,484.307434 
	C8.965682,477.284515 11.048192,470.164490 11.989316,463.077637 
	C14.331499,445.440552 19.013542,428.415833 25.584280,411.919739 
	C32.564148,394.396545 41.231869,377.760956 51.949451,362.184418 
	C64.304253,344.228424 78.956268,328.439026 95.312378,314.069794 
	C111.586021,299.772949 129.446854,287.856171 148.974457,278.752167 
	C163.125473,272.154816 178.039230,267.193512 192.995605,261.353210 
	C192.645523,261.033020 191.943848,260.116669 191.020248,259.588043 
	C179.112244,252.772324 167.978760,244.904266 158.487488,234.946121 
	C139.680817,215.214325 126.612885,192.354187 122.085274,165.224152 
	C120.449860,155.424500 118.924065,145.397018 119.209679,135.527374 
	C119.935608,110.443253 126.539078,86.918465 140.000702,65.391113 
	C153.206406,44.273037 170.902954,27.964680 192.623734,16.346041 
	C205.027328,9.711240 218.313965,4.551417 232.601227,2.939745 
	C233.304779,2.860381 233.935730,2.137309 234.300232,1.356989 
	C249.020889,1.000000 264.041779,1.000000 279.531342,1.000000 
	C280.486664,1.662404 280.892426,2.821307 281.471649,2.915688 
	C305.252106,6.790687 326.059723,16.988440 344.658295,32.116047 
	C369.369110,52.215191 384.833252,78.159401 391.702179,108.912262 
	C394.354309,120.786087 395.284485,133.391891 394.736877,145.562424 
	C393.507385,172.889282 384.496094,197.966125 368.285431,220.087067 
	C355.394257,237.678314 339.000519,251.414490 318.929169,261.604065 
	C322.373962,262.755280 325.358124,263.928833 328.435822,264.753113 
	C352.245544,271.129700 374.052643,282.008026 394.542511,295.353882 
	C412.496033,307.047760 428.395142,321.434296 442.723938,337.354156 
	C459.254395,355.720184 472.662872,376.305145 482.895386,398.792297 
	C491.427124,417.541779 498.372192,436.927765 500.923950,457.510712 
	C502.692993,471.780090 503.588898,486.155914 505.042236,500.467163 
	C505.574402,505.707458 503.712860,509.552490 499.711121,512.692810 
	C338.312439,513.000000 176.624878,513.000000 14.468666,513.000000 
M104.516396,335.989899 
	C86.777504,352.635986 71.695702,371.306335 59.668434,392.563446 
	C50.102745,409.470001 42.891079,427.233459 38.114265,445.952057 
	C35.483543,456.260895 33.852394,466.838806 32.092911,477.349365 
	C31.355278,481.755646 31.452658,486.301697 31.173700,490.732117 
	C182.035934,490.732117 332.467560,490.732117 483.175873,490.732117 
	C482.425873,484.954437 481.971680,479.420959 480.949707,473.994446 
	C478.622162,461.635895 476.793518,449.109283 473.371307,437.045502 
	C464.574707,406.036346 448.620819,378.630371 427.622620,354.450348 
	C414.498199,339.337158 399.503387,325.989410 382.611053,314.827301 
	C359.970978,299.867188 335.769745,288.929108 309.339142,282.589447 
	C292.756714,278.611938 275.984100,276.795135 259.052521,276.093658 
	C252.991272,275.842560 246.876434,276.551788 240.802414,277.030243 
	C233.795135,277.582214 226.600708,277.536987 219.850510,279.212982 
	C204.606308,282.998016 189.247437,286.768372 174.548111,292.202545 
	C148.528870,301.821533 125.537216,316.782806 104.516396,335.989899 
M164.449860,69.039520 
	C161.294632,74.084602 157.808136,78.955261 155.043427,84.205978 
	C144.890610,103.488182 140.360046,123.863014 141.795227,145.855637 
	C142.816666,161.507706 146.643967,176.184967 153.600052,189.933380 
	C163.565292,209.629318 177.951675,225.529800 197.035095,237.037506 
	C214.716858,247.700012 233.760162,253.699371 254.405045,253.883591 
	C261.725403,253.948898 269.086456,252.900558 276.379150,251.970383 
	C297.486084,249.278229 316.006134,240.181549 331.757996,226.451996 
	C353.299042,207.676514 367.045227,184.216995 371.229279,155.309723 
	C373.113098,142.294373 373.169739,129.437042 370.702881,116.838982 
	C367.411530,100.030266 360.746185,84.470917 350.282410,70.467247 
	C335.685028,50.931591 317.220825,37.034435 294.303101,29.022606 
	C277.383301,23.107590 260.050751,21.869493 242.199112,23.836138 
	C227.973419,25.403324 214.846985,30.060829 202.422516,36.426613 
	C187.521805,44.061123 175.325989,55.338600 164.449860,69.039520 
z"/>
<path fill="#000000" opacity="1.000000" stroke="none" 
	d="
M104.765495,335.733582 
	C125.537216,316.782806 148.528870,301.821533 174.548111,292.202545 
	C189.247437,286.768372 204.606308,282.998016 219.850510,279.212982 
	C226.600708,277.536987 233.795135,277.582214 240.802414,277.030243 
	C246.876434,276.551788 252.991272,275.842560 259.052521,276.093658 
	C275.984100,276.795135 292.756714,278.611938 309.339142,282.589447 
	C335.769745,288.929108 359.970978,299.867188 382.611053,314.827301 
	C399.503387,325.989410 414.498199,339.337158 427.622620,354.450348 
	C448.620819,378.630371 464.574707,406.036346 473.371307,437.045502 
	C476.793518,449.109283 478.622162,461.635895 480.949707,473.994446 
	C481.971680,479.420959 482.425873,484.954437 483.175873,490.732117 
	C332.467560,490.732117 182.035934,490.732117 31.173700,490.732117 
	C31.452658,486.301697 31.355278,481.755646 32.092911,477.349365 
	C33.852394,466.838806 35.483543,456.260895 38.114265,445.952057 
	C42.891079,427.233459 50.102745,409.470001 59.668434,392.563446 
	C71.695702,371.306335 86.777504,352.635986 104.765495,335.733582 
M117.554108,381.958252 
	C118.635521,380.540131 119.608475,379.021515 120.815079,377.719360 
	C132.999405,364.570251 146.770889,353.361877 162.043152,343.968506 
	C166.426010,341.272766 168.058243,336.135773 167.326874,331.625519 
	C166.119385,324.179138 157.341782,320.217255 148.880951,325.589111 
	C130.416901,337.312073 113.183868,350.603912 99.763893,367.981049 
	C90.215378,380.345123 80.660706,393.016937 73.431961,406.772308 
	C66.187462,420.557648 61.718121,435.818329 56.302017,450.531647 
	C55.352642,453.110748 55.094101,456.309113 55.639751,458.993164 
	C56.604271,463.737671 62.278839,467.912933 66.554367,467.862244 
	C71.196243,467.807190 75.442352,464.459503 76.983047,459.175140 
	C81.747070,442.835297 87.100296,426.668671 96.115334,412.156250 
	C102.493858,401.888123 110.015602,392.330139 117.554108,381.958252 
M266.986481,301.847321 
	C264.461761,299.896851 262.197571,297.105438 259.342621,296.220734 
	C256.175110,295.239258 252.465286,296.092041 248.996689,295.983429 
	C235.365707,295.556641 222.100372,297.965820 208.903580,300.991974 
	C202.865936,302.376465 199.792389,307.614166 201.008377,314.601929 
	C201.779465,319.033051 208.219604,324.125763 212.678497,322.877441 
	C227.544495,318.715424 242.873734,318.587463 258.037140,316.999115 
	C265.747528,316.191498 269.499664,310.256287 266.986481,301.847321 
z"/>
<path fill="#000000" opacity="1.000000" stroke="none" 
	d="
M164.714447,68.786835 
	C175.325989,55.338600 187.521805,44.061123 202.422516,36.426613 
	C214.846985,30.060829 227.973419,25.403324 242.199112,23.836138 
	C260.050751,21.869493 277.383301,23.107590 294.303101,29.022606 
	C317.220825,37.034435 335.685028,50.931591 350.282410,70.467247 
	C360.746185,84.470917 367.411530,100.030266 370.702881,116.838982 
	C373.169739,129.437042 373.113098,142.294373 371.229279,155.309723 
	C367.045227,184.216995 353.299042,207.676514 331.757996,226.451996 
	C316.006134,240.181549 297.486084,249.278229 276.379150,251.970383 
	C269.086456,252.900558 261.725403,253.948898 254.405045,253.883591 
	C233.760162,253.699371 214.716858,247.700012 197.035095,237.037506 
	C177.951675,225.529800 163.565292,209.629318 153.600052,189.933380 
	C146.643967,176.184967 142.816666,161.507706 141.795227,145.855637 
	C140.360046,123.863014 144.890610,103.488182 155.043427,84.205978 
	C157.808136,78.955261 161.294632,74.084602 164.714447,68.786835 
z"/>
<path fill="#FFFFFF" opacity="1.000000" stroke="none" 
	d="
M117.290558,382.206696 
	C110.015602,392.330139 102.493858,401.888123 96.115334,412.156250 
	C87.100296,426.668671 81.747070,442.835297 76.983047,459.175140 
	C75.442352,464.459503 71.196243,467.807190 66.554367,467.862244 
	C62.278839,467.912933 56.604271,463.737671 55.639751,458.993164 
	C55.094101,456.309113 55.352642,453.110748 56.302017,450.531647 
	C61.718121,435.818329 66.187462,420.557648 73.431961,406.772308 
	C80.660706,393.016937 90.215378,380.345123 99.763893,367.981049 
	C113.183868,350.603912 130.416901,337.312073 148.880951,325.589111 
	C157.341782,320.217255 166.119385,324.179138 167.326874,331.625519 
	C168.058243,336.135773 166.426010,341.272766 162.043152,343.968506 
	C146.770889,353.361877 132.999405,364.570251 120.815079,377.719360 
	C119.608475,379.021515 118.635521,380.540131 117.290558,382.206696 
z"/>
<path fill="#FFFFFF" opacity="1.000000" stroke="none" 
	d="
M267.060913,302.247314 
	C269.499664,310.256287 265.747528,316.191498 258.037140,316.999115 
	C242.873734,318.587463 227.544495,318.715424 212.678497,322.877441 
	C208.219604,324.125763 201.779465,319.033051 201.008377,314.601929 
	C199.792389,307.614166 202.865936,302.376465 208.903580,300.991974 
	C222.100372,297.965820 235.365707,295.556641 248.996689,295.983429 
	C252.465286,296.092041 256.175110,295.239258 259.342621,296.220734 
	C262.197571,297.105438 264.461761,299.896851 267.060913,302.247314 
z"/>
</svg>